<?xml version="1.0" standalone="no"?>
<!DOCTYPE svg PUBLIC "-//W3C//DTD SVG 1.1//EN" "http://www.w3.org/Graphics/SVG/1.1/DTD/svg11.dtd" >
<svg xmlns="http://www.w3.org/2000/svg">
<metadata>
Created by FontPrep 20130207 at Thu Nov 20 17:37:39 2014
 By Pepel
Copyright 2014 Adobe Systems Incorporated. All rights reserved.
</metadata>
<defs>
<font id="9b8085ad94c54da7b6c6dd21a7eb70b4" horiz-adv-x='1024' >
  <font-face 
    font-family="MilioDemiBoldItalic"
    font-weight="600"
    font-style="italic"
    font-stretch="normal"
    units-per-em="2048"
    panose-1="0 0 0 0 0 0 0 0 0 0"
    ascent="1638"
    descent="-410"
    x-height="962"
    cap-height="1262"
    bbox="-381 -639 2288 2116"
    underline-thickness="102"
    underline-position="-102"
    slope="-6"
    unicode-range="U+0020-FB06"
  />
<missing-glyph horiz-adv-x="991" 
d="M207 84h592l123 1268h-592zM125 2l137 1432h744l-140 -1432h-741z" />
    <glyph glyph-name="f_f" unicode="ff" horiz-adv-x="1067" 
d="M496 -250l41 -8q100 0 120 321l78 797h-303l-80 -817q-20 -211 -120 -321t-261 -110q-162 0 -245 46q23 131 81 240h78l17 -215q18 -8 57 -9q70 0 110 78t56 242l84 866h-123l8 72h123l4 43q37 377 334 377q111 0 184 -47q-27 -125 -84 -238h-45l-10 215q-14 8 -43 8
q-80 0 -108 -264l-11 -94h305l5 43q20 211 119 321t259 111q160 0 250 -47q-29 -133 -84 -238h-78l-16 215q-25 8 -51 9q-139 0 -172 -320l-10 -94h135l-8 -72h-134l-73 -747q-37 -430 -334 -430q-135 0 -209 45q23 125 84 239h63z" />
    <glyph glyph-name="fi" unicode="fi" horiz-adv-x="1089" 
d="M727 1407q162 0 252 -47q-23 -121 -82 -238h-78l-16 215q-27 8 -66 9q-250 0 -288 -320l-11 -94h531l-78 -778q-2 -27 7 -39t26 -9l100 25l14 -55q-150 -82 -270 -107q-49 11 -79 55t-23 105l73 731h-307l-80 -817q-20 -211 -120 -321t-261 -110q-162 0 -245 46
q23 131 81 240h78l17 -215q18 -8 57 -9q70 0 110 78t56 242l84 866h-123l8 72h123l4 45q19 209 149 319t357 111z" />
    <glyph glyph-name="fl" unicode="fl" horiz-adv-x="1083" 
d="M735 1407q172 0 273 -47l-117 -1206q-2 -27 7 -39t26 -9l100 25l14 -55q-150 -82 -270 -107q-49 11 -79 55t-23 105q100 1049 118 1214q-14 2 -39 3q-268 0 -296 -320l-11 -94h135l-8 -72h-133l-80 -817q-20 -211 -120 -321t-261 -110q-162 0 -245 46q23 131 81 240h78
l17 -215q18 -8 57 -9q70 0 110 78t56 242l84 866h-123l8 72h123l4 43q19 211 151 321t363 111z" />
    <glyph glyph-name="f_f_i" unicode="ffi" horiz-adv-x="1613" 
d="M555 1352q111 0 184 -47q-27 -125 -84 -238h-45l-10 215q-14 8 -43 8q-80 0 -108 -264l-11 -94h303l4 45q17 209 149 319t359 111q158 0 252 -47q-23 -125 -84 -238h-78l-16 215q-25 8 -65 9q-250 0 -289 -320l-10 -94h530l-78 -778q-2 -27 7 -39t26 -9l100 25l15 -55
q-152 -82 -271 -107q-49 11 -79 55t-23 105l74 731h-308l-71 -747q-41 -430 -336 -430q-131 0 -209 45q23 125 84 239h65l5 -217l41 -8q98 0 122 321l76 797h-301l-80 -817q-20 -211 -120 -321t-261 -110q-162 0 -245 46q23 131 81 240h78l17 -215q18 -8 57 -9q70 0 110 78
t56 242l84 866h-123l8 72h123l4 45q37 375 334 375z" />
    <glyph glyph-name="f_f_l" unicode="ffl" horiz-adv-x="1611" 
d="M496 -250l41 -8q90 0 120 321l78 797h-303l-80 -817q-20 -211 -120 -321t-261 -110q-162 0 -245 46q23 131 81 240h78l17 -215q18 -8 57 -9q70 0 110 78t56 242l84 866h-123l8 72h123l4 45q37 375 334 375q111 0 184 -47q-27 -125 -84 -238h-45l-10 215q-14 8 -43 8
q-80 0 -108 -264l-11 -94h305l5 45q20 209 152 319t364 111q172 0 272 -47l-119 -1206q-2 -27 7 -39t26 -9l100 25l17 -55q-150 -82 -271 -107q-51 9 -81 53t-23 107q102 1049 119 1214q-14 2 -39 3q-264 0 -297 -320l-10 -94h135l-8 -72h-134l-73 -747q-41 -430 -334 -430
q-135 0 -209 45q23 125 84 239h63z" />
    <glyph glyph-name="f_h" unicode="fh" horiz-adv-x="1595" 
d="M706 1407q206 0 310 -47l-68 -676q102 129 190 204t183 75q94 1 126 -95t9 -307l-41 -407q-2 -27 7 -39t26 -9l102 25l15 -55q-35 -23 -134 -61t-141 -46q-117 10 -100 156l39 379q26 222 -4 276q-12 23 -35 23q-48 -1 -106 -59t-148 -175l-55 -569l-224 -27l131 1370
l-51 3q-258 0 -288 -320l-11 -94h135l-8 -72h-133l-80 -817q-20 -211 -120 -321t-261 -110q-162 0 -245 46q23 131 81 240h78l17 -215q18 -8 57 -9q70 0 110 78t56 242l84 866h-123l8 72h123l4 45q19 209 149 319t336 111z" />
    <glyph glyph-name="f_b" unicode="fb" horiz-adv-x="1550" 
d="M1151 860q-88 0 -203 -164l-63 -655q33 -4 95 -4t120 46q57 46 88 124q57 143 65 334q11 319 -102 319zM727 1407q180 0 285 -47l-54 -553q130 156 258 156t210 -113q82 -112 72 -340t-158 -384t-375 -157q-141 0 -308 56l129 1318l-49 3q-258 0 -288 -320l-11 -94h135
l-8 -72h-133l-80 -817q-20 -211 -120 -321t-261 -110q-162 0 -245 46q23 131 81 240h78l17 -215q18 -8 57 -9q70 0 110 78t56 242l84 866h-123l8 72h123l4 41q19 211 149 323t357 111z" />
    <glyph glyph-name="f_j" unicode="fj" horiz-adv-x="1038" 
d="M727 1407q162 0 252 -47q-23 -121 -82 -238h-78l-16 215q-27 8 -66 9q-258 0 -291 -316l-10 -98h533l-88 -875q-18 -186 -126 -301t-304 -139l-15 59q109 66 161 177t73 309l69 696h-309l-78 -815q-20 -211 -120 -321t-261 -110q-162 0 -245 46q23 131 81 240h78l17 -215
q18 -8 57 -9q70 0 110 78t56 242l86 864h-125l8 74h123l4 35q19 213 149 327t357 113z" />
    <glyph glyph-name="f_k" unicode="fk" horiz-adv-x="1562" 
d="M706 1407q206 0 310 -47l-62 -619q145 221 330 222q98 -1 163 -57t65 -162t-80 -201q-78 -96 -230 -148l127 -205q59 -84 123 -92l70 21l18 -51q-109 -66 -252 -99q-106 25 -178 154l-113 213l11 55l71 37q190 96 191 309q0 57 -24 89t-52 32q-123 0 -254 -262l-57 -596
l-226 -27l131 1370l-51 3q-258 0 -288 -320l-11 -94h135l-8 -72h-133l-80 -817q-20 -211 -120 -321t-261 -110q-162 0 -245 46q23 131 81 240h78l17 -215q18 -8 57 -9q70 0 110 78t56 242l84 866h-123l8 72h123l4 43q19 211 149 321t336 111z" />
    <glyph glyph-name=".notdef" horiz-adv-x="991" 
d="M207 84h592l123 1268h-592zM125 2l137 1432h744l-140 -1432h-741z" />
    <glyph glyph-name=".null" horiz-adv-x="0" 
 />
    <glyph glyph-name="nonmarkingreturn" horiz-adv-x="681" 
 />
    <glyph glyph-name="space" unicode=" " horiz-adv-x="411" 
 />
    <glyph glyph-name="exclam" unicode="!" horiz-adv-x="485" 
d="M100 102q0 64 33 98t87 34t87 -34t33 -98t-33 -99q-33 -34 -88 -34t-87 34q-32 35 -32 99zM199 342l12 920l246 -2l-162 -918h-96z" />
    <glyph glyph-name="quotedbl" unicode="&#x22;" horiz-adv-x="665" 
d="M182 764v498h209q-29 -238 -131 -498h-78zM465 764l2 498h209q-29 -238 -131 -498h-80z" />
    <glyph glyph-name="numbersign" unicode="#" horiz-adv-x="1103" 
d="M485 770l-57 -270h246l57 270h-246zM98 500h187l57 270h-217l16 158h236l72 334h143l-72 -334h246l72 334h145l-72 -334h170l-16 -158h-188l-58 -270h221l-16 -158h-238l-73 -342h-146l74 342h-246l-73 -342h-144l74 342h-168z" />
    <glyph glyph-name="dollar" unicode="$" horiz-adv-x="946" 
d="M399 1032q-12 -119 107 -231l80 422q-88 -7 -134 -63t-53 -128zM637 227q10 113 -137 238l-82 -428q196 4 219 190zM588 1292h10l35 178h57l-35 -182q172 -16 273 -88q-23 -145 -78 -256h-90l-31 260q-43 16 -86 19l-88 -465q54 -42 118 -91q125 -95 168 -170
q43 -76 38 -180q-13 -164 -143 -256t-320 -92h-10l-31 -159h-58l31 161q-209 18 -309 103q17 145 70 256h92l39 -262q51 -25 120 -31l89 469q-150 121 -199 176q-102 124 -88 276t133 243t293 91z" />
    <glyph glyph-name="percent" unicode="%" horiz-adv-x="1419" 
d="M1058 43q108 0 132 270q29 274 -80 275q-104 0 -132 -272t80 -273zM371 678q109 0 133 271t-80 272q-109 1 -133 -271t80 -272zM1051 -31q-125 -1 -193 95t-52 250t101 249q86 96 211 96t193 -95q69 -95 53 -250t-102 -250t-211 -95zM363 602q-123 0 -191 95t-53 251
q16 156 101 251t210 95q53 0 87 -14t81 -34q141 -62 224 -62t211 85q15 9 49 31t48 31l78 -55l-854 -1327l-80 57l770 1190q-152 -90 -226 -91t-163 32q29 -84 21 -189q-14 -156 -102 -251t-211 -95z" />
    <glyph glyph-name="ampersand" unicode="&#x26;" horiz-adv-x="1118" 
d="M1032 510q0 -207 -140 -374t-348 -167t-336 92q-128 93 -128 247t96 258t268 136q-108 29 -164 106t-57 175q-1 131 103 220t297 89q96 0 187 -30t132 -72q-12 -113 -70 -219h-98l-37 235q-33 14 -82 15q-98 0 -146 -69t-47 -173t48 -173t121 -69h63l-14 -73h-64
q-112 0 -202 -106t-90 -253q0 -104 59 -184t179 -78t210 78q90 75 134 183t44 202t-26 158h-125l20 108q88 10 156 -35h162l-11 -73h-122q28 -76 28 -154z" />
    <glyph glyph-name="quotesingle" unicode="'" horiz-adv-x="380" 
d="M182 764v498h209q-29 -238 -131 -498h-78z" />
    <glyph glyph-name="parenleft" unicode="(" horiz-adv-x="563" 
d="M463 -287l-55 -53q-176 184 -266 387q-89 203 -60 488q49 516 502 907l45 -53q-279 -387 -326 -854q-25 -250 19 -442t141 -380z" />
    <glyph glyph-name="parenright" unicode=")" horiz-adv-x="561" 
d="M27 -340l-45 53q133 191 213 381t104 441q45 463 -160 854l56 53q375 -389 325 -907q-30 -285 -156 -488t-337 -387z" />
    <glyph glyph-name="asterisk" unicode="*" horiz-adv-x="860" 
d="M557 1403q35 1 49 -17t4 -49l-65 -270q156 162 286 152l19 -41q27 -72 -33 -95l-242 -94q82 -12 153 -68t87 -120l-27 -39q-18 -29 -47 -36t-41 7l-170 176q23 -63 9 -169t-60 -167h-43q-33 -1 -49 19t-6 49l63 272q-52 -67 -130 -111t-156 -40l-19 39q-14 31 -5 59
t38 35l240 92q-84 13 -150 63t-88 119l27 45q18 35 45 41t45 -16l172 -176q-20 98 -6 191t55 149h45z" />
    <glyph glyph-name="plus" unicode="+" horiz-adv-x="819" 
d="M307 98l29 303h-260l16 164h262l27 295l164 -2l-27 -293h256l-18 -164h-254l-29 -303h-166z" />
    <glyph glyph-name="comma" unicode="," horiz-adv-x="442" 
d="M72 109q0 73 36 107t94 34t93 -41t33 -117q-2 -132 -78 -238t-209 -141l-10 58q86 43 126 87t56 111q-141 6 -141 140z" />
    <glyph glyph-name="hyphen" unicode="-" horiz-adv-x="616" 
d="M113 387l18 193h401l-18 -193h-401z" />
    <glyph glyph-name="period" unicode="." horiz-adv-x="434" 
d="M195 -31q-59 0 -94 37q-33 37 -33 105q4 139 129 139q57 0 93 -36t35 -104t-36 -104q-35 -37 -94 -37z" />
    <glyph glyph-name="slash" unicode="/" horiz-adv-x="909" 
d="M-37 -387l846 1790h172l-848 -1790h-170z" />
    <glyph glyph-name="zero" unicode="0" horiz-adv-x="1060" 
d="M505 35q198 0 255 596q55 596 -141 596t-254 -596t140 -596zM498 -31q-203 1 -311 183t-78 479q29 297 172 479t346 182t311 -182t78 -479q-29 -297 -172 -479t-346 -183z" />
    <glyph glyph-name="one" unicode="1" horiz-adv-x="669" 
d="M590 59l-12 -59h-496l10 59l78 17q57 14 61 59l91 914l-213 -54l12 74l409 209h43l-108 -1143q-2 -27 9 -38t42 -19z" />
    <glyph glyph-name="two" unicode="2" horiz-adv-x="935" 
d="M471 1227q-70 0 -106 -33l-84 -260h-93q-35 111 -18 240q125 119 356 118q174 0 268 -100t78 -283q-20 -224 -203 -409q-155 -157 -390 -316l389 2q25 0 38 14t25 48l41 96h88q-12 -166 -67 -344h-764l8 92q291 228 421 406t158 428q4 61 2 128t-39 120q-38 53 -108 53z
" />
    <glyph glyph-name="three" unicode="3" horiz-adv-x="890" 
d="M444 1225q-54 0 -104 -29l-84 -262h-88q-37 102 -25 233q63 57 159 91t192 34q164 0 261 -79t85 -216q-8 -100 -81 -184t-200 -106q131 -21 204 -105t61 -208t-117 -220q-203 -184 -646 -205l-2 74q264 17 383 119t127 239q10 106 -50 174t-191 80l8 70q125 25 179 91
t69 192q12 56 -15 138q-23 79 -125 79z" />
    <glyph glyph-name="four" unicode="4" horiz-adv-x="942" 
d="M170 479l352 -4l60 600zM887 473l-25 -154h-121l-16 -184q-4 -32 21 -46q9 -5 28 -11l55 -19l-12 -59h-450l10 59l51 17q31 8 45 20t16 39l19 182h-485l16 86l590 859h205l-76 -789h129z" />
    <glyph glyph-name="five" unicode="5" horiz-adv-x="903" 
d="M500 803q178 0 268 -117q90 -116 72 -304t-150 -300t-342 -113q-212 0 -315 129q27 145 69 228h103l16 -260q41 -31 121 -31t136 63q56 64 78 138t30 160t1 157q-7 72 -42 128t-94 56q-92 0 -218 -86h-69l121 611h598l-45 -220l-523 33q-51 -258 -67 -340q135 68 252 68z
" />
    <glyph glyph-name="six" unicode="6" horiz-adv-x="999" 
d="M485 37q162 0 197 346q14 145 -18 241q-33 95 -111 95t-193 -82l-2 -29q-25 -248 3 -410t124 -161zM727 1221q-119 1 -216 -139t-138 -365q129 80 271 80q142 1 228 -97t68 -292t-156 -317q-138 -122 -318 -122q-182 0 -287 168t-81 426q33 336 212 533t407 196
q69 0 133 -17t94 -34l31 -16q-6 -78 -41 -142h-62l-63 131q-37 7 -82 7z" />
    <glyph glyph-name="seven" unicode="7" horiz-adv-x="847" 
d="M913 1262l-4 -56l-526 -1206h-274l657 1087l-455 -18q-32 -4 -41 -13q-10 -9 -16 -24l-51 -112h-90q18 193 73 342h727z" />
    <glyph glyph-name="eight" unicode="8" horiz-adv-x="956" 
d="M811 1022q8 94 -40 149t-144 55q-95 0 -151 -49q-56 -50 -66 -141q-4 -49 26 -104t66 -93q37 -38 106 -102q189 135 203 285zM174 281q-10 -115 47 -181t167 -66t177 56q92 77 71 188q-15 76 -144 198q-18 17 -56 52t-55 52q-193 -145 -207 -299zM423 -31q-197 0 -282 82
q-84 82 -69 223q16 180 266 347q-182 186 -168 343q14 156 136 242t286 86t249 -67q83 -68 70 -199q-20 -186 -260 -328q117 -106 177 -198t51 -197q-15 -152 -137 -243t-319 -91z" />
    <glyph glyph-name="nine" unicode="9" horiz-adv-x="1001" 
d="M508 543q78 0 190 82l4 28q25 248 -3 410t-124 162q-166 0 -196 -346q-14 -145 18 -241q33 -95 111 -95zM334 43q119 0 215 138t137 362q-130 -78 -272 -78t-227 96t-67 292q18 195 156 317q137 122 319 122t287 -168t81 -426q-35 -338 -212 -534t-405 -195
q-68 1 -131 19t-94 37l-31 18q12 86 49 141h60l59 -135q33 -6 76 -6z" />
    <glyph glyph-name="colon" unicode=":" horiz-adv-x="477" 
d="M218 250q58 0 93 -36t35 -104t-36 -104q-36 -37 -94 -37t-93 36t-35 106q2 71 37 105t93 34zM287 948q57 0 92 -35t34 -103t-36 -106q-35 -36 -92 -36q-129 0 -128 140t130 140z" />
    <glyph glyph-name="semicolon" unicode=";" horiz-adv-x="481" 
d="M92 106q0 74 36 109t94 35t93 -41t33 -117q0 -132 -76 -238t-211 -143l-10 60q86 43 126 87t56 111q-141 4 -141 137zM286 948q58 0 93 -35t35 -103t-36 -106q-36 -36 -94 -36t-94 35q-34 36 -34 106q2 71 37 105t93 34z" />
    <glyph glyph-name="less" unicode="&#x3c;" horiz-adv-x="796" 
d="M63 397l13 115l669 371l-20 -207l-422 -221l379 -217l-18 -205z" />
    <glyph glyph-name="equal" unicode="=" horiz-adv-x="976" 
d="M96 174l19 191h753l-18 -191h-754zM133 561l19 193h755l-18 -193h-756z" />
    <glyph glyph-name="greater" unicode="&#x3e;" horiz-adv-x="794" 
d="M756 512l-13 -115l-667 -364l20 205l422 217l-379 221l19 207z" />
    <glyph glyph-name="question" unicode="?" horiz-adv-x="804" 
d="M309 217q51 0 81 -32t30 -91t-31 -92t-82 -33t-82 33q-30 33 -28 92q0 59 30 91q31 32 82 32zM466 1292q175 0 271 -85t82 -244t-165 -267q-62 -45 -124 -92t-108 -121q-47 -74 -57 -172h-80q11 226 108 367q41 57 82 105q99 116 113 241q8 74 -21 137t-111 63t-128 -36
l-82 -256h-92q-23 92 -13 239q150 121 325 121z" />
    <glyph glyph-name="at" unicode="@" horiz-adv-x="1615" 
d="M737 295q55 0 205 227l55 242l-88 72q-57 0 -130 -129t-88 -271t46 -141zM645 98q-106 0 -158 83q-51 83 -39 198t67 220q56 105 129 175t147 111t124 41l103 -78l55 61h195l-138 -549l-36 -155q129 10 251 136t140 333q18 206 -118 328t-391 122t-465 -209t-241 -528
q-17 -204 72 -349q47 -77 142 -122t208 -45q112 0 222 33t157 71l16 -45q-190 -164 -430 -163q-281 1 -445 163t-139 424q26 262 166 452q140 188 341 286t421 98q275 0 431 -148t132 -383q-24 -237 -191 -391t-425 -153h-98l55 241q-67 -104 -141 -181t-119 -77z" />
    <glyph glyph-name="A" unicode="A" horiz-adv-x="1095" 
d="M528 1042l-229 -544h350zM725 158l-59 264h-398l-112 -268q-25 -61 30 -72l119 -23l-10 -59h-348l10 59l66 21q33 10 55 63l469 1119h184l250 -1106q16 -63 51 -76l58 -21l-13 -59h-526l10 59l109 19q71 14 55 80z" />
    <glyph glyph-name="B" unicode="B" horiz-adv-x="1089" 
d="M604 1188h-98l-45 -479h104q85 1 135 73t60 183q20 223 -156 223zM555 633h-102l-54 -559h125q217 0 242 272q12 123 -37 205t-174 82zM643 1262q189 0 289 -71t86 -218q-10 -98 -72 -183t-192 -118q150 -31 216 -121t54 -203q-16 -162 -133 -255t-305 -93h-539l12 59
l50 17q59 16 63 59l96 991q4 45 -51 60l-55 16l12 60h469z" />
    <glyph glyph-name="C" unicode="C" horiz-adv-x="1130" 
d="M655 -31q-285 0 -437 163t-120 479q31 317 224 499q194 182 448 182t401 -118q-29 -141 -81 -242h-91l-34 260q-55 33 -156 33q-176 0 -301 -166t-152 -438q-26 -271 66 -429t266 -157q78 0 135 22l123 250h98q6 -158 -36 -270q-147 -68 -353 -68z" />
    <glyph glyph-name="D" unicode="D" horiz-adv-x="1247" 
d="M633 1188h-127l-107 -1114h125q162 0 282 147t144 407t-66 410q-91 150 -251 150zM668 1262q268 0 418 -167t120 -459q-29 -292 -209 -464t-442 -172h-508l12 59l50 17q59 16 63 59l96 991q4 45 -51 60l-55 16l12 60h494z" />
    <glyph glyph-name="E" unicode="E" horiz-adv-x="1007" 
d="M737 1188h-231l-47 -504h207q39 0 59 47l51 115h76l-57 -397h-66l-27 120q-8 41 -45 41h-206l-52 -536h248q68 0 94 49l99 176h88q-6 -164 -51 -299h-830l12 59l50 17q59 16 63 59l96 991q4 45 -49 60l-55 16l10 60h811q12 -115 -22 -295h-84l-54 166q-16 55 -88 55z" />
    <glyph glyph-name="F" unicode="F" horiz-adv-x="968" 
d="M743 1188h-237l-49 -514h209q37 0 59 47l49 115h78l-55 -398h-70l-27 121q-8 41 -45 41h-204l-45 -465q-2 -27 9 -38t40 -19l92 -19l-12 -59h-488l12 59l50 17q59 16 63 59l96 991q4 45 -49 60l-55 16l10 60h817q12 -119 -22 -304h-84l-51 175q-16 55 -91 55z" />
    <glyph glyph-name="G" unicode="G" horiz-adv-x="1228" 
d="M838 1223q-197 0 -326 -161q-129 -160 -157 -436q-27 -276 63 -432t268 -157q88 0 141 37l29 317q6 45 -41 55l-90 23l12 59h473l-12 -59l-65 -27q-39 -16 -43 -51l-29 -307q-162 -115 -429 -115t-415 176q-147 176 -119 473q28 298 219 486q190 188 464 188t407 -131
q-23 -118 -82 -229h-92l-31 260q-45 31 -145 31z" />
    <glyph glyph-name="H" unicode="H" horiz-adv-x="1314" 
d="M268 1126q4 45 -51 60l-55 16l12 60h451l-13 -60l-49 -18q-49 -16 -55 -30q-6 -13 -8 -28l-43 -432h471l41 432q4 45 -47 60l-56 16l11 60h450l-12 -60l-49 -18q-7 -4 -16 -6t-14 -6t-7 -4q-2 -2 -11 -8t-10 -12q-2 -6 -4 -10q-2 -5 -2 -12l-94 -991q-4 -32 21 -46
q9 -5 28 -11l55 -19l-12 -59h-450l12 59l49 17q59 16 63 59l46 486h-469l-48 -486q-4 -32 22 -46q9 -5 30 -11l53 -19l-10 -59h-451l12 59l50 17q59 16 63 59z" />
    <glyph glyph-name="I" unicode="I" horiz-adv-x="612" 
d="M268 1126q4 45 -51 60l-55 16l12 60h451l-13 -60l-49 -18q-49 -16 -55 -30q-6 -13 -8 -28l-97 -991q-4 -32 22 -46q9 -5 30 -11l53 -19l-10 -59h-451l12 59l50 17q59 16 63 59z" />
    <glyph glyph-name="J" unicode="J" horiz-adv-x="587" 
d="M389 68q-18 -190 -131 -308t-317 -143l-9 64q55 27 81 43t60 52q59 63 77 238l108 1112q2 27 -10 40t-39 20l-55 16l12 60h450l-12 -60l-49 -18q-8 -4 -16 -6q-7 -2 -13 -6t-8 -4q-2 -1 -6 -4t-6 -5t-5 -6t-4 -7t-3 -8t-2 -12z" />
    <glyph glyph-name="K" unicode="K" horiz-adv-x="1153" 
d="M268 1126q4 45 -51 60l-55 16l12 60h451l-13 -60l-49 -18q-49 -16 -55 -30q-6 -13 -8 -28l-47 -473l481 475q32 32 15 51q-7 7 -21 9l-84 14l10 60h352l-10 -60l-88 -20q-37 -15 -50 -28q-12 -14 -26 -26t-18 -16l-301 -299l297 -612q55 -115 135 -142l-10 -59h-316
l-301 618l-76 -73l-39 -410q-1 -27 11 -38t41 -19l53 -19l-10 -59h-451l12 59l50 17q59 16 63 59z" />
    <glyph glyph-name="L" unicode="L" horiz-adv-x="972" 
d="M621 74q70 0 92 49l123 239h92q-10 -176 -74 -362h-807l12 59l50 17q59 16 63 59l96 991q4 45 -51 60l-55 16l12 60h451l-13 -60l-49 -18q-49 -16 -55 -30q-6 -13 -8 -28l-101 -1052h222z" />
    <glyph glyph-name="M" unicode="M" horiz-adv-x="1548" 
d="M584 0q-195 745 -262 1008l-84 -873q-3 -27 13 -36q17 -9 38 -15l82 -25l-13 -59h-315l10 59l53 21q31 10 46 20q14 10 16 35l100 1024q-20 25 -92 43l12 60h320l268 -1037l479 1037h308l-13 -60q-12 -4 -49 -14t-59 -17l-99 -1036q-4 -32 22 -46q9 -5 28 -11l55 -19
l-12 -59h-451l10 59l52 17q59 16 63 59l78 826l-443 -961h-161z" />
    <glyph glyph-name="N" unicode="N" horiz-adv-x="1290" 
d="M866 0l-538 1057l-88 -922q-3 -27 13 -36q17 -9 40 -15l82 -25l-13 -59h-315l10 59l54 21q57 20 61 55l98 1024q-45 35 -102 43l10 60h326l534 -1026l86 888q2 16 -6 28t-18 17q-10 4 -33 11l-76 22l10 60h316l-10 -60l-56 -20q-35 -14 -46 -27q-11 -12 -13 -31
l-109 -1124h-217z" />
    <glyph glyph-name="O" unicode="O" horiz-adv-x="1280" 
d="M613 35q144 0 245 165q100 165 125 428t-41 430t-210 167t-246 -164t-129 -424q-26 -260 43 -431t213 -171zM608 -31q-256 0 -397 174q-141 173 -111 481t207 488q176 180 428 180t393 -174q140 -174 110 -485t-202 -487t-428 -177z" />
    <glyph glyph-name="P" unicode="P" horiz-adv-x="1044" 
d="M598 1188h-92l-62 -625h111q104 0 161 88q56 88 68 234q31 303 -186 303zM625 1262q217 0 331 -92t96 -286q-20 -192 -150 -294t-335 -103h-129l-35 -352q-2 -51 52 -57l110 -19l-12 -59h-506l12 59l50 17q59 16 63 59l96 991q4 45 -51 60l-55 16l12 60h451z" />
    <glyph glyph-name="Q" unicode="Q" horiz-adv-x="1282" 
d="M728 1225q-144 0 -244 -163t-126 -424t46 -432t216 -171t242 165t123 428t-44 430t-213 167zM741 1292q251 0 391 -174t109 -481q-25 -270 -158 -438t-338 -213q247 -152 429 -207l210 102l29 -39q-12 -31 -45 -78q-33 -46 -68 -78t-93 -58q-59 -26 -119 -26
q-162 1 -282 122q-69 68 -128 144t-80 101q-252 2 -389 175q-137 174 -107 480t208 487q179 181 431 181z" />
    <glyph glyph-name="R" unicode="R" horiz-adv-x="1110" 
d="M602 1188h-96l-57 -584h114q209 0 237 292t-198 292zM612 1262q230 0 352 -90t103 -273q-25 -246 -266 -336l117 -323q28 -74 60 -117t89 -64l-12 -59h-146q-109 0 -155 31t-82 145l-113 352h-117l-39 -393q-2 -47 52 -57l96 -19l-10 -59h-494l12 59l50 17q59 16 63 59
l96 991q4 45 -51 60l-55 16l12 60h438z" />
    <glyph glyph-name="S" unicode="S" horiz-adv-x="944" 
d="M403 37q211 0 234 190q11 133 -167 266q-76 56 -150 118q-74 63 -121 151t-37 192q14 156 133 247t293 91q94 0 188 -26t152 -66q-23 -145 -78 -256h-90l-31 260q-51 20 -137 20t-135 -58t-57 -138t41 -152q50 -72 125 -127q75 -53 150 -111t124 -139t39 -182
q-13 -164 -143 -256t-320 -92q-109 0 -213 28t-164 77q17 145 70 256h92l39 -262q61 -31 163 -31z" />
    <glyph glyph-name="T" unicode="T" horiz-adv-x="1046" 
d="M850 1188h-123l-100 -1053q-4 -45 51 -57l86 -19l-10 -59h-514l12 59l80 17q57 14 61 59l103 1053h-127q-66 0 -105 -74l-92 -168l-59 12q4 168 53 304h903q20 -137 -4 -304l-68 -12l-57 170q-25 72 -90 72z" />
    <glyph glyph-name="U" unicode="U" horiz-adv-x="1204" 
d="M600 -31q-254 0 -348 121t-70 381l64 655q2 47 -49 60l-56 16l13 60h469l-13 -60l-67 -18q-33 -8 -47 -20t-17 -38l-71 -735q-31 -344 245 -344q299 0 342 447l60 632q3 46 -49 60l-68 16l12 60h297l-10 -60l-51 -18q-48 -16 -55 -30t-9 -28l-59 -618q-25 -270 -136 -405
q-112 -134 -327 -134z" />
    <glyph glyph-name="V" unicode="V" horiz-adv-x="1064" 
d="M590 0h-182l-234 1116q-8 47 -45 64l-53 22l10 60h518l-10 -60l-119 -28q-55 -14 -43 -82l178 -863l361 871q29 63 -29 78l-113 24l11 60h336l-11 -60l-51 -22q-45 -14 -61 -60z" />
    <glyph glyph-name="W" unicode="W" horiz-adv-x="1712" 
d="M393 0l-217 1116q-12 49 -45 64l-53 22l10 60h518l-10 -60l-119 -28q-55 -14 -43 -82l162 -856l287 725l-29 155q-8 47 -47 64l-51 22l10 60h518l-12 -60l-117 -28q-55 -14 -43 -82l162 -854l342 862q29 63 -27 78l-114 24l10 60h338l-11 -60l-51 -22q-45 -14 -61 -60
l-449 -1120h-180l-164 838l-334 -838h-180z" />
    <glyph glyph-name="X" unicode="X" horiz-adv-x="1122" 
d="M492 1122l180 -366l278 358q39 53 -4 66l-92 22l12 60h336l-10 -60l-59 -16q-53 -12 -97 -72l-329 -428l262 -532q25 -55 69 -72l49 -23l-12 -59h-504l13 59l84 19q51 12 20 74l-192 393l-287 -389q-48 -67 14 -78l113 -19l-10 -59h-357l11 59l61 17q37 10 88 82l332 454
l-242 496q-31 63 -59 74l-60 20l11 60h505l-10 -60l-80 -18q-54 -15 -34 -62z" />
    <glyph glyph-name="Y" unicode="Y" horiz-adv-x="1071" 
d="M485 1186q-55 -14 -34 -68l208 -504l304 500q31 59 -11 70l-114 18l10 60h336l-10 -60l-44 -10q-53 -14 -90 -78l-364 -600l-37 -379q-4 -32 21 -46q9 -5 28 -11l60 -19l-13 -59h-459l13 59l53 17q31 8 45 20t16 39l35 363l-258 608q-25 72 -53 80l-51 16l10 60h496
l-9 -60z" />
    <glyph glyph-name="Z" unicode="Z" horiz-adv-x="1036" 
d="M879 338h90q-12 -180 -66 -338h-887l11 82l739 1106l-320 -4q-51 -2 -70 -18t-44 -62l-99 -158l-88 4q6 168 56 312h862l-12 -68l-746 -1124l344 8q59 2 84 20t53 72z" />
    <glyph glyph-name="bracketleft" unicode="[" horiz-adv-x="567" 
d="M88 -289l156 1641l381 2l-11 -60l-188 -43l-137 -1437l186 -43l-14 -60h-373z" />
    <glyph glyph-name="backslash" unicode="\" horiz-adv-x="915" 
d="M651 -387l-501 1790h153l500 -1790h-152z" />
    <glyph glyph-name="bracketright" unicode="]" horiz-adv-x="569" 
d="M-18 -289l10 60l190 43l140 1437l-189 43l12 60l377 -2l-160 -1641h-380z" />
    <glyph glyph-name="asciicircum" unicode="^" horiz-adv-x="958" 
d="M74 463l424 831h149l268 -831l-133 -21l-227 707l-358 -705z" />
    <glyph glyph-name="underscore" unicode="_" horiz-adv-x="1114" 
d="M31 -297l16 158h920l-17 -158h-919z" />
    <glyph glyph-name="grave" unicode="`" horiz-adv-x="440" 
d="M119 1321l155 141q56 -63 102 -160t58 -194l-55 -43z" />
    <glyph glyph-name="a" unicode="a" horiz-adv-x="1032" 
d="M428 102q80 0 215 187l59 598q-55 10 -88 10q-90 0 -152 -57q-62 -58 -91 -150q-50 -159 -52 -338q0 -250 109 -250zM344 -31q-110 -1 -190 103t-80 295q0 254 150 425q151 171 390 171q141 0 312 -72l-72 -737q-2 -27 7 -39t26 -9l100 25l14 -55q-152 -82 -270 -107
q-96 23 -92 160v47q-156 -207 -295 -207z" />
    <glyph glyph-name="b" unicode="b" horiz-adv-x="985" 
d="M588 860q-90 0 -205 -164l-64 -655q33 -4 95 -4t122 46q94 75 133 283q15 81 19 175q15 319 -100 319zM399 -31q-139 0 -305 56l115 1179q6 55 -27 66l-90 22l12 58q139 39 291 55h37q16 -55 6 -141l-45 -457q129 156 258 156t210 -113q81 -112 72 -340t-158 -384
t-376 -157z" />
    <glyph glyph-name="c" unicode="c" horiz-adv-x="870" 
d="M594 897q-112 0 -184 -114t-90 -303t32 -304q51 -114 174 -114t242 147l37 -35q-76 -100 -159 -152t-200 -53q-182 1 -286 139t-82 357t158 358q135 139 346 140q84 0 167 -28t125 -67q-23 -117 -77 -223h-70l-22 225q-61 27 -111 27z" />
    <glyph glyph-name="d" unicode="d" horiz-adv-x="1038" 
d="M428 102q78 0 215 189q16 143 62 596q-57 10 -91 10q-90 0 -152 -57q-62 -58 -91 -150q-50 -159 -52 -338q0 -250 109 -250zM344 -31q-110 -1 -190 103t-80 295q0 254 150 425q151 171 390 171q43 0 99 -11l24 256q4 59 -35 64l-133 20l13 58q102 29 342 55h34
q14 -70 3 -164l-107 -1087q-2 -27 7 -39t26 -9l100 25l17 -55q-150 -82 -271 -107q-98 23 -94 160v47q-156 -207 -295 -207z" />
    <glyph glyph-name="e" unicode="e" 
d="M535 895q-81 0 -141 -130t-66 -321q115 33 208 109t93 195q1 63 -25 105t-69 42zM872 724q0 -99 -78 -173q-142 -133 -466 -180q8 -135 68 -213t144 -78t140 36q57 36 125 109l47 -45q-156 -211 -377 -211q-186 0 -292 116q-105 116 -105 335t131 381t342 162
q141 0 231 -70t90 -169z" />
    <glyph glyph-name="f" unicode="f" horiz-adv-x="538" 
d="M598 1407q160 0 250 -47q-23 -125 -84 -238h-78l-16 215q-25 8 -49 9q-74 0 -115 -78t-57 -242l-11 -96h135l-8 -72h-133l-80 -815q-20 -211 -120 -321t-261 -110q-162 0 -245 46q23 131 81 240h78l17 -215q18 -8 57 -9q70 0 110 78t56 242l84 864h-123l8 72h123l4 43
q17 213 117 323t260 111z" />
    <glyph glyph-name="g" unicode="g" horiz-adv-x="966" 
d="M465 387q147 0 172 250q12 115 -20 187q-33 72 -107 73q-74 0 -117 -73t-55 -185q-25 -252 127 -252zM377 -313q155 -1 235 43t86 116q4 39 -21 64q-26 25 -79 27l-309 14q-68 4 -117 37q-68 -63 -74 -135q-14 -166 279 -166zM459 322q-80 0 -140 16q-45 -41 -49 -79
t14 -53t58 -18l305 -16q105 -4 163 -64t47 -186t-139 -218q-128 -91 -330 -91t-297 64q-93 65 -83 166t131 173q-41 51 -33 131q10 125 162 209q-184 80 -164 285q12 139 121 230t292 91t284 -102q84 72 188 121q-10 -104 -35 -180l-100 -25q23 -61 16 -139
q-14 -141 -122 -228t-289 -87z" />
    <glyph glyph-name="h" unicode="h" horiz-adv-x="1032" 
d="M760 963q94 1 125 -95t10 -307l-41 -407q-2 -27 7 -39t26 -9l100 25l14 -55q-33 -23 -132 -61t-140 -46q-117 10 -100 156l37 379q25 219 -3 276q-11 23 -34 23q-47 -1 -105 -59t-149 -175l-56 -569l-223 -27l119 1235q6 53 -33 64l-84 20l13 58q145 41 292 55h35
q12 -64 4 -164l-55 -557q103 131 191 205t182 74z" />
    <glyph glyph-name="i" unicode="i" horiz-adv-x="550" 
d="M512 76q-150 -82 -270 -107q-49 11 -79 55t-24 105l64 637q6 51 -33 63l-84 19l10 57q127 37 295 58h33q12 -63 4 -164l-63 -645q-2 -27 7 -39t25 -9l101 25zM348 1126q-59 0 -100 40t-39 106q0 66 41 106t100 39q60 0 100 -40t40 -104t-41 -106q-42 -41 -101 -41z" />
    <glyph glyph-name="j" unicode="j" horiz-adv-x="509" 
d="M354 57q-18 -184 -124 -300t-304 -140l-14 59q53 27 80 45q26 17 60 55q58 65 77 238l74 752q4 51 -35 63l-86 19l10 57q127 37 297 58h35q14 -70 2 -164zM346 1126q-59 0 -100 40t-39 106q0 66 41 106t100 39q59 0 99 -40t40 -104q0 -63 -41 -105t-100 -42z" />
    <glyph glyph-name="k" unicode="k" horiz-adv-x="1001" 
d="M633 858q-121 0 -256 -262l-58 -596l-223 -27l119 1235q6 53 -33 64l-84 20l11 58q152 41 294 55h33q12 -64 4 -164l-49 -504q145 225 330 226q98 1 164 -55q65 -56 65 -162t-79 -202q-79 -97 -230 -149l127 -205q59 -84 123 -92l67 21l21 -51q-106 -63 -252 -99
q-109 25 -180 154l-111 213l8 55l74 37q190 96 191 311q0 57 -24 88t-52 31z" />
    <glyph glyph-name="l" unicode="l" horiz-adv-x="528" 
d="M494 76q-156 -84 -273 -107q-49 11 -80 55t-22 105l106 1079q6 53 -32 64l-84 20l12 58q147 41 293 55h35q10 -66 2 -164l-107 -1087q-2 -27 7 -39t26 -9l100 25z" />
    <glyph glyph-name="m" unicode="m" horiz-adv-x="1581" 
d="M781 963q87 0 122 -69t29 -216q106 133 194 209t182 76q94 1 127 -95q32 -96 9 -307l-41 -407q-2 -27 7 -39t26 -9l100 25l16 -55q-35 -23 -134 -61t-140 -46q-117 10 -100 156l39 379q22 224 -6 276q-11 23 -33 23q-46 1 -106 -59t-148 -177l-60 -567h-221l51 504
q26 223 -3 276q-11 23 -34 23q-47 1 -106 -59t-148 -177l-55 -567l-225 -27l78 791q4 53 -35 63l-82 21l12 57q123 37 293 58h35q14 -70 2 -164l-12 -117q106 133 193 207t174 74z" />
    <glyph glyph-name="n" unicode="n" horiz-adv-x="1060" 
d="M788 963q94 1 125 -95t11 -307l-41 -407q-2 -27 7 -39t25 -9l101 25l14 -55q-33 -23 -132 -61t-140 -46q-117 10 -101 156l37 379q26 223 -3 276q-11 23 -34 23q-47 1 -106 -59t-148 -177l-55 -567l-223 -27l76 791q4 53 -35 63l-82 21l12 57q123 37 293 58h35
q14 -70 2 -164l-12 -117q106 133 193 207t181 74z" />
    <glyph glyph-name="o" unicode="o" horiz-adv-x="987" 
d="M461 29q188 0 229 436t-141 436t-224 -436t136 -436zM457 -31q-197 0 -297 133q-100 134 -78 364t147 363t323 133t300 -134t82 -363t-150 -363t-327 -133z" />
    <glyph glyph-name="p" unicode="p" horiz-adv-x="1028" 
d="M639 846q-88 0 -231 -191l-58 -594q51 -16 115 -16q244 0 264 490q19 311 -90 311zM461 -31q-61 0 -119 15l-23 -244q-4 -37 48 -47l112 -21l-10 -59h-492l11 59l47 17q61 18 65 59l97 1014q6 53 -29 65l-84 23l12 57q119 35 287 56h37q14 -57 4 -142l-6 -59
q61 86 138 143t153 58q119 0 197 -111t71 -315q-11 -258 -149 -413t-367 -155z" />
    <glyph glyph-name="q" unicode="q" horiz-adv-x="993" 
d="M428 100q80 0 219 195q47 502 55 592q-55 10 -88 10q-90 0 -152 -57q-62 -58 -91 -150q-50 -159 -52 -338q0 -252 109 -252zM344 -33q-110 1 -190 105t-80 295q0 254 150 425q151 171 390 171q141 0 312 -72l-113 -1151q-2 -37 47 -47l90 -21l-10 -59h-491l10 59l69 17
q61 14 66 59q18 190 41 424q-154 -205 -291 -205z" />
    <glyph glyph-name="r" unicode="r" horiz-adv-x="770" 
d="M656 963q92 0 153 -60q-23 -131 -84 -256h-76l-18 191q-25 8 -41 8q-84 0 -168 -90l-74 -756l-223 -27l74 789q6 53 -27 65l-84 23l10 57q119 35 287 56h37q12 -45 8 -121q134 121 226 121z" />
    <glyph glyph-name="s" unicode="s" horiz-adv-x="815" 
d="M475 963q76 0 158 -25t135 -64q-18 -111 -74 -208h-73l-21 208q-45 23 -104 23q-58 0 -96 -33t-43 -90q-9 -101 138 -200q60 -40 120 -82q61 -42 101 -106q40 -62 32 -138q-12 -131 -122 -205t-274 -74q-215 0 -325 105q24 109 75 207h78l19 -220q49 -29 138 -29t133 39
q44 38 49 89t-36 95t-101 83t-121 83q-60 44 -99 114t-31 155q13 123 107 198t237 75z" />
    <glyph glyph-name="t" unicode="t" horiz-adv-x="585" 
d="M436 82q25 0 119 20l-14 -71q-90 -61 -203 -62q-223 0 -199 258l62 629h-109l10 59q113 27 185 99t116 196h54l-27 -278h164l-10 -76h-162l-62 -641q-10 -133 76 -133z" />
    <glyph glyph-name="u" unicode="u" horiz-adv-x="1058" 
d="M295 -31q-100 0 -130 94t-9 306l37 393q6 55 -27 65l-84 23l10 57q137 39 287 56h37q16 -55 6 -142l-39 -395q-26 -213 3 -273q11 -24 36 -24q76 0 250 227q51 526 57 576h223l-78 -778q-2 -27 8 -39t25 -9l101 25l16 -55q-150 -82 -270 -107q-51 11 -81 55t-22 105
q2 45 11 115q-207 -275 -367 -275z" />
    <glyph glyph-name="v" unicode="v" horiz-adv-x="909" 
d="M795 702q0 110 -27 134l-150 20l-6 45q51 41 129 62q137 0 144 -195q0 -319 -346 -768l-191 -23l-190 838q-6 25 -39 39l-60 18l13 60q78 18 231 31h39q31 -47 49 -132l156 -714q96 141 172 308t76 277z" />
    <glyph glyph-name="w" unicode="w" horiz-adv-x="1325" 
d="M1200 700q0 112 -26 136l-150 20l-6 45q51 41 129 62q137 0 143 -195q0 -182 -90 -393t-219 -375l-188 -23l-68 385q-80 -180 -219 -362l-189 -23l-147 838q-4 27 -39 39l-72 18l11 60q86 18 245 31h39q39 -61 49 -132l113 -710q133 197 186 371l-57 323q-4 27 -39 39
l-71 18l10 60q86 18 246 31h38q39 -61 50 -132l112 -710q82 125 146 296q63 171 63 283z" />
    <glyph glyph-name="x" unicode="x" horiz-adv-x="878" 
d="M166 152q0 -37 18 -62l150 -18l6 -43q-78 -45 -137 -60q-135 0 -142 142q0 145 275 352l-158 334q-16 31 -37 34l-73 23l6 55q96 33 217 54h37q53 -63 92 -141t131 -269q184 127 184 227q0 37 -18 62l-152 18l-4 43q59 41 137 60q133 0 140 -144q0 -139 -260 -325
l167 -361q14 -27 33 -31l64 -18l-2 -55q-90 -39 -211 -60h-33q-47 47 -86 125l-145 307q-199 -135 -199 -249z" />
    <glyph glyph-name="y" unicode="y" 
d="M795 706q0 106 -27 130l-150 20l-6 45q51 41 129 62q137 0 144 -195q1 -264 -231 -608t-564 -551l-76 131q20 12 136 76q116 63 215 139h-11l-196 862q-6 29 -39 39l-62 16l13 60q119 27 231 31h39q35 -55 49 -132l154 -700q119 147 185 308q67 161 67 267z" />
    <glyph glyph-name="z" unicode="z" horiz-adv-x="860" 
d="M723 330h68q16 -84 -9 -202t-71 -171q-342 106 -523 121l-65 -109l-94 74l553 659l-322 27q-37 4 -59 -41l-31 -65l-64 18q4 49 27 164t35 153l571 -67l64 76l61 -49l-534 -656q174 -20 321 -65q43 -16 62 47q10 29 10 86z" />
    <glyph glyph-name="braceleft" unicode="{" horiz-adv-x="559" 
d="M137 90l19 172q16 193 -37 215l-58 27l5 55l65 29q59 25 76 217l16 172q15 137 75 233t177 115l129 21l-6 -60l-61 -29q-61 -25 -74 -188l-25 -250q-10 -109 -62 -177t-165 -110q102 -38 142 -108t30 -176l-23 -230q-18 -184 35 -211l56 -26l-9 -60l-120 21
q-111 18 -154 114t-31 234z" />
    <glyph glyph-name="bar" unicode="|" horiz-adv-x="446" 
d="M76 -387l174 1792h156l-173 -1792h-157z" />
    <glyph glyph-name="braceright" unicode="}" horiz-adv-x="559" 
d="M377 90q-15 -137 -75 -232t-175 -116l-123 -21v60l62 26q57 25 73 201l25 240q18 213 225 284q-104 41 -142 110t-28 177l25 250q16 164 -39 188l-58 29l11 60l121 -21q211 -39 184 -348l-17 -172q-20 -193 33 -217l60 -29l-7 -53l-63 -27q-59 -27 -76 -215z" />
    <glyph glyph-name="asciitilde" unicode="~" horiz-adv-x="976" 
d="M631 356q-61 0 -153 70t-136 70q-98 0 -166 -123l-72 35q47 147 123 212q75 64 145 64t162 -68t144 -67q86 0 164 131l71 -31q-41 -133 -113 -213t-169 -80z" />
    <glyph glyph-name="uni00A0" unicode="&#xa0;" horiz-adv-x="411" 
 />
    <glyph glyph-name="exclamdown" unicode="&#xa1;" horiz-adv-x="452" 
d="M270 958q51 0 83 -32t31 -94q-1 -60 -33 -94t-84 -34t-83 33q-30 33 -30 94q2 127 116 127zM37 -352l168 938h92l-16 -936z" />
    <glyph glyph-name="cent" unicode="&#xa2;" horiz-adv-x="882" 
d="M586 897q-111 0 -184 -114t-91 -303t33 -304q51 -114 174 -114t242 147l37 -35q-131 -174 -295 -201l-25 -264h-80l23 260q-176 9 -274 145t-76 345q20 209 140 345t306 154l27 261h80l-27 -256q174 -10 270 -95q-23 -117 -78 -223h-69l-23 225q-61 27 -110 27z" />
    <glyph glyph-name="sterling" unicode="&#xa3;" horiz-adv-x="997" 
d="M709 1225q-156 0 -187 -322q-6 -45 -10 -205h203l-19 -73h-186q-12 -238 -88 -392q143 -53 237 -53q137 0 183 86l26 47l41 -12l-18 -74q-29 -123 -104 -191t-166 -67q-145 0 -267 125q-45 -76 -90 -100t-103 -25q-58 0 -95 43t-30 113t56 114t117 44q31 0 84 -9l6 54
q8 88 -8 297h-162l18 73h138q-4 104 4 191q16 193 128 298t271 105q102 0 186 -32t127 -91q-16 -112 -73 -208h-103l-16 239q-39 25 -100 25z" />
    <glyph glyph-name="currency" unicode="&#xa4;" horiz-adv-x="1112" 
d="M427 482q54 -66 139 -66t152 66t75 161q7 94 -47 163q-54 68 -138 68t-150 -68t-76 -162q-9 -95 45 -162zM550 219q-110 0 -200 68l-157 -156l-107 133l156 154q-109 213 41 448l-127 156l133 131l127 -156q98 70 208 70t201 -70l156 156l109 -131l-158 -158
q53 -102 41 -219t-82 -225l127 -156l-133 -131l-127 158q-98 -72 -208 -72z" />
    <glyph glyph-name="yen" unicode="&#xa5;" horiz-adv-x="1210" 
d="M209 299l22 107h799l-22 -107h-289l-17 -164q-4 -32 22 -46q9 -5 30 -11l67 -19l-12 -59h-479l12 59l66 17q59 14 61 59l16 164h-276zM233 537l21 108h184l-192 461q-35 76 -56 80l-51 16l11 60h497l-10 -60l-88 -16q-55 -14 -35 -68l199 -473h28l285 469q33 57 -10 70
l-115 18l10 60h338l-12 -60l-43 -10q-49 -12 -90 -78l-285 -469h234l-23 -108h-797z" />
    <glyph glyph-name="brokenbar" unicode="&#xa6;" horiz-adv-x="448" 
d="M172 598l78 807h158l-78 -807h-158zM76 -387l80 813h157l-77 -813h-160z" />
    <glyph glyph-name="section" unicode="&#xa7;" horiz-adv-x="1013" 
d="M330 735q42 -109 108 -181t134 -138t117 -164q50 -98 20 -221q83 185 42 346q-19 74 -65 142t-132 159q-85 92 -124 142q-84 108 -74 243q10 80 39 141q-78 -86 -92 -223t27 -246zM685 1391q216 0 323 -121q-16 -143 -66 -242h-121l-20 264q-43 31 -131 31t-138 -46
q-50 -47 -55 -105q-10 -93 69 -171q28 -27 89 -77t90 -78q113 -106 171 -223t42 -277q-20 -215 -192 -404t-375 -190q-233 0 -334 115q17 123 78 254h114l17 -279q55 -26 141 -24t144 57q57 55 63 117t-34 110q-40 49 -130 118t-133 112q-195 205 -166 502q23 233 180 395
q158 162 374 162z" />
    <glyph glyph-name="dieresis" unicode="&#xa8;" horiz-adv-x="677" 
d="M648 1362q56 0 90 -34t33 -100t-34 -102q-33 -34 -89 -34t-90 34t-33 102q1 66 34 100t89 34zM260 1362q55 0 88 -34t32 -100t-35 -102q-34 -34 -89 -34t-89 34t-34 103q2 133 127 133z" />
    <glyph glyph-name="copyright" unicode="&#xa9;" horiz-adv-x="1275" 
d="M899 528q0 -20 -8 -76t-14 -69q-76 -51 -212 -51t-227 86q-90 86 -88 235t98 237t242 87q145 0 219 -84q0 -13 -11 -63t-17 -64h-54l-16 123q-39 33 -120 33t-139 -74t-59 -193t57 -193t133 -73q75 0 114 21l41 118h61zM676 1126q-198 0 -342 -141t-145 -340t137 -340
t339 -141q200 0 342 141t144 340t-137 340t-338 141zM676 1204q229 0 392 -165t160 -395t-168 -394t-394 -164t-393 165q-162 165 -159 395t168 394t394 164z" />
    <glyph glyph-name="ordfeminine" unicode="&#xaa;" horiz-adv-x="579" 
d="M324 881q29 0 63 28l12 119q-111 -29 -114 -88q-6 -59 39 -59zM264 813q-58 0 -91 30q-32 30 -26 89q10 98 160 125l96 14l3 25q6 80 -4 118t-47 37q-38 0 -62 -14l-31 -109h-53q-16 55 -12 119q70 45 162 45q195 0 176 -176l-19 -203q-4 -27 16 -26h31l-6 -39l-115 -33
q-51 0 -57 51q-63 -53 -121 -53z" />
    <glyph glyph-name="guillemotleft" unicode="&#xab;" horiz-adv-x="792" 
d="M385 461l2 20l256 408l105 -84l-197 -332l137 -336l-125 -84zM88 461l2 20l262 418l107 -84l-205 -342l141 -348l-125 -82z" />
    <glyph glyph-name="logicalnot" unicode="&#xac;" horiz-adv-x="978" 
d="M117 430l18 180h754l-47 -493h-174l30 313h-581z" />
    <glyph glyph-name="registered" unicode="&#xae;" horiz-adv-x="1275" 
d="M653 942h-55v-272h64q104 0 104 136t-113 136zM979 344h-80q-59 0 -86 15t-53 73l-98 195h-64l-2 -211q0 -23 31 -27l57 -10v-35h-295v35l43 8q31 6 31 29l4 497q0 23 -31 29l-41 8v35h273q109 0 174 -50t63 -130q1 -47 -29 -91t-92 -65l107 -184q35 -66 88 -86v-35z
M666 164q199 0 342 141t144 341t-139 340t-339 140q-198 0 -342 -141t-145 -341t139 -340t340 -140zM676 1204q229 0 392 -164t159 -395t-168 -395t-394 -164t-393 165q-161 165 -158 395t168 394t394 164z" />
    <glyph glyph-name="macron" unicode="&#xaf;" horiz-adv-x="507" 
d="M102 1116l17 164h512l-15 -164h-514z" />
    <glyph glyph-name="degree" unicode="&#xb0;" horiz-adv-x="694" 
d="M393 788q74 0 107 58t43 164q20 217 -109 217q-72 -1 -104 -57t-43 -160q-21 -222 106 -222zM385 723q-127 0 -191 76t-54 204q11 127 94 209t210 82t193 -76q65 -76 53 -203q-12 -128 -95 -210t-210 -82z" />
    <glyph glyph-name="plusminus" unicode="&#xb1;" horiz-adv-x="849" 
d="M723 137h-633l19 182h634zM344 408l27 270h-228l17 184h229l25 258h182l-27 -258h226l-19 -184h-223l-27 -270h-182z" />
    <glyph glyph-name="two.sups" unicode="&#xb2;" horiz-adv-x="567" 
d="M336 1288q121 0 181 -54t50 -151q-18 -186 -309 -358l184 2q20 0 29 21l31 63h59q-12 -123 -41 -211h-442l10 62q145 123 209 207q63 85 78 206q16 170 -68 170q-20 0 -35 -10l-53 -148h-63q-18 76 -11 148q70 53 191 53z" />
    <glyph glyph-name="three.sups" unicode="&#xb3;" horiz-adv-x="538" 
d="M299 1243q-25 0 -39 -10l-53 -146h-62q-23 66 -12 140q79 59 189 59t168 -44t52 -108t-48 -109q-43 -44 -119 -54q174 -29 162 -174q-11 -101 -137 -155t-310 -60v45q242 23 254 182q12 113 -123 125l6 47q57 4 85 39t36 106q10 117 -49 117z" />
    <glyph glyph-name="acute" unicode="&#xb4;" horiz-adv-x="440" 
d="M602 1303l-311 -256l-49 40q32 97 96 195t133 162z" />
    <glyph glyph-name="mu" unicode="&#xb5;" horiz-adv-x="1132" 
d="M453 129q45 0 104 58t145 169l56 576h221l-74 -778q-2 -27 7 -39t26 -9l100 25l15 -55q-152 -82 -271 -107q-49 11 -79 55q-29 44 -21 129t8 89q-182 -238 -319 -260l-31 -318l-229 -51l110 1149q6 55 -26 65l-84 23l12 57q119 35 287 56h36q14 -57 5 -144l-45 -461
q-15 -167 13 -211q11 -18 34 -18z" />
    <glyph glyph-name="paragraph" unicode="&#xb6;" horiz-adv-x="1384" 
d="M768 -313h127l145 1501h-129zM494 414q-194 0 -302 120t-90 308t146 304t319 116h826l-13 -60l-49 -18q-49 -16 -55 -30q-6 -13 -8 -28l-133 -1380q0 -30 14 -40q14 -9 37 -17l53 -17l-10 -59h-813l10 59l53 15q31 10 45 21t17 38l63 668h-110z" />
    <glyph glyph-name="periodcentered" unicode="&#xb7;" horiz-adv-x="454" 
d="M250 682q125 0 125 -141q0 -68 -35 -105t-94 -37t-93 37t-34 106q0 68 35 104t96 36z" />
    <glyph glyph-name="cedilla" unicode="&#xb8;" horiz-adv-x="454" 
d="M166 -385q-90 0 -131 68l35 55q41 -37 82 -37q66 0 73 72q6 80 -116 80l67 157h62l-50 -110q197 0 185 -127q-5 -68 -61 -113t-146 -45z" />
    <glyph glyph-name="one.sups" unicode="&#xb9;" horiz-adv-x="440" 
d="M434 649l-12 -49h-318l9 49l51 10q16 4 18 29l45 445l-116 -21l6 47l278 127h25l-58 -598q-2 -25 15 -26z" />
    <glyph glyph-name="ordmasculine" unicode="&#xba;" horiz-adv-x="598" 
d="M354 872q86 0 107 183q16 182 -72 182q-89 -1 -105 -183t70 -182zM349 817q-99 0 -155 67t-46 170t80 171q71 67 169 67t154 -65q55 -66 45 -171t-79 -172t-168 -67z" />
    <glyph glyph-name="guillemotright" unicode="&#xbb;" horiz-adv-x="794" 
d="M733 481l-2 -20l-264 -418l-107 82l207 348l-139 342l121 84zM434 481l-2 -20l-256 -408l-108 84l202 336l-135 332l121 84z" />
    <glyph glyph-name="onequarter" unicode="&#xbc;" horiz-adv-x="1206" 
d="M743 256l154 -2l25 266zM459 649l-13 -49h-317l8 49l51 10q16 4 19 29l45 445l-117 -21l6 47l279 127h24l-57 -598q-2 -25 14 -26zM133 -25l936 1325l80 -55l-932 -1327zM1130 254l-12 -96h-51l-6 -70q-2 -18 16 -27l29 -10l-10 -49h-273l11 49l28 8q16 8 19 29l6 70
h-232l9 55l309 457h143l-41 -416h55z" />
    <glyph glyph-name="onehalf" unicode="&#xbd;" horiz-adv-x="1353" 
d="M1055 690q121 0 181 -54t50 -151q-18 -186 -309 -358l184 2q20 0 29 21l31 63h59q-12 -123 -41 -211h-442l10 61q145 123 209 208q63 85 78 206q16 170 -68 170q-20 0 -35 -10l-53 -148h-64q-18 76 -10 148q70 53 191 53zM459 649l-13 -49h-317l8 49l51 10q16 4 19 29
l45 445l-117 -21l6 47l279 127h24l-57 -598q-2 -25 14 -26zM133 -25l936 1325l80 -55l-932 -1327z" />
    <glyph glyph-name="threequarters" unicode="&#xbe;" horiz-adv-x="1232" 
d="M768 256l154 -2l24 266zM319 1243q-25 0 -38 -10l-54 -146h-61q-23 66 -12 140q78 59 188 59t168 -44t51 -120q-4 -53 -47 -97t-119 -54q174 -29 162 -174q-10 -101 -136 -155t-310 -60v45q242 23 254 182q12 113 -123 125l6 47q57 4 85 39t36 106q10 117 -50 117z
M160 -25l934 1325l82 -55l-934 -1327zM1155 254l-12 -96h-51l-7 -70q-2 -18 17 -27l28 -10l-10 -49h-272l10 49l29 8q16 8 18 29l6 70h-231l8 55l309 457h144l-41 -416h55z" />
    <glyph glyph-name="questiondown" unicode="&#xbf;" horiz-adv-x="796" 
d="M360 -369q-174 0 -270 84t-82 238q14 167 164 277q62 46 124 94q148 117 167 297h80q-8 -231 -108 -370q-42 -57 -83 -107q-98 -119 -112 -242q-6 -78 21 -140q28 -61 110 -61t131 35l80 256h92q25 -94 10 -240q-150 -121 -324 -121zM508 713q-49 -1 -77 31
q-29 32 -23 92t39 92q34 33 85 33t79 -33t22 -92q-12 -123 -125 -123z" />
    <glyph glyph-name="Agrave" unicode="&#xc0;" horiz-adv-x="1095" 
d="M397 1460l70 195q102 -23 211 -91t147 -137l-34 -65zM528 1042l-229 -544h350zM725 158l-59 264h-398l-112 -268q-25 -61 30 -72l119 -23l-10 -59h-348l10 59l66 21q33 10 55 63l469 1119h184l250 -1106q16 -63 51 -76l58 -21l-13 -59h-526l10 59l109 19q71 14 55 80z
" />
    <glyph glyph-name="Aacute" unicode="&#xc1;" horiz-adv-x="1095" 
d="M877 1460l-412 -98l-19 65q52 70 174 138t228 90zM528 1042l-229 -544h350zM725 158l-59 264h-398l-112 -268q-25 -61 30 -72l119 -23l-10 -59h-348l10 59l66 21q33 10 55 63l469 1119h184l250 -1106q16 -63 51 -76l58 -21l-13 -59h-526l10 59l109 19q71 14 55 80z" />
    <glyph glyph-name="Acircumflex" unicode="&#xc2;" horiz-adv-x="1095" 
d="M418 1356l-37 61q123 139 248 217h65q123 -90 205 -217l-47 -61l-209 100zM528 1042l-229 -544h350zM725 158l-59 264h-398l-112 -268q-25 -61 30 -72l119 -23l-10 -59h-348l10 59l66 21q33 10 55 63l469 1119h184l250 -1106q16 -63 51 -76l58 -21l-13 -59h-526l10 59
l109 19q71 14 55 80z" />
    <glyph glyph-name="Atilde" unicode="&#xc3;" horiz-adv-x="1095" 
d="M542 1626q62 0 139 -40t122 -40q66 0 84 68h65q-10 -110 -55 -176t-115 -66t-144 44t-130 44t-76 -55h-63q8 97 59 159q52 62 114 62zM528 1042l-229 -544h350zM725 158l-59 264h-398l-112 -268q-25 -61 30 -72l119 -23l-10 -59h-348l10 59l66 21q33 10 55 63l469 1119
h184l250 -1106q16 -63 51 -76l58 -21l-13 -59h-526l10 59l109 19q71 14 55 80z" />
    <glyph glyph-name="Adieresis" unicode="&#xc4;" horiz-adv-x="1095" 
d="M847 1647q58 0 93 -37t34 -105q-1 -69 -36 -105t-93 -36t-93 36t-34 106q1 69 36 105t93 36zM455 1364q-59 0 -93 36t-34 105q4 141 131 142q57 0 92 -37t34 -105q-1 -69 -36 -105t-94 -36zM528 1042l-229 -544h350zM725 158l-59 264h-398l-112 -268q-25 -61 30 -72
l119 -23l-10 -59h-348l10 59l66 21q33 10 55 63l469 1119h184l250 -1106q16 -63 51 -76l58 -21l-13 -59h-526l10 59l109 19q71 14 55 80z" />
    <glyph glyph-name="Aring" unicode="&#xc5;" horiz-adv-x="1095" 
d="M643 1331q43 0 72 31t29 84t-28 83t-70 30t-72 -32t-30 -85t28 -82t71 -29zM528 1042l-229 -544h350zM646 1661q92 1 148 -61t54 -154q0 -139 -115 -197l248 -1093q16 -63 51 -76l58 -21l-13 -59h-526l10 59l109 19q71 14 55 80l-59 264h-398l-112 -268q-25 -61 30 -72
l119 -23l-10 -59h-348l10 59l66 21q33 10 55 63l465 1108q-104 51 -105 195q2 94 60 154t148 61z" />
    <glyph glyph-name="AE" unicode="&#xc6;" horiz-adv-x="1480" 
d="M387 541h295l53 561zM1208 1188h-233l-47 -504h209q39 0 61 47l49 115h78l-59 -397h-68l-24 120q-12 41 -46 41h-208l-52 -536h258q72 0 95 49l92 176h86q-4 -180 -43 -299h-838l10 59l54 17q57 16 61 59l31 332h-334l-193 -313q-31 -57 33 -72l123 -23l-10 -59h-354
l10 59l47 17q35 8 67 67l635 1028q-8 4 -65 17l-53 14l10 60h866q10 -123 -22 -295h-82l-54 166q-20 55 -90 55z" />
    <glyph glyph-name="Ccedilla" unicode="&#xc7;" horiz-adv-x="1132" 
d="M572 -385q-90 0 -132 68l35 55q41 -37 82 -37q66 0 74 72q6 80 -117 80l51 120q-243 25 -369 187t-96 464t222 486q194 182 448 182t401 -118q-29 -141 -81 -242h-91l-34 260q-55 33 -156 33q-176 0 -301 -166t-152 -438q-26 -271 66 -429t266 -157q78 0 135 22l123 250
h98q6 -158 -36 -270q-147 -68 -353 -68h-30l-31 -69q196 0 184 -127q-6 -68 -61 -113t-145 -45z" />
    <glyph glyph-name="Egrave" unicode="&#xc8;" horiz-adv-x="1007" 
d="M399 1460l70 195q102 -23 211 -91t147 -137l-34 -65zM737 1188h-231l-47 -504h207q39 0 59 47l51 115h76l-57 -397h-66l-27 120q-8 41 -45 41h-206l-52 -536h248q68 0 94 49l99 176h88q-6 -164 -51 -299h-830l12 59l50 17q59 16 63 59l96 991q4 45 -49 60l-55 16l10 60
h811q12 -115 -22 -295h-84l-54 166q-16 55 -88 55z" />
    <glyph glyph-name="Eacute" unicode="&#xc9;" horiz-adv-x="1007" 
d="M862 1460l-411 -98l-19 65q53 70 174 138t228 90zM737 1188h-231l-47 -504h207q39 0 59 47l51 115h76l-57 -397h-66l-27 120q-8 41 -45 41h-206l-52 -536h248q68 0 94 49l99 176h88q-6 -164 -51 -299h-830l12 59l50 17q59 16 63 59l96 991q4 45 -49 60l-55 16l10 60h811
q12 -115 -22 -295h-84l-54 166q-16 55 -88 55z" />
    <glyph glyph-name="Ecircumflex" unicode="&#xca;" horiz-adv-x="1007" 
d="M393 1356l-37 61q123 139 248 217h66q123 -90 204 -217l-47 -61l-209 100zM737 1188h-231l-47 -504h207q39 0 59 47l51 115h76l-57 -397h-66l-27 120q-8 41 -45 41h-206l-52 -536h248q68 0 94 49l99 176h88q-6 -164 -51 -299h-830l12 59l50 17q59 16 63 59l96 991
q4 45 -49 60l-55 16l10 60h811q12 -115 -22 -295h-84l-54 166q-16 55 -88 55z" />
    <glyph glyph-name="Edieresis" unicode="&#xcb;" horiz-adv-x="1007" 
d="M816 1647q58 0 93 -37t34 -105q-1 -69 -36 -105t-93 -36t-93 36t-34 106q1 69 36 105t93 36zM427 1647q58 0 93 -37t34 -105q-1 -69 -36 -105t-94 -36t-93 36t-33 106q1 69 36 105t93 36zM737 1188h-231l-47 -504h207q39 0 59 47l51 115h76l-57 -397h-66l-27 120
q-8 41 -45 41h-206l-52 -536h248q68 0 94 49l99 176h88q-6 -164 -51 -299h-830l12 59l50 17q59 16 63 59l96 991q4 45 -49 60l-55 16l10 60h811q12 -115 -22 -295h-84l-54 166q-16 55 -88 55z" />
    <glyph glyph-name="Igrave" unicode="&#xcc;" horiz-adv-x="612" 
d="M172 1460l70 195q102 -23 211 -91t147 -137l-35 -65zM268 1126q4 45 -51 60l-55 16l12 60h451l-13 -60l-49 -18q-49 -16 -55 -30q-6 -13 -8 -28l-97 -991q-4 -32 22 -46q9 -5 30 -11l53 -19l-10 -59h-451l12 59l50 17q59 16 63 59z" />
    <glyph glyph-name="Iacute" unicode="&#xcd;" horiz-adv-x="612" 
d="M643 1460l-412 -98l-18 65q53 70 174 138t227 90zM268 1126q4 45 -51 60l-55 16l12 60h451l-13 -60l-49 -18q-49 -16 -55 -30q-6 -13 -8 -28l-97 -991q-4 -32 22 -46q9 -5 30 -11l53 -19l-10 -59h-451l12 59l50 17q59 16 63 59z" />
    <glyph glyph-name="Icircumflex" unicode="&#xce;" horiz-adv-x="614" 
d="M188 1356l-36 61q123 139 247 217h66q123 -90 205 -217l-47 -61l-209 100zM268 1126q4 45 -51 60l-55 16l12 60h451l-13 -60l-49 -18q-49 -16 -55 -30q-6 -13 -8 -28l-97 -991q-4 -32 22 -46q9 -5 30 -11l53 -19l-10 -59h-451l12 59l50 17q59 16 63 59z" />
    <glyph glyph-name="Idieresis" unicode="&#xcf;" horiz-adv-x="612" 
d="M615 1647q57 0 93 -37t34 -105q-2 -69 -36 -105t-92 -36t-94 36q-35 36 -34 106q1 69 36 105t93 36zM226 1647q58 0 93 -37t34 -105q-1 -69 -36 -105t-94 -36t-93 36t-33 106q1 69 36 105t93 36zM268 1126q4 45 -51 60l-55 16l12 60h451l-13 -60l-49 -18q-49 -16 -55 -30
q-6 -13 -8 -28l-97 -991q-4 -32 22 -46q9 -5 30 -11l53 -19l-10 -59h-451l12 59l50 17q59 16 63 59z" />
    <glyph glyph-name="Eth" unicode="&#xd0;" horiz-adv-x="1249" 
d="M526 74q162 0 282 147t144 407t-66 410q-91 150 -251 150h-127l-49 -512h243l-8 -76h-241l-52 -526h125zM670 1262q268 0 418 -167t120 -459q-29 -292 -209 -464t-442 -172h-508l12 59l50 17q59 16 63 59l45 465h-106l8 76h104l45 450q4 45 -51 60l-55 16l12 60h494z" />
    <glyph glyph-name="Ntilde" unicode="&#xd1;" horiz-adv-x="1290" 
d="M650 1626q62 0 140 -40t121 -40q66 0 84 68h66q-10 -110 -55 -176q-44 -66 -114 -66t-146 44t-130 44q-55 0 -75 -55h-64q7 97 59 159t114 62zM866 0l-538 1057l-88 -922q-3 -27 13 -36q17 -9 40 -15l82 -25l-13 -59h-315l10 59l54 21q57 20 61 55l98 1024
q-45 35 -102 43l10 60h326l534 -1026l86 888q2 16 -6 28t-18 17q-10 4 -33 11l-76 22l10 60h316l-10 -60l-56 -20q-35 -14 -46 -27q-11 -12 -13 -31l-109 -1124h-217z" />
    <glyph glyph-name="Ograve" unicode="&#xd2;" horiz-adv-x="1282" 
d="M613 35q144 0 245 165q100 165 125 428t-41 430t-210 167t-246 -164t-129 -424q-26 -260 43 -431t213 -171zM608 -31q-256 0 -397 174q-141 173 -111 481t207 488q176 180 428 180t393 -174q140 -174 110 -485t-202 -487t-428 -177zM479 1460l70 195q102 -23 211 -91
t147 -137l-35 -65z" />
    <glyph glyph-name="Oacute" unicode="&#xd3;" horiz-adv-x="1282" 
d="M613 35q144 0 245 165q100 165 125 428t-41 430t-210 167t-246 -164t-129 -424q-26 -260 43 -431t213 -171zM608 -31q-256 0 -397 174q-141 173 -111 481t207 488q176 180 428 180t393 -174q140 -174 110 -485t-202 -487t-428 -177zM981 1460l-412 -98l-18 65
q53 70 174 138t227 90z" />
    <glyph glyph-name="Ocircumflex" unicode="&#xd4;" horiz-adv-x="1282" 
d="M613 35q144 0 245 165q100 165 125 428t-41 430t-210 167t-246 -164t-129 -424q-26 -260 43 -431t213 -171zM608 -31q-256 0 -397 174q-141 173 -111 481t207 488q176 180 428 180t393 -174q140 -174 110 -485t-202 -487t-428 -177zM514 1356l-37 61q123 139 248 217h66
q123 -90 204 -217l-47 -61l-209 100z" />
    <glyph glyph-name="Otilde" unicode="&#xd5;" horiz-adv-x="1282" 
d="M646 1626q62 0 139 -40t122 -40q66 0 84 68h66q-9 -110 -55 -176t-115 -66t-145 44t-130 44q-55 0 -75 -55h-64q8 97 59 159q52 62 114 62zM613 35q144 0 245 165q100 165 125 428t-41 430t-210 167t-246 -164t-129 -424q-26 -260 43 -431t213 -171zM608 -31
q-256 0 -397 174q-141 173 -111 481t207 488q176 180 428 180t393 -174q140 -174 110 -485t-202 -487t-428 -177z" />
    <glyph glyph-name="Odieresis" unicode="&#xd6;" horiz-adv-x="1282" 
d="M945 1647q58 0 93 -37t34 -105q-1 -69 -36 -105t-93 -36t-93 36t-34 106q1 69 36 105t93 36zM553 1364q-59 0 -93 36t-34 105q4 141 131 142q57 0 92 -37t34 -105q-1 -69 -36 -105t-94 -36zM613 35q144 0 245 165q100 165 125 428t-41 430t-210 167t-246 -164t-129 -424
q-26 -260 43 -431t213 -171zM608 -31q-256 0 -397 174q-141 173 -111 481t207 488q176 180 428 180t393 -174q140 -174 110 -485t-202 -487t-428 -177z" />
    <glyph glyph-name="multiply" unicode="&#xd7;" horiz-adv-x="800" 
d="M176 139l-88 111l225 225l-186 230l115 114l188 -231l225 227l90 -108l-227 -228l184 -225l-114 -117l-185 228z" />
    <glyph glyph-name="Oslash" unicode="&#xd8;" horiz-adv-x="1282" 
d="M619 35q140 0 241 165q100 166 122 392t-9 369l-565 -773q71 -153 211 -153zM734 1225q-144 0 -246 -164q-102 -163 -127 -399q-24 -236 18 -392l569 777q-70 178 -214 178zM610 -31q-172 0 -301 84l-149 -205h-90l184 250q-188 178 -152 523q31 311 207 491t428 180
q188 0 318 -100l153 211h88l-190 -260q166 -177 135 -499t-203 -498t-428 -177z" />
    <glyph glyph-name="Ugrave" unicode="&#xd9;" horiz-adv-x="1204" 
d="M600 -31q-254 0 -348 121t-70 381l64 655q2 47 -49 60l-56 16l13 60h469l-13 -60l-67 -18q-33 -8 -47 -20t-17 -38l-71 -735q-31 -344 245 -344q299 0 342 447l60 632q3 46 -49 60l-68 16l12 60h297l-10 -60l-51 -18q-48 -16 -55 -30t-9 -28l-59 -618q-25 -270 -136 -405
q-112 -134 -327 -134zM512 1460l70 195q102 -23 211 -91t147 -137l-35 -65z" />
    <glyph glyph-name="Uacute" unicode="&#xda;" horiz-adv-x="1204" 
d="M1030 1460l-412 -98l-18 65q53 70 174 138t227 90zM600 -31q-254 0 -348 121t-70 381l64 655q2 47 -49 60l-56 16l13 60h469l-13 -60l-67 -18q-33 -8 -47 -20t-17 -38l-71 -735q-31 -344 245 -344q299 0 342 447l60 632q3 46 -49 60l-68 16l12 60h297l-10 -60l-51 -18
q-48 -16 -55 -30t-9 -28l-59 -618q-25 -270 -136 -405q-112 -134 -327 -134z" />
    <glyph glyph-name="Ucircumflex" unicode="&#xdb;" horiz-adv-x="1204" 
d="M600 -31q-254 0 -348 121t-70 381l64 655q2 47 -49 60l-56 16l13 60h469l-13 -60l-67 -18q-33 -8 -47 -20t-17 -38l-71 -735q-31 -344 245 -344q299 0 342 447l60 632q3 46 -49 60l-68 16l12 60h297l-10 -60l-51 -18q-48 -16 -55 -30t-9 -28l-59 -618q-25 -270 -136 -405
q-112 -134 -327 -134zM547 1356l-37 61q123 139 248 217h65q123 -90 205 -217l-47 -61l-209 100z" />
    <glyph glyph-name="Udieresis" unicode="&#xdc;" horiz-adv-x="1204" 
d="M970 1647q58 0 93 -37t34 -105q-1 -69 -36 -105t-93 -36t-93 36t-34 106q1 69 36 105t93 36zM578 1364q-59 0 -93 36t-34 105q4 141 131 142q57 0 92 -37t34 -105q-1 -69 -36 -105t-94 -36zM600 -31q-254 0 -348 121t-70 381l64 655q2 47 -49 60l-56 16l13 60h469
l-13 -60l-67 -18q-33 -8 -47 -20t-17 -38l-71 -735q-31 -344 245 -344q299 0 342 447l60 632q3 46 -49 60l-68 16l12 60h297l-10 -60l-51 -18q-48 -16 -55 -30t-9 -28l-59 -618q-25 -270 -136 -405q-112 -134 -327 -134z" />
    <glyph glyph-name="Yacute" unicode="&#xdd;" horiz-adv-x="1071" 
d="M981 1460l-412 -98l-18 65q53 70 174 138t227 90zM485 1186q-55 -14 -34 -68l208 -504l304 500q31 59 -11 70l-114 18l10 60h336l-10 -60l-44 -10q-53 -14 -90 -78l-364 -600l-37 -379q-4 -32 21 -46q9 -5 28 -11l60 -19l-13 -59h-459l13 59l53 17q31 8 45 20t16 39
l35 363l-258 608q-25 72 -53 80l-51 16l10 60h496l-9 -60z" />
    <glyph glyph-name="Thorn" unicode="&#xde;" horiz-adv-x="1026" 
d="M569 946h-88l-59 -612h106q193 0 222 315q14 135 -28 216t-153 81zM606 1022q203 0 315 -98q113 -98 95 -278t-148 -284q-130 -102 -327 -102h-125l-13 -125q-1 -27 11 -38t41 -19l71 -19l-10 -59h-469l12 59l50 17q59 16 63 59l96 991q4 45 -51 60l-55 16l12 60h451
l-13 -60l-49 -18q-49 -16 -55 -30q-6 -13 -8 -28l-11 -104h117z" />
    <glyph glyph-name="germandbls" unicode="&#xdf;" horiz-adv-x="1073" 
d="M680 -31q-146 0 -231 84q16 123 61 199h86l6 -180q33 -16 82 -16t84 32q101 95 -56 263q-42 44 -84 92t-69 117t-18 147q8 78 42 135t70 88q137 115 108 292q-7 42 -39 78t-96 37q-64 0 -120 -79q-55 -79 -70 -230l-100 -1028l-223 -27l86 875h-95l13 74h88l8 71
q18 193 133 303t279 109q164 0 261 -66t85 -190q-6 -66 -39 -117t-68 -78q-95 -73 -102 -168q-11 -128 91 -230q44 -44 87 -88q105 -107 92 -234q-12 -127 -108 -196q-98 -69 -244 -69z" />
    <glyph glyph-name="agrave" unicode="&#xe0;" horiz-adv-x="1044" 
d="M377 1323l155 141q56 -63 102 -160t58 -194l-55 -43zM428 102q80 0 215 187l59 598q-55 10 -88 10q-90 0 -152 -57q-62 -58 -91 -150q-50 -159 -52 -338q0 -250 109 -250zM344 -31q-110 -1 -190 103t-80 295q0 254 150 425q151 171 390 171q141 0 312 -72l-72 -737
q-2 -27 7 -39t26 -9l100 25l14 -55q-152 -82 -270 -107q-96 23 -92 160v47q-156 -207 -295 -207z" />
    <glyph glyph-name="aacute" unicode="&#xe1;" horiz-adv-x="1044" 
d="M854 1305l-311 -256l-49 41q31 96 95 194q65 98 134 162zM428 102q80 0 215 187l59 598q-55 10 -88 10q-90 0 -152 -57q-62 -58 -91 -150q-50 -159 -52 -338q0 -250 109 -250zM344 -31q-110 -1 -190 103t-80 295q0 254 150 425q151 171 390 171q141 0 312 -72l-72 -737
q-2 -27 7 -39t26 -9l100 25l14 -55q-152 -82 -270 -107q-96 23 -92 160v47q-156 -207 -295 -207z" />
    <glyph glyph-name="acircumflex" unicode="&#xe2;" horiz-adv-x="1044" 
d="M311 1114q135 213 271 334h65q121 -137 205 -334l-49 -45l-207 191l-242 -191zM428 102q80 0 215 187l59 598q-55 10 -88 10q-90 0 -152 -57q-62 -58 -91 -150q-50 -159 -52 -338q0 -250 109 -250zM344 -31q-110 -1 -190 103t-80 295q0 254 150 425q151 171 390 171
q141 0 312 -72l-72 -737q-2 -27 7 -39t26 -9l100 25l14 -55q-152 -82 -270 -107q-96 23 -92 160v47q-156 -207 -295 -207z" />
    <glyph glyph-name="atilde" unicode="&#xe3;" horiz-adv-x="1044" 
d="M492 1348q60 0 131 -40q72 -40 112 -40q68 0 86 69h60q-3 -100 -51 -175t-128 -75q-56 -1 -124 45t-111 46q-63 0 -94 -74h-58q9 102 63 173t114 71zM428 102q80 0 215 187l59 598q-55 10 -88 10q-90 0 -152 -57q-62 -58 -91 -150q-50 -159 -52 -338q0 -250 109 -250z
M344 -31q-110 -1 -190 103t-80 295q0 254 150 425q151 171 390 171q141 0 312 -72l-72 -737q-2 -27 7 -39t26 -9l100 25l14 -55q-152 -82 -270 -107q-96 23 -92 160v47q-156 -207 -295 -207z" />
    <glyph glyph-name="adieresis" unicode="&#xe4;" horiz-adv-x="1044" 
d="M775 1364q56 0 90 -34t33 -100t-34 -102q-33 -34 -89 -34t-90 34t-33 102q1 66 34 100t89 34zM387 1364q55 0 88 -34t32 -100t-35 -102q-34 -34 -89 -34t-89 34t-34 103q2 133 127 133zM428 102q80 0 215 187l59 598q-55 10 -88 10q-90 0 -152 -57q-62 -58 -91 -150
q-50 -159 -52 -338q0 -250 109 -250zM344 -31q-110 -1 -190 103t-80 295q0 254 150 425q151 171 390 171q141 0 312 -72l-72 -737q-2 -27 7 -39t26 -9l100 25l14 -55q-152 -82 -270 -107q-96 23 -92 160v47q-156 -207 -295 -207z" />
    <glyph glyph-name="aring" unicode="&#xe5;" horiz-adv-x="1044" 
d="M586 1157q44 0 72 31t28 84t-28 83q-28 29 -70 29t-71 -32q-30 -32 -30 -84q0 -53 28 -82t71 -29zM582 1057q-94 0 -148 59q-53 60 -52 155t58 155q56 60 148 60t148 -60q56 -62 56 -154t-58 -154t-152 -61zM428 102q80 0 215 187l59 598q-55 10 -88 10q-90 0 -152 -57
q-62 -58 -91 -150q-50 -159 -52 -338q0 -250 109 -250zM344 -31q-110 -1 -190 103t-80 295q0 254 150 425q151 171 390 171q141 0 312 -72l-72 -737q-2 -27 7 -39t26 -9l100 25l14 -55q-152 -82 -270 -107q-96 23 -92 160v47q-156 -207 -295 -207z" />
    <glyph glyph-name="ae" unicode="&#xe6;" horiz-adv-x="1382" 
d="M551 401v45q-246 -80 -264 -247q-7 -57 19 -88t69 -31q80 0 215 108q-39 86 -39 213zM1006 895q-82 0 -140 -130t-65 -321q117 33 209 108t92 193q0 63 -26 107t-70 43zM1346 719q0 -139 -153 -225t-392 -123q8 -135 68 -213t153 -78q123 0 256 145l47 -45
q-156 -211 -381 -211t-328 166q-182 -166 -350 -166q-109 1 -172 55t-51 166q23 209 322 279q143 31 190 41l8 86q13 156 -11 228t-101 71q-77 0 -134 -18l-67 -222h-74q-33 90 -33 222q164 86 327 86t249 -121q127 121 305 121q142 0 232 -71t90 -173z" />
    <glyph glyph-name="ccedilla" unicode="&#xe7;" horiz-adv-x="870" 
d="M398 -385q-90 0 -132 68l35 55q41 -37 82 -37q66 0 74 72q6 80 -117 80l51 120q-158 21 -246 155t-66 345t157 350t346 140q84 0 167 -28t125 -67q-23 -117 -77 -223h-70l-22 225q-61 27 -111 27q-112 0 -184 -114t-90 -303t32 -304q51 -115 174 -115t242 148l37 -35
q-76 -100 -157 -151t-197 -54l-31 -69q196 0 184 -127q-6 -68 -61 -113t-145 -45z" />
    <glyph glyph-name="egrave" unicode="&#xe8;" 
d="M346 1323l156 141q57 -63 102 -160t58 -194l-56 -43zM535 895q-81 0 -141 -130t-66 -321q115 33 208 109t93 195q1 63 -25 105t-69 42zM872 724q0 -99 -78 -173q-142 -133 -466 -180q8 -135 68 -213t144 -78t140 36q57 36 125 109l47 -45q-156 -211 -377 -211
q-186 0 -292 116q-105 116 -105 335t131 381t342 162q141 0 231 -70t90 -169z" />
    <glyph glyph-name="eacute" unicode="&#xe9;" 
d="M793 1305l-312 -256l-49 41q31 96 95 194q65 98 135 162zM535 895q-81 0 -141 -130t-66 -321q115 33 208 109t93 195q1 63 -25 105t-69 42zM872 724q0 -99 -78 -173q-142 -133 -466 -180q8 -135 68 -213t144 -78t140 36q57 36 125 109l47 -45q-156 -211 -377 -211
q-186 0 -292 116q-105 116 -105 335t131 381t342 162q141 0 231 -70t90 -169z" />
    <glyph glyph-name="ecircumflex" unicode="&#xea;" 
d="M535 895q-81 0 -141 -130t-66 -321q115 33 208 109t93 195q1 63 -25 105t-69 42zM285 1114q135 213 270 334h66q121 -137 204 -334l-49 -45l-207 191l-241 -191zM872 724q0 -99 -78 -173q-142 -133 -466 -180q8 -135 68 -213t144 -78t140 36q57 36 125 109l47 -45
q-156 -211 -377 -211q-186 0 -292 116q-105 116 -105 335t131 381t342 162q141 0 231 -70t90 -169z" />
    <glyph glyph-name="edieresis" unicode="&#xeb;" 
d="M742 1364q56 0 90 -34t34 -100q-2 -66 -35 -102q-33 -34 -89 -34t-90 34q-33 35 -32 102q2 66 34 100t88 34zM354 1364q55 0 88 -34t32 -100t-35 -102q-34 -34 -89 -34t-89 34t-34 103q2 133 127 133zM535 895q-81 0 -141 -130t-66 -321q115 33 208 109t93 195
q1 63 -25 105t-69 42zM872 724q0 -99 -78 -173q-142 -133 -466 -180q8 -135 68 -213t144 -78t140 36q57 36 125 109l47 -45q-156 -211 -377 -211q-186 0 -292 116q-105 116 -105 335t131 381t342 162q141 0 231 -70t90 -169z" />
    <glyph glyph-name="igrave" unicode="&#xec;" horiz-adv-x="561" 
d="M115 1323l155 141q56 -63 102 -160t58 -194l-55 -43zM512 76q-150 -82 -270 -107q-49 11 -79 55t-24 105l64 637q6 51 -33 63l-84 19l10 57q127 37 295 58h33q12 -63 4 -164l-63 -645q-2 -27 7 -39t25 -9l101 25z" />
    <glyph glyph-name="iacute" unicode="&#xed;" horiz-adv-x="559" 
d="M512 76q-150 -82 -270 -107q-49 11 -79 55t-24 105l64 637q6 51 -33 63l-84 19l10 57q127 37 295 58h33q12 -63 4 -164l-63 -645q-2 -27 7 -39t25 -9l101 25zM567 1305l-311 -256l-49 41q31 96 95 194q65 98 134 162z" />
    <glyph glyph-name="icircumflex" unicode="&#xee;" horiz-adv-x="561" 
d="M512 76q-150 -82 -270 -107q-49 11 -79 55t-24 105l64 637q6 51 -33 63l-84 19l10 57q127 37 295 58h33q12 -63 4 -164l-63 -645q-2 -27 7 -39t25 -9l101 25zM39 1114q135 213 270 334h66q121 -137 205 -334l-50 -45l-206 191l-242 -191z" />
    <glyph glyph-name="idieresis" unicode="&#xef;" horiz-adv-x="559" 
d="M512 76q-150 -82 -270 -107q-49 11 -79 55t-24 105l64 637q6 51 -33 63l-84 19l10 57q127 37 295 58h33q12 -63 4 -164l-63 -645q-2 -27 7 -39t25 -9l101 25zM527 1364q56 0 90 -34t33 -100t-34 -102q-33 -34 -89 -34t-90 34q-33 35 -32 102q1 66 33 100t89 34zM139 1364
q55 0 88 -34t32 -100t-35 -102q-34 -34 -89 -34t-89 34t-34 103q2 133 127 133z" />
    <glyph glyph-name="eth" unicode="&#xf0;" horiz-adv-x="1038" 
d="M580 889q-217 0 -256 -428q-20 -190 14 -308t135 -118q193 0 238 459q18 184 18 346q-61 49 -149 49zM474 -31q-198 -1 -306 139t-87 361q22 221 152 357q131 136 324 137q96 0 170 -41q-10 190 -57 288l-135 -131l-46 60l138 135q-45 51 -125 51t-205 -51l-16 65
q137 66 245 66t187 -47l149 145l45 -61l-133 -129q117 -104 163 -305q45 -200 23 -448t-155 -420t-331 -171z" />
    <glyph glyph-name="ntilde" unicode="&#xf1;" horiz-adv-x="1060" 
d="M506 1348q60 0 131 -40q72 -40 113 -40q68 0 86 69h59q-2 -100 -50 -175t-128 -75q-55 -1 -124 45t-112 46q-63 0 -94 -74h-57q8 102 62 173t114 71zM788 963q94 1 125 -95t11 -307l-41 -407q-2 -27 7 -39t25 -9l101 25l14 -55q-33 -23 -132 -61t-140 -46
q-117 10 -101 156l37 379q26 223 -3 276q-11 23 -34 23q-47 1 -106 -59t-148 -177l-55 -567l-223 -27l76 791q4 53 -35 63l-82 21l12 57q123 37 293 58h35q14 -70 2 -164l-12 -117q106 133 193 207t181 74z" />
    <glyph glyph-name="ograve" unicode="&#xf2;" horiz-adv-x="987" 
d="M348 1321l156 141q57 -63 102 -160t58 -194l-56 -43zM461 29q188 0 229 436t-141 436t-224 -436t136 -436zM457 -31q-197 0 -297 133q-100 134 -78 364t147 363t323 133t300 -134t82 -363t-150 -363t-327 -133z" />
    <glyph glyph-name="oacute" unicode="&#xf3;" horiz-adv-x="987" 
d="M461 29q188 0 229 436t-141 436t-224 -436t136 -436zM457 -31q-197 0 -297 133q-100 134 -78 364t147 363t323 133t300 -134t82 -363t-150 -363t-327 -133zM819 1303l-311 -256l-49 40q31 97 95 195t134 162z" />
    <glyph glyph-name="ocircumflex" unicode="&#xf4;" horiz-adv-x="987" 
d="M461 29q188 0 229 436t-141 436t-224 -436t136 -436zM457 -31q-197 0 -297 133q-100 134 -78 364t147 363t323 133t300 -134t82 -363t-150 -363t-327 -133zM285 1112q135 213 270 334h66q121 -137 204 -334l-49 -45l-207 190l-241 -190z" />
    <glyph glyph-name="otilde" unicode="&#xf5;" horiz-adv-x="987" 
d="M456 1346q60 0 132 -40t112 -40q68 0 86 69h60q-2 -100 -50 -175t-128 -75q-55 0 -124 45t-112 46q-63 0 -94 -74h-57q8 102 62 173q53 71 113 71zM461 29q188 0 229 436t-141 436t-224 -436t136 -436zM457 -31q-197 0 -297 133q-100 134 -78 364t147 363t323 133
t300 -134t82 -363t-150 -363t-327 -133z" />
    <glyph glyph-name="odieresis" unicode="&#xf6;" horiz-adv-x="987" 
d="M461 29q188 0 229 436t-141 436t-224 -436t136 -436zM457 -31q-197 0 -297 133q-100 134 -78 364t147 363t323 133t300 -134t82 -363t-150 -363t-327 -133zM765 1362q56 0 90 -34t33 -100t-34 -102q-33 -34 -89 -34t-90 34t-33 102q1 66 34 100t89 34zM377 1362
q55 0 88 -34t32 -100t-35 -102q-34 -34 -89 -34t-89 34t-34 103q2 133 127 133z" />
    <glyph glyph-name="divide" unicode="&#xf7;" horiz-adv-x="782" 
d="M84 385l14 152h625l-14 -152h-625zM450 948q54 0 88 -40t28 -98t-49 -100q-42 -42 -95 -42t-86 42t-27 100t47 98q40 40 94 40zM383 250q53 0 87 -40t28 -98t-47 -100t-95 -43q-54 0 -87 41q-31 42 -27 101q6 59 47 99t94 40z" />
    <glyph glyph-name="oslash" unicode="&#xf8;" horiz-adv-x="991" 
d="M463 29q188 0 229 436q10 121 4 211l-364 -502q31 -145 131 -145zM328 465q-12 -121 -6 -215l364 502q-33 150 -137 149q-180 0 -221 -436zM457 -31q-135 0 -226 66l-135 -187h-65l159 222q-131 130 -107 378t148 381q125 133 322 134q141 0 235 -70l140 192h65
l-166 -227q133 -138 111 -380t-152 -376t-329 -133z" />
    <glyph glyph-name="ugrave" unicode="&#xf9;" horiz-adv-x="1058" 
d="M397 1323l156 141q57 -63 102 -160t58 -194l-56 -43zM295 -31q-100 0 -130 94t-9 306l37 393q6 55 -27 65l-84 23l10 57q137 39 287 56h37q16 -55 6 -142l-39 -395q-26 -213 3 -273q11 -24 36 -24q76 0 250 227q51 526 57 576h223l-78 -778q-2 -27 8 -39t25 -9l101 25
l16 -55q-150 -82 -270 -107q-51 11 -81 55t-22 105q2 45 11 115q-207 -275 -367 -275z" />
    <glyph glyph-name="uacute" unicode="&#xfa;" horiz-adv-x="1058" 
d="M852 1305l-311 -256l-49 41q31 96 95 194q65 98 134 162zM295 -31q-100 0 -130 94t-9 306l37 393q6 55 -27 65l-84 23l10 57q137 39 287 56h37q16 -55 6 -142l-39 -395q-26 -213 3 -273q11 -24 36 -24q76 0 250 227q51 526 57 576h223l-78 -778q-2 -27 8 -39t25 -9
l101 25l16 -55q-150 -82 -270 -107q-51 11 -81 55t-22 105q2 45 11 115q-207 -275 -367 -275z" />
    <glyph glyph-name="ucircumflex" unicode="&#xfb;" horiz-adv-x="1058" 
d="M319 1114q135 213 271 334h65q121 -137 205 -334l-49 -45l-207 191l-242 -191zM295 -31q-100 0 -130 94t-9 306l37 393q6 55 -27 65l-84 23l10 57q137 39 287 56h37q16 -55 6 -142l-39 -395q-26 -213 3 -273q11 -24 36 -24q76 0 250 227q51 526 57 576h223l-78 -778
q-2 -27 8 -39t25 -9l101 25l16 -55q-150 -82 -270 -107q-51 11 -81 55t-22 105q2 45 11 115q-207 -275 -367 -275z" />
    <glyph glyph-name="udieresis" unicode="&#xfc;" horiz-adv-x="1058" 
d="M794 1364q56 0 90 -34t32 -100t-34 -102q-32 -34 -88 -34t-91 34q-33 35 -32 102q1 66 34 100t89 34zM406 1364q55 0 88 -34q34 -34 32 -100t-36 -102q-34 -34 -89 -34t-89 34q-33 35 -33 103q2 133 127 133zM295 -31q-100 0 -130 94t-9 306l37 393q6 55 -27 65l-84 23
l10 57q137 39 287 56h37q16 -55 6 -142l-39 -395q-26 -213 3 -273q11 -24 36 -24q76 0 250 227q51 526 57 576h223l-78 -778q-2 -27 8 -39t25 -9l101 25l16 -55q-150 -82 -270 -107q-51 11 -81 55t-22 105q2 45 11 115q-207 -275 -367 -275z" />
    <glyph glyph-name="yacute" unicode="&#xfd;" 
d="M823 1305l-311 -256l-49 41q31 96 95 194q65 98 134 162zM795 706q0 106 -27 130l-150 20l-6 45q51 41 129 62q137 0 144 -195q1 -264 -231 -608t-564 -551l-76 131q20 12 136 76q116 63 215 139h-11l-196 862q-6 29 -39 39l-62 16l13 60q119 27 231 31h39
q35 -55 49 -132l154 -700q119 147 185 308q67 161 67 267z" />
    <glyph glyph-name="thorn" unicode="&#xfe;" horiz-adv-x="976" 
d="M575 858q-74 0 -186 -145l-63 -656q51 -12 100 -12q229 0 254 490q14 323 -105 323zM647 963q125 0 206 -111t73 -315q-10 -258 -144 -413t-358 -155q-51 0 -107 13l-22 -242q0 -30 16 -37q16 -6 33 -10l82 -21l-10 -59h-465l10 59l47 17q61 18 66 59l141 1456
q6 57 -29 66l-84 22l13 58q137 39 286 55h35q16 -55 6 -141l-45 -453q125 152 250 152z" />
    <glyph glyph-name="ydieresis" unicode="&#xff;" 
d="M787 1364q57 0 91 -34t32 -100t-34 -102q-32 -34 -88 -34t-91 34q-33 35 -32 102q1 66 33 100t89 34zM399 1364q55 0 88 -34t32 -100t-35 -102q-34 -34 -89 -34t-89 34t-34 103q2 133 127 133zM795 706q0 106 -27 130l-150 20l-6 45q51 41 129 62q137 0 144 -195
q1 -264 -231 -608t-564 -551l-76 131q76 46 155 88t198 127h-13l-196 862q-6 29 -39 39l-62 16l13 60q119 27 231 31h39q35 -55 49 -132l154 -700q119 147 185 308q67 161 67 267z" />
    <glyph glyph-name="Amacron" unicode="&#x100;" horiz-adv-x="1095" 
d="M406 1423l16 164h479l-16 -164h-479zM528 1042l-229 -544h350zM725 158l-59 264h-398l-112 -268q-25 -61 30 -72l119 -23l-10 -59h-348l10 59l66 21q33 10 55 63l469 1119h184l250 -1106q16 -63 51 -76l58 -21l-13 -59h-526l10 59l109 19q71 14 55 80z" />
    <glyph glyph-name="amacron" unicode="&#x101;" horiz-adv-x="1044" 
d="M303 1118l16 164h512l-14 -164h-514zM428 102q80 0 215 187l59 598q-55 10 -88 10q-90 0 -152 -57q-62 -58 -91 -150q-50 -159 -52 -338q0 -250 109 -250zM344 -31q-110 -1 -190 103t-80 295q0 254 150 425q151 171 390 171q141 0 312 -72l-72 -737q-2 -27 7 -39t26 -9
l100 25l14 -55q-152 -82 -270 -107q-96 23 -92 160v47q-156 -207 -295 -207z" />
    <glyph glyph-name="Abreve" unicode="&#x102;" horiz-adv-x="1095" 
d="M650 1534q77 0 134 40t78 91h72q-18 -129 -99 -212t-202 -83t-186 83q-64 83 -54 212h70q6 -49 58 -90t129 -41zM528 1042l-229 -544h350zM725 158l-59 264h-398l-112 -268q-25 -61 30 -72l119 -23l-10 -59h-348l10 59l66 21q33 10 55 63l469 1119h184l250 -1106
q16 -63 51 -76l58 -21l-13 -59h-526l10 59l109 19q71 14 55 80z" />
    <glyph glyph-name="abreve" unicode="&#x103;" horiz-adv-x="1044" 
d="M576 1243q70 0 125 44q54 44 77 104h64q-8 -139 -89 -225t-191 -87q-110 1 -174 87t-46 225h64q8 -57 54 -103t116 -45zM428 102q80 0 215 187l59 598q-55 10 -88 10q-90 0 -152 -57q-62 -58 -91 -150q-50 -159 -52 -338q0 -250 109 -250zM344 -31q-110 -1 -190 103
t-80 295q0 254 150 425q151 171 390 171q141 0 312 -72l-72 -737q-2 -27 7 -39t26 -9l100 25l14 -55q-152 -82 -270 -107q-96 23 -92 160v47q-156 -207 -295 -207z" />
    <glyph glyph-name="Aogonek" unicode="&#x104;" horiz-adv-x="1095" 
d="M528 1042l-229 -544h350zM725 158l-59 264h-398l-112 -268q-25 -61 30 -72l119 -23l-10 -59h-348l10 59l66 21q33 10 55 63l469 1119h184l250 -1106q16 -63 51 -76l58 -21l-13 -59q-186 -76 -196 -209q-5 -49 17 -80t65 -31t77 27l21 -43q-68 -68 -180 -67q-76 0 -127 50
t-43 132q12 145 223 221h-383l10 59l109 19q71 14 55 80z" />
    <glyph glyph-name="aogonek" unicode="&#x105;" horiz-adv-x="1044" 
d="M428 102q80 0 215 187l59 598q-55 10 -88 10q-90 0 -152 -57q-62 -58 -91 -150q-50 -159 -52 -338q0 -250 109 -250zM737 -375q-94 0 -145 50t-43 132q10 115 137 185q-51 41 -47 137v47q-156 -207 -295 -207q-110 -1 -190 103t-80 295q0 254 150 425q151 171 390 171
q141 0 312 -72l-72 -737q-2 -27 7 -39t26 -9l100 25l14 -55q-14 -8 -88 -45q-186 -86 -194 -211q-5 -49 17 -80t65 -31t78 27l20 -43q-68 -68 -162 -68z" />
    <glyph glyph-name="Cacute" unicode="&#x106;" horiz-adv-x="1132" 
d="M1014 1460l-412 -98l-18 65q53 70 174 138t227 90zM655 -31q-285 0 -437 163t-120 479q31 317 224 499q194 182 448 182t401 -118q-29 -141 -81 -242h-91l-34 260q-55 33 -156 33q-176 0 -301 -166t-152 -438q-26 -271 66 -429t266 -157q78 0 135 22l123 250h98
q6 -158 -36 -270q-147 -68 -353 -68z" />
    <glyph glyph-name="cacute" unicode="&#x107;" horiz-adv-x="870" 
d="M594 897q-112 0 -184 -114t-90 -303t32 -304q51 -114 174 -114t242 147l37 -35q-76 -100 -159 -152t-200 -53q-182 1 -286 139t-82 357t158 358q135 139 346 140q84 0 167 -28t125 -67q-23 -117 -77 -223h-70l-22 225q-61 27 -111 27zM823 1305l-311 -256l-49 41
q31 96 95 194q65 98 134 162z" />
    <glyph glyph-name="Ccircumflex" unicode="&#x108;" horiz-adv-x="1132" 
d="M565 1356l-37 61q123 139 248 217h66q123 -90 205 -217l-48 -61l-208 100zM655 -31q-285 0 -437 163t-120 479q31 317 224 499q194 182 448 182t401 -118q-29 -141 -81 -242h-91l-34 260q-55 33 -156 33q-176 0 -301 -166t-152 -438q-26 -271 66 -429t266 -157
q78 0 135 22l123 250h98q6 -158 -36 -270q-147 -68 -353 -68z" />
    <glyph glyph-name="ccircumflex" unicode="&#x109;" horiz-adv-x="870" 
d="M594 897q-112 0 -184 -114t-90 -303t32 -304q51 -114 174 -114t242 147l37 -35q-76 -100 -159 -152t-200 -53q-182 1 -286 139t-82 357t158 358q135 139 346 140q84 0 167 -28t125 -67q-23 -117 -77 -223h-70l-22 225q-61 27 -111 27zM289 1114q135 213 270 334h66
q121 -137 204 -334l-49 -45l-207 191l-241 -191z" />
    <glyph glyph-name="Cdotaccent" unicode="&#x10a;" horiz-adv-x="1132" 
d="M655 -31q-285 0 -437 163t-120 479q31 317 224 499q194 182 448 182t401 -118q-29 -141 -81 -242h-91l-34 260q-55 33 -156 33q-176 0 -301 -166t-152 -438q-26 -271 66 -429t266 -157q78 0 135 22l123 250h98q6 -158 -36 -270q-147 -68 -353 -68zM774 1659q57 0 92 -37
q35 -36 34 -104t-36 -105t-93 -37t-93 37t-35 105q4 141 131 141z" />
    <glyph glyph-name="cdotaccent" unicode="&#x10b;" horiz-adv-x="870" 
d="M583 1366q56 0 91 -35t34 -101t-36 -104q-35 -36 -91 -36t-91 36q-33 37 -32 104q1 68 35 102t90 34zM594 897q-112 0 -184 -114t-90 -303t32 -304q51 -114 174 -114t242 147l37 -35q-76 -100 -159 -152t-200 -53q-182 1 -286 139t-82 357t158 358q135 139 346 140
q84 0 167 -28t125 -67q-23 -117 -77 -223h-70l-22 225q-61 27 -111 27z" />
    <glyph glyph-name="Ccaron" unicode="&#x10c;" horiz-adv-x="1132" 
d="M578 1653l204 -99l230 99l35 -62q-111 -131 -246 -215h-68q-106 78 -205 215zM655 -31q-285 0 -437 163t-120 479q31 317 224 499q194 182 448 182t401 -118q-29 -141 -81 -242h-91l-34 260q-55 33 -156 33q-176 0 -301 -166t-152 -438q-26 -271 66 -429t266 -157
q78 0 135 22l123 250h98q6 -158 -36 -270q-147 -68 -353 -68z" />
    <glyph glyph-name="ccaron" unicode="&#x10d;" horiz-adv-x="870" 
d="M594 897q-112 0 -184 -114t-90 -303t32 -304q51 -114 174 -114t242 147l37 -35q-76 -100 -159 -152t-200 -53q-182 1 -286 139t-82 357t158 358q135 139 346 140q84 0 167 -28t125 -67q-23 -117 -77 -223h-70l-22 225q-61 27 -111 27zM326 1399l51 43l205 -189l243 189
l43 -45q-121 -193 -270 -334h-66q-118 133 -206 336z" />
    <glyph glyph-name="Dcaron" unicode="&#x10e;" horiz-adv-x="1247" 
d="M524 1653l205 -99l229 99l35 -62q-111 -131 -245 -215h-68q-106 78 -205 215zM633 1188h-127l-107 -1114h125q162 0 282 147t144 407t-66 410q-91 150 -251 150zM668 1262q268 0 418 -167t120 -459q-29 -292 -209 -464t-442 -172h-508l12 59l50 17q59 16 63 59l96 991
q4 45 -51 60l-55 16l12 60h494z" />
    <glyph glyph-name="dcaron" unicode="&#x10f;" horiz-adv-x="1120" 
d="M991 803l-4 59q90 43 134 87t65 110q-141 10 -131 139q8 72 46 108t97 36t90 -42q31 -41 23 -116q-13 -134 -99 -240t-221 -141zM428 102q78 0 215 189q16 143 62 596q-57 10 -91 10q-90 0 -152 -57q-62 -58 -91 -150q-50 -159 -52 -338q0 -250 109 -250zM344 -31
q-110 -1 -190 103t-80 295q0 254 150 425q151 171 390 171q43 0 99 -11l24 256q4 59 -35 64l-133 20l13 58q102 29 342 55h34q14 -70 3 -164l-107 -1087q-2 -27 7 -39t26 -9l100 25l17 -55q-150 -82 -271 -107q-98 23 -94 160v47q-156 -207 -295 -207z" />
    <glyph glyph-name="Dcroat" unicode="&#x110;" horiz-adv-x="1249" 
d="M526 74q162 0 282 147t144 407t-66 410q-91 150 -251 150h-127l-49 -512h243l-8 -76h-241l-52 -526h125zM670 1262q268 0 418 -167t120 -459q-29 -292 -209 -464t-442 -172h-508l12 59l50 17q59 16 63 59l45 465h-106l8 76h104l45 450q4 45 -51 60l-55 16l12 60h494z" />
    <glyph glyph-name="dcroat" unicode="&#x111;" horiz-adv-x="1036" 
d="M428 102q78 0 215 189q16 143 62 596q-57 10 -91 10q-90 0 -152 -57q-62 -58 -91 -150q-50 -159 -52 -338q0 -250 109 -250zM344 -31q-110 -1 -190 103t-80 295q0 254 150 425q151 171 390 171q43 0 99 -11l12 144h-268l6 69h270l4 43q4 59 -35 64l-133 20l13 58
q102 29 342 55h34q14 -70 3 -164l-9 -76h97l-5 -69h-98l-92 -942q-2 -27 7 -39t26 -9l100 25l17 -55q-150 -82 -271 -107q-98 23 -94 160v47q-156 -207 -295 -207z" />
    <glyph glyph-name="Emacron" unicode="&#x112;" horiz-adv-x="1007" 
d="M383 1423l16 164h480l-17 -164h-479zM737 1188h-231l-47 -504h207q39 0 59 47l51 115h76l-57 -397h-66l-27 120q-8 41 -45 41h-206l-52 -536h248q68 0 94 49l99 176h88q-6 -164 -51 -299h-830l12 59l50 17q59 16 63 59l96 991q4 45 -49 60l-55 16l10 60h811
q12 -115 -22 -295h-84l-54 166q-16 55 -88 55z" />
    <glyph glyph-name="emacron" unicode="&#x113;" 
d="M297 1118l16 164h512l-14 -164h-514zM535 895q-81 0 -141 -130t-66 -321q115 33 208 109t93 195q1 63 -25 105t-69 42zM872 724q0 -99 -78 -173q-142 -133 -466 -180q8 -135 68 -213t144 -78t140 36q57 36 125 109l47 -45q-156 -211 -377 -211q-186 0 -292 116
q-105 116 -105 335t131 381t342 162q141 0 231 -70t90 -169z" />
    <glyph glyph-name="Ebreve" unicode="&#x114;" horiz-adv-x="1007" 
d="M636 1534q77 0 134 40t78 91h72q-18 -129 -100 -212t-202 -83q-121 0 -185 83t-54 212h70q6 -49 58 -90t129 -41zM737 1188h-231l-47 -504h207q39 0 59 47l51 115h76l-57 -397h-66l-27 120q-8 41 -45 41h-206l-52 -536h248q68 0 94 49l99 176h88q-6 -164 -51 -299h-830
l12 59l50 17q59 16 63 59l96 991q4 45 -49 60l-55 16l10 60h811q12 -115 -22 -295h-84l-54 166q-16 55 -88 55z" />
    <glyph glyph-name="ebreve" unicode="&#x115;" 
d="M564 1243q71 0 125 44t77 104h63q-8 -139 -89 -225q-80 -86 -190 -87q-110 1 -174 87t-46 225h63q8 -57 54 -103t117 -45zM535 895q-81 0 -141 -130t-66 -321q115 33 208 109t93 195q1 63 -25 105t-69 42zM872 724q0 -99 -78 -173q-142 -133 -466 -180q8 -135 68 -213
t144 -78t140 36q57 36 125 109l47 -45q-156 -211 -377 -211q-186 0 -292 116q-105 116 -105 335t131 381t342 162q141 0 231 -70t90 -169z" />
    <glyph glyph-name="Edotaccent" unicode="&#x116;" horiz-adv-x="1007" 
d="M631 1659q57 0 92 -37q35 -36 34 -104t-36 -105t-93 -37t-93 37t-35 105q4 141 131 141zM737 1188h-231l-47 -504h207q39 0 59 47l51 115h76l-57 -397h-66l-27 120q-8 41 -45 41h-206l-52 -536h248q68 0 94 49l99 176h88q-6 -164 -51 -299h-830l12 59l50 17q59 16 63 59
l96 991q4 45 -49 60l-55 16l10 60h811q12 -115 -22 -295h-84l-54 166q-16 55 -88 55z" />
    <glyph glyph-name="edotaccent" unicode="&#x117;" 
d="M572 1366q56 0 92 -35t34 -101t-36 -104q-34 -36 -92 -36q-56 0 -90 36q-33 37 -32 104q0 68 34 102t90 34zM535 895q-81 0 -141 -130t-66 -321q115 33 208 109t93 195q1 63 -25 105t-69 42zM872 724q0 -99 -78 -173q-142 -133 -466 -180q8 -135 68 -213t144 -78t140 36
q57 36 125 109l47 -45q-156 -211 -377 -211q-186 0 -292 116q-105 116 -105 335t131 381t342 162q141 0 231 -70t90 -169z" />
    <glyph glyph-name="Eogonek" unicode="&#x118;" horiz-adv-x="1007" 
d="M737 1188h-231l-47 -504h207q39 0 59 47l51 115h76l-57 -397h-66l-27 120q-8 41 -45 41h-206l-52 -536h248q68 0 94 49l99 176h88q-6 -164 -51 -299q-186 -76 -197 -209q-4 -49 18 -80t64 -31q43 0 78 27l20 -43q-68 -68 -180 -67q-76 0 -127 50t-43 132q12 145 223 221
h-686l12 59l50 17q59 16 63 59l96 991q4 45 -49 60l-55 16l10 60h811q12 -115 -22 -295h-84l-54 166q-16 55 -88 55z" />
    <glyph glyph-name="eogonek" unicode="&#x119;" 
d="M535 895q-81 0 -141 -130t-66 -321q115 33 208 109t93 195q1 63 -25 105t-69 42zM504 -381q-94 0 -146 50q-51 50 -43 132q8 104 115 170q-168 14 -260 129t-92 301q0 238 131 400t342 162q141 0 231 -70t90 -169t-78 -173q-142 -133 -466 -180q8 -135 68 -213t144 -78
t140 36q57 36 125 109l47 -45q-104 -143 -236 -186q-125 -72 -131 -180q-4 -49 18 -80q23 -31 65 -31t77 27l21 -43q-68 -68 -162 -68z" />
    <glyph glyph-name="Ecaron" unicode="&#x11a;" horiz-adv-x="1007" 
d="M434 1653l205 -99l229 99l35 -62q-111 -131 -246 -215h-67q-106 78 -205 215zM737 1188h-231l-47 -504h207q39 0 59 47l51 115h76l-57 -397h-66l-27 120q-8 41 -45 41h-206l-52 -536h248q68 0 94 49l99 176h88q-6 -164 -51 -299h-830l12 59l50 17q59 16 63 59l96 991
q4 45 -49 60l-55 16l10 60h811q12 -115 -22 -295h-84l-54 166q-16 55 -88 55z" />
    <glyph glyph-name="ecaron" unicode="&#x11b;" 
d="M535 895q-81 0 -141 -130t-66 -321q115 33 208 109t93 195q1 63 -25 105t-69 42zM315 1399l52 43l204 -189l244 189l43 -45q-121 -193 -270 -334h-66q-119 133 -207 336zM872 724q0 -99 -78 -173q-142 -133 -466 -180q8 -135 68 -213t144 -78t140 36q57 36 125 109
l47 -45q-156 -211 -377 -211q-186 0 -292 116q-105 116 -105 335t131 381t342 162q141 0 231 -70t90 -169z" />
    <glyph glyph-name="Gcircumflex" unicode="&#x11c;" horiz-adv-x="1228" 
d="M838 1223q-197 0 -326 -161q-129 -160 -157 -436q-27 -276 63 -432t268 -157q88 0 141 37l29 317q6 45 -41 55l-90 23l12 59h473l-12 -59l-65 -27q-39 -16 -43 -51l-29 -307q-162 -115 -429 -115t-415 176q-147 176 -119 473q28 298 219 486q190 188 464 188t407 -131
q-23 -118 -82 -229h-92l-31 260q-45 31 -145 31zM563 1356l-37 61q123 139 248 217h66q123 -90 204 -217l-47 -61l-209 100z" />
    <glyph glyph-name="gcircumflex" unicode="&#x11d;" horiz-adv-x="968" 
d="M256 1114q135 213 270 334h66q121 -137 205 -334l-49 -45l-207 191l-242 -191zM465 387q147 0 172 250q12 115 -20 187q-33 72 -107 73q-74 0 -117 -73t-55 -185q-25 -252 127 -252zM377 -313q155 -1 235 43t86 116q4 39 -21 64q-26 25 -79 27l-309 14q-68 4 -117 37
q-68 -63 -74 -135q-14 -166 279 -166zM459 322q-80 0 -140 16q-45 -41 -49 -79t14 -53t58 -18l305 -16q105 -4 163 -64t47 -186t-139 -218q-128 -91 -330 -91t-297 64q-93 65 -83 166t131 173q-41 51 -33 131q10 125 162 209q-184 80 -164 285q12 139 121 230t292 91
t284 -102q84 72 188 121q-10 -104 -35 -180l-100 -25q23 -61 16 -139q-14 -141 -122 -228t-289 -87z" />
    <glyph glyph-name="Gbreve" unicode="&#x11e;" horiz-adv-x="1228" 
d="M775 1534q77 0 134 40t78 91h72q-17 -129 -99 -212t-202 -83t-186 83q-64 83 -54 212h70q6 -49 58 -90t129 -41zM838 1223q-197 0 -326 -161q-129 -160 -157 -436q-27 -276 63 -432t268 -157q88 0 141 37l29 317q6 45 -41 55l-90 23l12 59h473l-12 -59l-65 -27
q-39 -16 -43 -51l-29 -307q-162 -115 -429 -115t-415 176q-147 176 -119 473q28 298 219 486q190 188 464 188t407 -131q-23 -118 -82 -229h-92l-31 260q-45 31 -145 31z" />
    <glyph glyph-name="gbreve" unicode="&#x11f;" horiz-adv-x="968" 
d="M540 1243q71 0 125 44t76 104h64q-8 -139 -89 -225t-191 -87q-110 1 -174 87t-46 225h64q8 -57 54 -103t117 -45zM465 387q147 0 172 250q12 115 -20 187q-33 72 -107 73q-74 0 -117 -73t-55 -185q-25 -252 127 -252zM377 -313q155 -1 235 43t86 116q4 39 -21 64
q-26 25 -79 27l-309 14q-68 4 -117 37q-68 -63 -74 -135q-14 -166 279 -166zM459 322q-80 0 -140 16q-45 -41 -49 -79t14 -53t58 -18l305 -16q105 -4 163 -64t47 -186t-139 -218q-128 -91 -330 -91t-297 64q-93 65 -83 166t131 173q-41 51 -33 131q10 125 162 209
q-184 80 -164 285q12 139 121 230t292 91t284 -102q84 72 188 121q-10 -104 -35 -180l-100 -25q23 -61 16 -139q-14 -141 -122 -228t-289 -87z" />
    <glyph glyph-name="Gdotaccent" unicode="&#x120;" horiz-adv-x="1228" 
d="M838 1223q-197 0 -326 -161q-129 -160 -157 -436q-27 -276 63 -432t268 -157q88 0 141 37l29 317q6 45 -41 55l-90 23l12 59h473l-12 -59l-65 -27q-39 -16 -43 -51l-29 -307q-162 -115 -429 -115t-415 176q-147 176 -119 473q28 298 219 486q190 188 464 188t407 -131
q-23 -118 -82 -229h-92l-31 260q-45 31 -145 31zM783 1659q57 0 93 -37q36 -36 34 -104t-36 -105q-35 -37 -93 -37t-93 37t-34 106t36 105t93 35z" />
    <glyph glyph-name="gdotaccent" unicode="&#x121;" horiz-adv-x="968" 
d="M542 1366q56 0 91 -35t34 -101t-36 -104q-35 -36 -91 -36t-90 36t-33 104t35 102t90 34zM465 387q147 0 172 250q12 115 -20 187q-33 72 -107 73q-74 0 -117 -73t-55 -185q-25 -252 127 -252zM377 -313q155 -1 235 43t86 116q4 39 -21 64q-26 25 -79 27l-309 14
q-68 4 -117 37q-68 -63 -74 -135q-14 -166 279 -166zM459 322q-80 0 -140 16q-45 -41 -49 -79t14 -53t58 -18l305 -16q105 -4 163 -64t47 -186t-139 -218q-128 -91 -330 -91t-297 64q-93 65 -83 166t131 173q-41 51 -33 131q10 125 162 209q-184 80 -164 285q12 139 121 230
t292 91t284 -102q84 72 188 121q-10 -104 -35 -180l-100 -25q23 -61 16 -139q-14 -141 -122 -228t-289 -87z" />
    <glyph glyph-name="uni0122" unicode="&#x122;" horiz-adv-x="1228" 
d="M838 1223q-197 0 -326 -161q-129 -160 -157 -436q-27 -276 63 -432t268 -157q88 0 141 37l29 317q6 45 -41 55l-90 23l12 59h473l-12 -59l-65 -27q-39 -16 -43 -51l-29 -307q-162 -115 -429 -115t-415 176q-147 176 -119 473q28 298 219 486q190 188 464 188t407 -131
q-23 -118 -82 -229h-92l-31 260q-45 31 -145 31zM440 -639l-6 57q90 43 133 87t60 112q-141 8 -133 144t135 137q59 0 91 -40t28 -116q-8 -136 -90 -240t-218 -141z" />
    <glyph glyph-name="uni0123" unicode="&#x123;" horiz-adv-x="968" 
d="M514 1061q-59 0 -90 41t-23 117q13 135 99 239t223 141l4 -57q-92 -43 -136 -88t-65 -113q143 -4 129 -137q-14 -143 -141 -143zM465 387q147 0 172 250q12 115 -20 187q-33 72 -107 73q-74 0 -117 -73t-55 -185q-25 -252 127 -252zM377 -313q155 -1 235 43t86 116
q4 39 -21 64q-26 25 -79 27l-309 14q-68 4 -117 37q-68 -63 -74 -135q-14 -166 279 -166zM459 322q-80 0 -140 16q-45 -41 -49 -79t14 -53t58 -18l305 -16q105 -4 163 -64t47 -186t-139 -218q-128 -91 -330 -91t-297 64q-93 65 -83 166t131 173q-41 51 -33 131
q10 125 162 209q-184 80 -164 285q12 139 121 230t292 91t284 -102q84 72 188 121q-10 -104 -35 -180l-100 -25q23 -61 16 -139q-14 -141 -122 -228t-289 -87z" />
    <glyph glyph-name="Hcircumflex" unicode="&#x124;" horiz-adv-x="1314" 
d="M524 1356l-37 61q123 139 248 217h66q123 -90 205 -217l-48 -61l-208 100zM268 1126q4 45 -51 60l-55 16l12 60h451l-13 -60l-49 -18q-49 -16 -55 -30q-6 -13 -8 -28l-43 -432h471l41 432q4 45 -47 60l-56 16l11 60h450l-12 -60l-49 -18q-7 -4 -16 -6t-14 -6t-7 -4
q-2 -2 -11 -8t-10 -12q-2 -6 -4 -10q-2 -5 -2 -12l-94 -991q-4 -32 21 -46q9 -5 28 -11l55 -19l-12 -59h-450l12 59l49 17q59 16 63 59l46 486h-469l-48 -486q-4 -32 22 -46q9 -5 30 -11l53 -19l-10 -59h-451l12 59l50 17q59 16 63 59z" />
    <glyph glyph-name="hcircumflex" unicode="&#x125;" horiz-adv-x="1032" 
d="M371 1501l-37 62q123 139 248 217h65q123 -90 205 -217l-47 -62l-209 101zM760 963q94 1 125 -95t10 -307l-41 -407q-2 -27 7 -39t26 -9l100 25l14 -55q-33 -23 -132 -61t-140 -46q-117 10 -100 156l37 379q25 219 -3 276q-11 23 -34 23q-47 -1 -105 -59t-149 -175
l-56 -569l-223 -27l119 1235q6 53 -33 64l-84 20l13 58q145 41 292 55h35q12 -64 4 -164l-55 -557q103 131 191 205t182 74z" />
    <glyph glyph-name="Hbar" unicode="&#x126;" horiz-adv-x="1320" 
d="M481 909l-20 -215h471l20 215h-471zM973 1126q4 45 -47 60l-56 16l11 60h450l-12 -60l-49 -18q-9 -5 -17 -6q-8 -2 -13 -6t-7 -4q-2 -2 -11 -8t-10 -12q-2 -6 -4 -10q-2 -5 -2 -12l-14 -143h102l-8 -74h-100l-74 -774q-4 -33 22 -46q9 -5 27 -11l56 -19l-13 -59h-450
l12 59l49 17q59 16 64 59l45 486h-469l-47 -486q-4 -32 21 -46q9 -5 30 -11l53 -19l-10 -59h-451l12 59l50 17q59 16 63 59l74 774h-105l7 74h106l14 143q4 45 -51 60l-55 16l12 60h451l-13 -60l-49 -18q-49 -16 -55 -30q-6 -13 -8 -28l-15 -143h469z" />
    <glyph glyph-name="hbar" unicode="&#x127;" horiz-adv-x="1032" 
d="M760 963q94 1 125 -95t10 -307l-41 -407q-2 -27 7 -39t26 -9l100 25l14 -55q-33 -23 -132 -61t-140 -46q-117 10 -100 156l37 379q25 219 -3 276q-11 23 -34 23q-47 -1 -105 -59t-149 -175l-56 -569l-223 -27l105 1102h-111l8 70h111l6 63q6 53 -33 64l-84 20l13 58
q145 41 292 55h35q12 -64 4 -164l-10 -96h299l-8 -70h-297l-39 -391q103 131 191 205t182 74z" />
    <glyph glyph-name="Itilde" unicode="&#x128;" horiz-adv-x="612" 
d="M310 1626q62 0 140 -40t121 -40q66 0 84 68h66q-10 -110 -55 -176q-44 -66 -114 -66t-145 44t-131 44t-75 -55h-64q7 97 59 159t114 62zM268 1126q4 45 -51 60l-55 16l12 60h451l-13 -60l-49 -18q-49 -16 -55 -30q-6 -13 -8 -28l-97 -991q-4 -32 22 -46q9 -5 30 -11
l53 -19l-10 -59h-451l12 59l50 17q59 16 63 59z" />
    <glyph glyph-name="itilde" unicode="&#x129;" horiz-adv-x="559" 
d="M223 1348q59 0 131 -40t113 -40q68 0 86 69h59q-2 -100 -50 -175t-128 -75q-55 -1 -124 45t-111 46q-64 0 -95 -74h-57q9 102 63 173t113 71zM512 76q-150 -82 -270 -107q-49 11 -79 55t-24 105l64 637q6 51 -33 63l-84 19l10 57q127 37 295 58h33q12 -63 4 -164
l-63 -645q-2 -27 7 -39t25 -9l101 25z" />
    <glyph glyph-name="Imacron" unicode="&#x12a;" horiz-adv-x="612" 
d="M139 1438l17 164h512l-15 -164h-514zM268 1126q4 45 -51 60l-55 16l12 60h451l-13 -60l-49 -18q-49 -16 -55 -30q-6 -13 -8 -28l-97 -991q-4 -32 22 -46q9 -5 30 -11l53 -19l-10 -59h-451l12 59l50 17q59 16 63 59z" />
    <glyph glyph-name="imacron" unicode="&#x12b;" horiz-adv-x="559" 
d="M63 1116l17 164h512l-14 -164h-515zM512 76q-150 -82 -270 -107q-49 11 -79 55t-24 105l64 637q6 51 -33 63l-84 19l10 57q127 37 295 58h33q12 -63 4 -164l-63 -645q-2 -27 7 -39t25 -9l101 25z" />
    <glyph glyph-name="uni012C" unicode="&#x12c;" horiz-adv-x="612" 
d="M425 1534q77 0 134 40t78 91h72q-17 -129 -99 -212t-202 -83t-186 83q-64 83 -54 212h70q6 -49 58 -90t129 -41zM268 1126q4 45 -51 60l-55 16l12 60h451l-13 -60l-49 -18q-49 -16 -55 -30q-6 -13 -8 -28l-97 -991q-4 -32 22 -46q9 -5 30 -11l53 -19l-10 -59h-451l12 59
l50 17q59 16 63 59z" />
    <glyph glyph-name="uni012D" unicode="&#x12d;" horiz-adv-x="559" 
d="M333 1241q71 0 125 44t77 104h63q-8 -139 -89 -225t-191 -87q-110 1 -174 87t-46 225h64q8 -57 54 -103t117 -45zM512 76q-150 -82 -270 -107q-49 11 -79 55t-24 105l64 637q6 51 -33 63l-84 19l10 57q127 37 295 58h33q12 -63 4 -164l-63 -645q-2 -27 7 -39t25 -9
l101 25z" />
    <glyph glyph-name="Iogonek" unicode="&#x12e;" horiz-adv-x="610" 
d="M383 -320q43 0 78 27l20 -43q-68 -68 -180 -67q-76 0 -127 50t-43 132q12 145 223 221h-307l12 59l50 17q59 16 63 59l96 991q4 45 -51 60l-55 16l12 60h451l-13 -60l-49 -18q-49 -16 -55 -30q-6 -13 -8 -28l-97 -991q-4 -32 22 -46q9 -5 30 -11l53 -19l-10 -59
q-186 -76 -197 -209q-5 -49 17 -80t65 -31z" />
    <glyph glyph-name="iogonek" unicode="&#x12f;" horiz-adv-x="561" 
d="M348 1126q-59 0 -100 40t-39 106q0 66 41 106t100 39q60 0 100 -40t40 -104t-41 -106q-42 -41 -101 -41zM346 -269q42 0 78 27l20 -43q-68 -68 -180 -67q-76 0 -127 50t-43 140t101 152q-63 45 -56 139l64 637q6 51 -33 63l-84 19l10 57q127 37 295 58h33q12 -63 4 -164
l-63 -645q-2 -27 7 -39t25 -9l101 25l14 -55q-86 -45 -129 -64q-113 -66 -119 -170q-4 -49 18 -80t64 -31z" />
    <glyph glyph-name="Idotaccent" unicode="&#x130;" horiz-adv-x="612" 
d="M418 1659q57 0 92 -37q35 -36 34 -104t-36 -105t-93 -37t-93 37t-35 105q4 141 131 141zM268 1126q4 45 -51 60l-55 16l12 60h451l-13 -60l-49 -18q-49 -16 -55 -30q-6 -13 -8 -28l-97 -991q-4 -32 22 -46q9 -5 30 -11l53 -19l-10 -59h-451l12 59l50 17q59 16 63 59z" />
    <glyph glyph-name="dotlessi" unicode="&#x131;" horiz-adv-x="561" 
d="M512 76q-150 -82 -270 -107q-49 11 -79 55t-24 105l64 637q6 51 -33 63l-84 19l10 57q127 37 295 58h33q12 -63 4 -164l-63 -645q-2 -27 7 -39t25 -9l101 25z" />
    <glyph glyph-name="IJ" unicode="&#x132;" horiz-adv-x="1118" 
d="M920 68q-18 -190 -132 -308t-317 -143l-8 64q55 27 81 43t60 52q59 63 76 238l108 1112q2 27 -10 40t-39 20l-55 16l12 60h451l-12 -60l-50 -18q-8 -4 -16 -6t-13 -6t-7 -4q-3 -1 -7 -4t-6 -5t-5 -6t-4 -7t-3 -8t-2 -12zM268 1126q4 45 -51 60l-55 16l12 60h451l-13 -60
l-49 -18q-49 -16 -55 -30q-6 -13 -8 -28l-97 -991q-4 -32 22 -46q9 -5 30 -11l53 -19l-10 -59h-451l12 59l50 17q59 16 63 59z" />
    <glyph glyph-name="ij" unicode="&#x133;" horiz-adv-x="1036" 
d="M879 57q-17 -184 -123 -300t-305 -140l-15 59q53 27 80 45q27 17 61 55q60 66 76 238l74 752q4 51 -35 63l-86 19l10 57q127 37 297 58h35q14 -70 2 -164zM870 1126q-59 0 -100 40t-39 106q0 66 41 106t100 39q60 0 100 -40t40 -104t-41 -106q-42 -41 -101 -41zM512 76
q-150 -82 -270 -107q-49 11 -79 55t-24 105l64 637q6 51 -33 63l-84 19l10 57q127 37 295 58h33q12 -63 4 -164l-63 -645q-2 -27 7 -39t25 -9l101 25zM348 1126q-59 0 -100 40t-39 106q0 66 41 106t100 39q60 0 100 -40t40 -104t-41 -106q-42 -41 -101 -41z" />
    <glyph glyph-name="Jcircumflex" unicode="&#x134;" horiz-adv-x="589" 
d="M170 1356l-37 61q123 139 248 217h65q123 -90 205 -217l-47 -61l-209 100zM389 68q-18 -190 -131 -308t-317 -143l-9 64q55 27 81 43t60 52q59 63 77 238l108 1112q2 27 -10 40t-39 20l-55 16l12 60h450l-12 -60l-49 -18q-8 -4 -16 -6q-7 -2 -13 -6t-8 -4q-2 -1 -6 -4
t-6 -5t-5 -6t-4 -7t-3 -8t-2 -12z" />
    <glyph glyph-name="jcircumflex" unicode="&#x135;" horiz-adv-x="509" 
d="M43 1112q135 213 270 334h66q121 -137 205 -334l-49 -45l-207 190l-242 -190zM354 57q-18 -184 -124 -300t-304 -140l-14 59q53 27 80 45q26 17 60 55q58 65 77 238l74 752q4 51 -35 63l-86 19l10 57q127 37 297 58h35q14 -70 2 -164z" />
    <glyph glyph-name="uni0136" unicode="&#x136;" horiz-adv-x="1153" 
d="M430 -639l-6 57q90 43 133 87t59 112q-141 8 -133 144t135 137q60 0 92 -40t27 -116q-8 -136 -90 -240t-217 -141zM268 1126q4 45 -51 60l-55 16l12 60h451l-13 -60l-49 -18q-49 -16 -55 -30q-6 -13 -8 -28l-47 -473l481 475q32 32 15 51q-7 7 -21 9l-84 14l10 60h352
l-10 -60l-88 -20q-37 -15 -50 -28q-12 -14 -26 -26t-18 -16l-301 -299l297 -612q55 -115 135 -142l-10 -59h-316l-301 618l-76 -73l-39 -410q-1 -27 11 -38t41 -19l53 -19l-10 -59h-451l12 59l50 17q59 16 63 59z" />
    <glyph glyph-name="uni0137" unicode="&#x137;" horiz-adv-x="1001" 
d="M307 -639l-6 57q90 43 133 87t60 112q-142 8 -134 144t136 137q59 0 91 -40t27 -116q-8 -136 -90 -240t-217 -141zM633 858q-121 0 -256 -262l-58 -596l-223 -27l119 1235q6 53 -33 64l-84 20l11 58q152 41 294 55h33q12 -64 4 -164l-49 -504q145 225 330 226
q98 1 164 -55q65 -56 65 -162t-79 -202q-79 -97 -230 -149l127 -205q59 -84 123 -92l67 21l21 -51q-106 -63 -252 -99q-109 25 -180 154l-111 213l8 55l74 37q190 96 191 311q0 57 -24 88t-52 31z" />
    <glyph glyph-name="kgreenlandic" unicode="&#x138;" horiz-adv-x="1067" 
d="M193 762q6 55 -27 65l-66 23l13 57q147 45 266 56h39q14 -57 4 -142l-31 -311l373 287q53 45 -27 61l-75 12l10 62h356l-10 -62l-55 -10q-47 -11 -103 -61q-57 -50 -97 -80t-130 -101l207 -419q47 -92 102 -105l90 33l19 -51q-106 -70 -260 -107q-98 20 -168 166
l-160 352l-80 -63l-43 -424l-223 -27z" />
    <glyph glyph-name="Lacute" unicode="&#x139;" horiz-adv-x="972" 
d="M680 1460l-412 -98l-18 65q53 70 174 138t227 90zM621 74q70 0 92 49l123 239h92q-10 -176 -74 -362h-807l12 59l50 17q59 16 63 59l96 991q4 45 -51 60l-55 16l12 60h451l-13 -60l-49 -18q-49 -16 -55 -30q-6 -13 -8 -28l-101 -1052h222z" />
    <glyph glyph-name="lacute" unicode="&#x13a;" horiz-adv-x="536" 
d="M494 76q-156 -84 -273 -107q-49 11 -80 55t-22 105l106 1079q6 53 -32 64l-84 20l12 58q147 41 293 55h35q10 -66 2 -164l-107 -1087q-2 -27 7 -39t26 -9l100 25zM512 1559l-412 -99l-18 66q53 70 174 138t227 89z" />
    <glyph glyph-name="uni013B" unicode="&#x13b;" horiz-adv-x="972" 
d="M301 -639l-6 57q90 43 133 87t59 112q-141 8 -133 144t135 137q59 0 91 -40t28 -116q-8 -136 -90 -240t-217 -141zM621 74q70 0 92 49l123 239h92q-10 -176 -74 -362h-807l12 59l50 17q59 16 63 59l96 991q4 45 -51 60l-55 16l12 60h451l-13 -60l-49 -18q-49 -16 -55 -30
q-6 -13 -8 -28l-101 -1052h222z" />
    <glyph glyph-name="uni013C" unicode="&#x13c;" horiz-adv-x="538" 
d="M494 76q-156 -84 -273 -107q-49 11 -80 55t-22 105l106 1079q6 53 -32 64l-84 20l12 58q147 41 293 55h35q10 -66 2 -164l-107 -1087q-2 -27 7 -39t26 -9l100 25zM35 -639l-6 57q90 43 133 87t59 112q-141 8 -133 144t135 137q59 0 91 -40t28 -116q-8 -136 -90 -240
t-217 -141z" />
    <glyph glyph-name="Lcaron" unicode="&#x13d;" horiz-adv-x="980" 
d="M854 1278q59 0 90 -41t23 -117q-13 -134 -99 -240t-221 -141l-4 60q90 43 134 87t65 109q-141 10 -131 140q8 71 46 107t97 36zM621 74q70 0 92 49l123 239h92q-10 -176 -74 -362h-807l12 59l50 17q59 16 63 59l96 991q4 45 -51 60l-55 16l12 60h451l-13 -60l-49 -18
q-49 -16 -55 -30q-6 -13 -8 -28l-101 -1052h222z" />
    <glyph glyph-name="lcaron" unicode="&#x13e;" horiz-adv-x="622" 
d="M494 76q-156 -84 -273 -107q-49 11 -80 55t-22 105l106 1079q6 53 -32 64l-84 20l12 58q147 41 293 55h35q10 -66 2 -164l-107 -1087q-2 -27 7 -39t26 -9l100 25zM481 803l-4 59q90 43 134 87t65 110q-141 10 -131 139q8 72 46 108t97 36t90 -42q31 -41 23 -116
q-13 -134 -99 -240t-221 -141z" />
    <glyph glyph-name="Ldot" unicode="&#x13f;" horiz-adv-x="995" 
d="M786 834q125 0 125 -142q-1 -68 -35 -104t-94 -37q-60 1 -93 37q-34 36 -34 105t35 105t96 36zM621 74q70 0 92 49l123 239h92q-10 -176 -74 -362h-807l12 59l50 17q59 16 63 59l96 991q4 45 -51 60l-55 16l12 60h451l-13 -60l-49 -18q-49 -16 -55 -30q-6 -13 -8 -28
l-101 -1052h222z" />
    <glyph glyph-name="ldot" unicode="&#x140;" horiz-adv-x="641" 
d="M606 848q125 0 125 -141q0 -68 -35 -105t-94 -37t-93 37t-34 106q0 68 35 104t96 36zM494 76q-156 -84 -273 -107q-49 11 -80 55t-22 105l106 1079q6 53 -32 64l-84 20l12 58q147 41 293 55h35q10 -66 2 -164l-107 -1087q-2 -27 7 -39t26 -9l100 25z" />
    <glyph glyph-name="Lslash" unicode="&#x141;" horiz-adv-x="978" 
d="M625 74q70 0 92 49l123 239h92q-10 -176 -74 -362h-807l12 59l50 17q59 16 63 59l35 359l-113 -84l11 110l112 84l51 522q4 45 -51 60l-55 16l12 60h451l-13 -60l-49 -18q-49 -16 -55 -30q-6 -13 -8 -28l-35 -370l223 164l-10 -109l-223 -166l-56 -571h222z" />
    <glyph glyph-name="lslash" unicode="&#x142;" horiz-adv-x="557" 
d="M59 500l13 102l123 92l51 514q6 53 -33 64l-84 20l12 58q147 41 293 55h35q10 -66 2 -164l-41 -407l133 100l-14 -100l-127 -97l-57 -583q-2 -27 7 -39t25 -9l101 25l16 -55q-156 -84 -272 -107q-49 11 -80 55t-23 105l45 467z" />
    <glyph glyph-name="Nacute" unicode="&#x143;" horiz-adv-x="1290" 
d="M1047 1460l-412 -98l-19 65q52 70 174 138t228 90zM866 0l-538 1057l-88 -922q-3 -27 13 -36q17 -9 40 -15l82 -25l-13 -59h-315l10 59l54 21q57 20 61 55l98 1024q-45 35 -102 43l10 60h326l534 -1026l86 888q2 16 -6 28t-18 17q-10 4 -33 11l-76 22l10 60h316l-10 -60
l-56 -20q-35 -14 -46 -27q-11 -12 -13 -31l-109 -1124h-217z" />
    <glyph glyph-name="nacute" unicode="&#x144;" horiz-adv-x="1060" 
d="M877 1305l-312 -256l-49 41q31 96 95 194q65 98 134 162zM788 963q94 1 125 -95t11 -307l-41 -407q-2 -27 7 -39t25 -9l101 25l14 -55q-33 -23 -132 -61t-140 -46q-117 10 -101 156l37 379q26 223 -3 276q-11 23 -34 23q-47 1 -106 -59t-148 -177l-55 -567l-223 -27
l76 791q4 53 -35 63l-82 21l12 57q123 37 293 58h35q14 -70 2 -164l-12 -117q106 133 193 207t181 74z" />
    <glyph glyph-name="uni0145" unicode="&#x145;" horiz-adv-x="1290" 
d="M446 -639l-6 57q90 43 133 87t60 112q-141 8 -133 144t135 137q59 0 91 -40t28 -116q-8 -135 -90 -240q-83 -104 -218 -141zM866 0l-538 1057l-88 -922q-3 -27 13 -36q17 -9 40 -15l82 -25l-13 -59h-315l10 59l54 21q57 20 61 55l98 1024q-45 35 -102 43l10 60h326
l534 -1026l86 888q2 16 -6 28t-18 17q-10 4 -33 11l-76 22l10 60h316l-10 -60l-56 -20q-35 -14 -46 -27q-11 -12 -13 -31l-109 -1124h-217z" />
    <glyph glyph-name="uni0146" unicode="&#x146;" horiz-adv-x="1060" 
d="M332 -639l-6 57q90 43 133 87t59 112q-141 8 -133 144t135 137q59 0 91 -40t28 -116q-8 -136 -90 -240t-217 -141zM788 963q94 1 125 -95t11 -307l-41 -407q-2 -27 7 -39t25 -9l101 25l14 -55q-33 -23 -132 -61t-140 -46q-117 10 -101 156l37 379q26 223 -3 276
q-11 23 -34 23q-47 1 -106 -59t-148 -177l-55 -567l-223 -27l76 791q4 53 -35 63l-82 21l12 57q123 37 293 58h35q14 -70 2 -164l-12 -117q106 133 193 207t181 74z" />
    <glyph glyph-name="Ncaron" unicode="&#x147;" horiz-adv-x="1290" 
d="M592 1653l205 -99l229 99l35 -62q-111 -131 -246 -215h-67q-106 78 -205 215zM866 0l-538 1057l-88 -922q-3 -27 13 -36q17 -9 40 -15l82 -25l-13 -59h-315l10 59l54 21q57 20 61 55l98 1024q-45 35 -102 43l10 60h326l534 -1026l86 888q2 16 -6 28t-18 17q-10 4 -33 11
l-76 22l10 60h316l-10 -60l-56 -20q-35 -14 -46 -27q-11 -12 -13 -31l-109 -1124h-217z" />
    <glyph glyph-name="ncaron" unicode="&#x148;" horiz-adv-x="1060" 
d="M373 1399l51 43l205 -189l243 189l43 -45q-121 -193 -270 -334h-65q-119 133 -207 336zM788 963q94 1 125 -95t11 -307l-41 -407q-2 -27 7 -39t25 -9l101 25l14 -55q-33 -23 -132 -61t-140 -46q-117 10 -101 156l37 379q26 223 -3 276q-11 23 -34 23q-47 1 -106 -59
t-148 -177l-55 -567l-223 -27l76 791q4 53 -35 63l-82 21l12 57q123 37 293 58h35q14 -70 2 -164l-12 -117q106 133 193 207t181 74z" />
    <glyph glyph-name="napostrophe" unicode="&#x149;" horiz-adv-x="1335" 
d="M68 803l-5 59q90 43 135 87q44 44 64 110q-141 10 -131 139q8 72 46 108t97 36q58 0 90 -42q32 -41 23 -116q-14 -134 -99 -240t-220 -141zM1061 963q94 1 125 -95t10 -307l-41 -407q-2 -27 7 -39t26 -9l100 25l15 -55q-33 -23 -133 -61t-140 -46q-117 10 -100 156
l37 379q25 219 -3 276q-11 23 -34 23q-46 1 -106 -59t-148 -177l-55 -567l-224 -27l76 791q4 53 -35 63l-82 21l13 57q123 37 293 58h34q14 -70 2 -164l-12 -117q106 133 194 207t181 74z" />
    <glyph glyph-name="Eng" unicode="&#x14a;" horiz-adv-x="1310" 
d="M864 0l-538 1057l-88 -922q-3 -27 13 -36q17 -9 40 -15l82 -25l-13 -59h-315l10 59l54 21q57 20 61 55l98 1024q-45 35 -102 43l10 60h326l534 -1026l86 888q2 16 -6 28t-18 17q-10 4 -33 11l-76 22l10 60h316l-10 -60l-56 -20q-35 -14 -46 -27q-11 -12 -13 -31
l-109 -1128q-33 -334 -376 -379l-5 57q80 20 126 38t90 54q82 67 98 234h-150z" />
    <glyph glyph-name="eng" unicode="&#x14b;" horiz-adv-x="1003" 
d="M655 803q-50 0 -115 -71t-139 -167l-55 -565l-223 -27l76 791q4 53 -35 63l-82 21l12 57q123 37 293 58h35q14 -70 2 -164l-12 -121q106 135 193 210t182 75q95 -1 125 -95t10 -307l-50 -504q-18 -183 -126 -299t-306 -141l-12 59q53 27 80 45q82 55 112 151
q17 58 25 142l49 490q26 223 -3 276q-11 23 -36 23z" />
    <glyph glyph-name="Omacron" unicode="&#x14c;" horiz-adv-x="1282" 
d="M508 1423l16 164h480l-17 -164h-479zM613 35q144 0 245 165q100 165 125 428t-41 430t-210 167t-246 -164t-129 -424q-26 -260 43 -431t213 -171zM608 -31q-256 0 -397 174q-141 173 -111 481t207 488q176 180 428 180t393 -174q140 -174 110 -485t-202 -487t-428 -177z
" />
    <glyph glyph-name="omacron" unicode="&#x14d;" horiz-adv-x="987" 
d="M461 29q188 0 229 436t-141 436t-224 -436t136 -436zM457 -31q-197 0 -297 133q-100 134 -78 364t147 363t323 133t300 -134t82 -363t-150 -363t-327 -133zM301 1116l16 164h512l-14 -164h-514z" />
    <glyph glyph-name="Obreve" unicode="&#x14e;" horiz-adv-x="1282" 
d="M765 1534q77 0 134 40t78 91h72q-17 -129 -99 -212t-202 -83t-186 83q-64 83 -54 212h70q6 -49 58 -90t129 -41zM613 35q144 0 245 165q100 165 125 428t-41 430t-210 167t-246 -164t-129 -424q-26 -260 43 -431t213 -171zM608 -31q-256 0 -397 174q-141 173 -111 481
t207 488q176 180 428 180t393 -174q140 -174 110 -485t-202 -487t-428 -177z" />
    <glyph glyph-name="obreve" unicode="&#x14f;" horiz-adv-x="987" 
d="M568 1241q70 0 125 44q54 44 77 104h64q-8 -139 -90 -225t-190 -87q-110 1 -174 87t-46 225h63q9 -57 55 -103t116 -45zM461 29q188 0 229 436t-141 436t-224 -436t136 -436zM457 -31q-197 0 -297 133q-100 134 -78 364t147 363t323 133t300 -134t82 -363t-150 -363
t-327 -133z" />
    <glyph glyph-name="Ohungarumlaut" unicode="&#x150;" horiz-adv-x="1282" 
d="M613 35q144 0 245 165q100 165 125 428t-41 430t-210 167t-246 -164t-129 -424q-26 -260 43 -431t213 -171zM608 -31q-256 0 -397 174q-141 173 -111 481t207 488q176 180 428 180t393 -174q140 -174 110 -485t-202 -487t-428 -177zM752 1397q45 199 118 319l164 -82
l-194 -264zM485 1397q47 197 119 319l164 -82l-195 -264z" />
    <glyph glyph-name="ohungarumlaut" unicode="&#x151;" horiz-adv-x="987" 
d="M461 29q188 0 229 436t-141 436t-224 -436t136 -436zM457 -31q-197 0 -297 133q-100 134 -78 364t147 363t323 133t300 -134t82 -363t-150 -363t-327 -133zM610 1090q57 248 125 358l162 -82l-199 -303zM344 1090q61 250 125 358l162 -82l-199 -303z" />
    <glyph glyph-name="OE" unicode="&#x152;" horiz-adv-x="1732" 
d="M630 35q150 0 267 115l94 972q-85 102 -241 102t-262 -162q-106 -163 -131 -424t49 -432t224 -171zM602 -31q-254 0 -393 174q-139 175 -109 481t209 487q178 181 432 181q88 0 181 -30h788q10 -111 -22 -295h-84l-52 166q-20 55 -90 55h-233l-47 -504h209q39 0 59 47
l49 115h78l-55 -397h-70l-25 120q-12 41 -45 41h-208l-52 -536h258q70 0 93 49l92 176h88q-6 -184 -45 -299h-809q-92 -31 -197 -31z" />
    <glyph glyph-name="oe" unicode="&#x153;" horiz-adv-x="1525" 
d="M1149 895q-82 0 -141 -130t-66 -321q115 33 208 109t93 195q0 63 -25 105q-26 42 -69 42zM461 29q188 0 229 436t-141 436t-224 -436t136 -436zM457 -31q-197 0 -297 133q-100 134 -78 364t147 363t322 133t299 -131q127 131 315 132q141 0 231 -70t91 -169
q0 -99 -79 -173q-143 -133 -466 -180q8 -135 68 -213t144 -78q83 0 140 36t125 109l47 -45q-156 -211 -368 -211t-316 133q-128 -133 -325 -133z" />
    <glyph glyph-name="Racute" unicode="&#x154;" horiz-adv-x="1110" 
d="M868 1460l-411 -98l-19 65q53 70 174 138t228 90zM602 1188h-96l-57 -584h114q209 0 237 292t-198 292zM612 1262q230 0 352 -90t103 -273q-25 -246 -266 -336l117 -323q28 -74 60 -117t89 -64l-12 -59h-146q-109 0 -155 31t-82 145l-113 352h-117l-39 -393
q-2 -47 52 -57l96 -19l-10 -59h-494l12 59l50 17q59 16 63 59l96 991q4 45 -51 60l-55 16l12 60h438z" />
    <glyph glyph-name="racute" unicode="&#x155;" horiz-adv-x="770" 
d="M682 1303l-311 -256l-49 40q32 97 96 195t133 162zM656 963q92 0 153 -60q-23 -131 -84 -256h-76l-18 191q-25 8 -41 8q-84 0 -168 -90l-74 -756l-223 -27l74 789q6 53 -27 65l-84 23l10 57q119 35 287 56h37q12 -45 8 -121q134 121 226 121z" />
    <glyph glyph-name="uni0156" unicode="&#x156;" horiz-adv-x="1110" 
d="M389 -639l-6 57q90 43 133 87t59 112q-141 8 -133 144t136 137q59 0 91 -40t27 -116q-8 -136 -90 -240t-217 -141zM602 1188h-96l-57 -584h114q209 0 237 292t-198 292zM612 1262q230 0 352 -90t103 -273q-25 -246 -266 -336l117 -323q28 -74 60 -117t89 -64l-12 -59
h-146q-109 0 -155 31t-82 145l-113 352h-117l-39 -393q-2 -47 52 -57l96 -19l-10 -59h-494l12 59l50 17q59 16 63 59l96 991q4 45 -51 60l-55 16l12 60h438z" />
    <glyph glyph-name="uni0157" unicode="&#x157;" horiz-adv-x="770" 
d="M35 -639l-6 57q90 43 133 87t59 112q-141 8 -133 144t135 137q59 0 91 -40t28 -116q-8 -136 -90 -240t-217 -141zM656 963q92 0 153 -60q-23 -131 -84 -256h-76l-18 191q-25 8 -41 8q-84 0 -168 -90l-74 -756l-223 -27l74 789q6 53 -27 65l-84 23l10 57q119 35 287 56h37
q12 -45 8 -121q134 121 226 121z" />
    <glyph glyph-name="Rcaron" unicode="&#x158;" horiz-adv-x="1110" 
d="M457 1653l205 -99l229 99l35 -62q-111 -131 -246 -215h-68q-106 78 -204 215zM602 1188h-96l-57 -584h114q209 0 237 292t-198 292zM612 1262q230 0 352 -90t103 -273q-25 -246 -266 -336l117 -323q28 -74 60 -117t89 -64l-12 -59h-146q-109 0 -155 31t-82 145l-113 352
h-117l-39 -393q-2 -47 52 -57l96 -19l-10 -59h-494l12 59l50 17q59 16 63 59l96 991q4 45 -51 60l-55 16l12 60h438z" />
    <glyph glyph-name="rcaron" unicode="&#x159;" horiz-adv-x="770" 
d="M213 1397l51 43l205 -189l244 189l43 -45q-121 -193 -271 -334h-65q-119 133 -207 336zM656 963q92 0 153 -60q-23 -131 -84 -256h-76l-18 191q-25 8 -41 8q-84 0 -168 -90l-74 -756l-223 -27l74 789q6 53 -27 65l-84 23l10 57q119 35 287 56h37q12 -45 8 -121
q134 121 226 121z" />
    <glyph glyph-name="Sacute" unicode="&#x15a;" horiz-adv-x="944" 
d="M838 1460l-412 -98l-18 65q53 70 174 138t227 90zM403 37q211 0 234 190q11 133 -167 266q-76 56 -150 118q-74 63 -121 151t-37 192q14 156 133 247t293 91q94 0 188 -26t152 -66q-23 -145 -78 -256h-90l-31 260q-51 20 -137 20t-135 -58t-57 -138t41 -152
q50 -72 125 -127q75 -53 150 -111t124 -139t39 -182q-13 -164 -143 -256t-320 -92q-109 0 -213 28t-164 77q17 145 70 256h92l39 -262q61 -31 163 -31z" />
    <glyph glyph-name="sacute" unicode="&#x15b;" horiz-adv-x="815" 
d="M475 963q76 0 158 -25t135 -64q-18 -111 -74 -208h-73l-21 208q-45 23 -104 23q-58 0 -96 -33t-43 -90q-9 -101 138 -200q60 -40 120 -82q61 -42 101 -106q40 -62 32 -138q-12 -131 -122 -205t-274 -74q-215 0 -325 105q24 109 75 207h78l19 -220q49 -29 138 -29t133 39
q44 38 49 89t-36 95t-101 83t-121 83q-60 44 -99 114t-31 155q13 123 107 198t237 75zM741 1305l-311 -256l-49 41q31 96 95 194q65 98 134 162z" />
    <glyph glyph-name="Scircumflex" unicode="&#x15c;" horiz-adv-x="944" 
d="M385 1356l-37 61q123 139 248 217h66q123 -90 204 -217l-47 -61l-209 100zM403 37q211 0 234 190q11 133 -167 266q-76 56 -150 118q-74 63 -121 151t-37 192q14 156 133 247t293 91q94 0 188 -26t152 -66q-23 -145 -78 -256h-90l-31 260q-51 20 -137 20t-135 -58
t-57 -138t41 -152q50 -72 125 -127q75 -53 150 -111t124 -139t39 -182q-13 -164 -143 -256t-320 -92q-109 0 -213 28t-164 77q17 145 70 256h92l39 -262q61 -31 163 -31z" />
    <glyph glyph-name="scircumflex" unicode="&#x15d;" horiz-adv-x="817" 
d="M475 963q76 0 158 -25t135 -64q-18 -111 -74 -208h-73l-21 208q-45 23 -104 23q-58 0 -96 -33t-43 -90q-9 -101 138 -200q60 -40 120 -82q61 -42 101 -106q40 -62 32 -138q-12 -131 -122 -205t-274 -74q-215 0 -325 105q24 109 75 207h78l19 -220q49 -29 138 -29t133 39
q44 38 49 89t-36 95t-101 83t-121 83q-60 44 -99 114t-31 155q13 123 107 198t237 75zM229 1114q135 213 271 334h65q121 -137 205 -334l-49 -45l-207 191l-242 -191z" />
    <glyph glyph-name="Scedilla" unicode="&#x15e;" horiz-adv-x="944" 
d="M285 -639l-6 57q90 43 133 87t59 112q-141 8 -133 144t135 137q59 0 91 -40t28 -116q-8 -136 -90 -240t-217 -141zM403 37q211 0 234 190q11 133 -167 266q-76 56 -150 118q-74 63 -121 151t-37 192q14 156 133 247t293 91q94 0 188 -26t152 -66q-23 -145 -78 -256h-90
l-31 260q-51 20 -137 20t-135 -58t-57 -138t41 -152q50 -72 125 -127q75 -53 150 -111t124 -139t39 -182q-13 -164 -143 -256t-320 -92q-109 0 -213 28t-164 77q17 145 70 256h92l39 -262q61 -31 163 -31z" />
    <glyph glyph-name="scedilla" unicode="&#x15f;" horiz-adv-x="815" 
d="M176 -639l-6 57q90 43 133 87t59 112q-141 8 -133 144t136 137q59 0 91 -40t27 -116q-8 -136 -90 -240t-217 -141zM475 963q76 0 158 -25t135 -64q-18 -111 -74 -208h-73l-21 208q-45 23 -104 23q-58 0 -96 -33t-43 -90q-9 -101 138 -200q60 -40 120 -82q61 -42 101 -106
q40 -62 32 -138q-12 -131 -122 -205t-274 -74q-215 0 -325 105q24 109 75 207h78l19 -220q49 -29 138 -29t133 39q44 38 49 89t-36 95t-101 83t-121 83q-60 44 -99 114t-31 155q13 123 107 198t237 75z" />
    <glyph glyph-name="Scaron" unicode="&#x160;" horiz-adv-x="944" 
d="M412 1653l204 -99l230 99l35 -62q-111 -131 -246 -215h-68q-106 78 -205 215zM403 37q211 0 234 190q11 133 -167 266q-76 56 -150 118q-74 63 -121 151t-37 192q14 156 133 247t293 91q94 0 188 -26t152 -66q-23 -145 -78 -256h-90l-31 260q-51 20 -137 20t-135 -58
t-57 -138t41 -152q50 -72 125 -127q75 -53 150 -111t124 -139t39 -182q-13 -164 -143 -256t-320 -92q-109 0 -213 28t-164 77q17 145 70 256h92l39 -262q61 -31 163 -31z" />
    <glyph glyph-name="scaron" unicode="&#x161;" horiz-adv-x="817" 
d="M475 963q76 0 158 -25t135 -64q-18 -111 -74 -208h-73l-21 208q-45 23 -104 23q-58 0 -96 -33t-43 -90q-9 -101 138 -200q60 -40 120 -82q61 -42 101 -106q40 -62 32 -138q-12 -131 -122 -205t-274 -74q-215 0 -325 105q24 109 75 207h78l19 -220q49 -29 138 -29t133 39
q44 38 49 89t-36 95t-101 83t-121 83q-60 44 -99 114t-31 155q13 123 107 198t237 75zM252 1399l51 43l205 -189l244 189l43 -45q-121 -193 -271 -334h-65q-119 133 -207 336z" />
    <glyph glyph-name="uni0162" unicode="&#x162;" horiz-adv-x="1046" 
d="M289 -639l-6 57q90 43 133 87t59 112q-141 8 -133 144t135 137q59 0 91 -40t28 -116q-8 -136 -90 -240t-217 -141zM850 1188h-123l-100 -1053q-4 -45 51 -57l86 -19l-10 -59h-514l12 59l80 17q57 14 61 59l103 1053h-127q-66 0 -105 -74l-92 -168l-59 12q4 168 53 304
h903q20 -137 -4 -304l-68 -12l-57 170q-25 72 -90 72z" />
    <glyph glyph-name="uni0163" unicode="&#x163;" horiz-adv-x="585" 
d="M436 82q25 0 119 20l-14 -71q-90 -61 -203 -62q-223 0 -199 258l62 629h-109l10 59q113 27 185 99t116 196h54l-27 -278h164l-10 -76h-162l-62 -641q-10 -133 76 -133zM104 -639l-6 57q90 43 133 87t60 112q-141 8 -133 144t135 137q59 0 91 -40t28 -116
q-8 -135 -90 -240q-83 -104 -218 -141z" />
    <glyph glyph-name="Tcaron" unicode="&#x164;" horiz-adv-x="1046" 
d="M432 1653l205 -99l229 99l35 -62q-111 -131 -246 -215h-67q-106 78 -205 215zM850 1188h-123l-100 -1053q-4 -45 51 -57l86 -19l-10 -59h-514l12 59l80 17q57 14 61 59l103 1053h-127q-66 0 -105 -74l-92 -168l-59 12q4 168 53 304h903q20 -137 -4 -304l-68 -12l-57 170
q-25 72 -90 72z" />
    <glyph glyph-name="tcaron" unicode="&#x165;" horiz-adv-x="739" 
d="M436 82q25 0 119 20l-14 -71q-90 -61 -203 -62q-223 0 -199 258l62 629h-109l10 59q113 27 185 99t116 196h54l-27 -278h164l-10 -76h-162l-62 -641q-10 -133 76 -133zM641 803l-4 59q90 43 134 87t65 110q-141 10 -131 139q8 72 46 108t97 36t90 -42q31 -41 23 -116
q-13 -134 -99 -240t-221 -141z" />
    <glyph glyph-name="Tbar" unicode="&#x166;" horiz-adv-x="1060" 
d="M856 1188h-123l-37 -387h277l-6 -74h-279l-55 -592q-4 -45 51 -57l86 -19l-10 -59h-514l12 59l80 17q57 14 61 59l58 592h-279l6 74h279l39 387h-127q-63 0 -105 -74l-92 -168l-59 12q4 168 53 304h903q20 -137 -4 -304l-67 -12l-58 170q-25 72 -90 72z" />
    <glyph glyph-name="tbar" unicode="&#x167;" horiz-adv-x="587" 
d="M436 82q25 0 119 20l-14 -71q-90 -61 -203 -62q-223 0 -199 258l35 365h-98l8 70h98l19 194h-109l10 59q113 27 185 99t116 196h54l-27 -278h164l-10 -76h-162l-19 -194h164l-6 -70h-166l-35 -377q-10 -133 76 -133z" />
    <glyph glyph-name="Utilde" unicode="&#x168;" horiz-adv-x="1204" 
d="M660 1626q62 0 140 -40q77 -40 122 -40q66 0 84 68h65q-10 -110 -55 -176q-44 -66 -114 -66t-145 44t-129 44t-77 -55h-64q7 97 59 159t114 62zM600 -31q-254 0 -348 121t-70 381l64 655q2 47 -49 60l-56 16l13 60h469l-13 -60l-67 -18q-33 -8 -47 -20t-17 -38l-71 -735
q-31 -344 245 -344q299 0 342 447l60 632q3 46 -49 60l-68 16l12 60h297l-10 -60l-51 -18q-48 -16 -55 -30t-9 -28l-59 -618q-25 -270 -136 -405q-112 -134 -327 -134z" />
    <glyph glyph-name="utilde" unicode="&#x169;" horiz-adv-x="1058" 
d="M506 1348q60 0 131 -40q72 -40 113 -40q68 0 86 69h59q-2 -100 -50 -175t-128 -75q-55 -1 -124 45t-112 46q-63 0 -94 -74h-57q8 102 62 173t114 71zM295 -31q-100 0 -130 94t-9 306l37 393q6 55 -27 65l-84 23l10 57q137 39 287 56h37q16 -55 6 -142l-39 -395
q-26 -213 3 -273q11 -24 36 -24q76 0 250 227q51 526 57 576h223l-78 -778q-2 -27 8 -39t25 -9l101 25l16 -55q-150 -82 -270 -107q-51 11 -81 55t-22 105q2 45 11 115q-207 -275 -367 -275z" />
    <glyph glyph-name="Umacron" unicode="&#x16a;" horiz-adv-x="1204" 
d="M537 1423l16 164h479l-16 -164h-479zM600 -31q-254 0 -348 121t-70 381l64 655q2 47 -49 60l-56 16l13 60h469l-13 -60l-67 -18q-33 -8 -47 -20t-17 -38l-71 -735q-31 -344 245 -344q299 0 342 447l60 632q3 46 -49 60l-68 16l12 60h297l-10 -60l-51 -18q-48 -16 -55 -30
t-9 -28l-59 -618q-25 -270 -136 -405q-112 -134 -327 -134z" />
    <glyph glyph-name="umacron" unicode="&#x16b;" horiz-adv-x="1058" 
d="M342 1118l16 164h512l-14 -164h-514zM295 -31q-100 0 -130 94t-9 306l37 393q6 55 -27 65l-84 23l10 57q137 39 287 56h37q16 -55 6 -142l-39 -395q-26 -213 3 -273q11 -24 36 -24q76 0 250 227q51 526 57 576h223l-78 -778q-2 -27 8 -39t25 -9l101 25l16 -55
q-150 -82 -270 -107q-51 11 -81 55t-22 105q2 45 11 115q-207 -275 -367 -275z" />
    <glyph glyph-name="Ubreve" unicode="&#x16c;" horiz-adv-x="1204" 
d="M787 1534q77 0 135 40q57 40 77 91h72q-18 -129 -99 -212t-202 -83q-122 0 -186 83t-54 212h70q6 -49 58 -90t129 -41zM600 -31q-254 0 -348 121t-70 381l64 655q2 47 -49 60l-56 16l13 60h469l-13 -60l-67 -18q-33 -8 -47 -20t-17 -38l-71 -735q-31 -344 245 -344
q299 0 342 447l60 632q3 46 -49 60l-68 16l12 60h297l-10 -60l-51 -18q-48 -16 -55 -30t-9 -28l-59 -618q-25 -270 -136 -405q-112 -134 -327 -134z" />
    <glyph glyph-name="ubreve" unicode="&#x16d;" horiz-adv-x="1058" 
d="M610 1243q70 0 124 44t77 104h63q-8 -139 -89 -225t-191 -87q-110 1 -173 87q-64 86 -46 225h63q8 -57 54 -103q48 -46 118 -45zM295 -31q-100 0 -130 94t-9 306l37 393q6 55 -27 65l-84 23l10 57q137 39 287 56h37q16 -55 6 -142l-39 -395q-26 -213 3 -273
q11 -24 36 -24q76 0 250 227q51 526 57 576h223l-78 -778q-2 -27 8 -39t25 -9l101 25l16 -55q-150 -82 -270 -107q-51 11 -81 55t-22 105q2 45 11 115q-207 -275 -367 -275z" />
    <glyph glyph-name="Uring" unicode="&#x16e;" horiz-adv-x="1204" 
d="M600 -31q-254 0 -348 121t-70 381l64 655q2 47 -49 60l-56 16l13 60h469l-13 -60l-67 -18q-33 -8 -47 -20t-17 -38l-71 -735q-31 -344 245 -344q299 0 342 447l60 632q3 46 -49 60l-68 16l12 60h297l-10 -60l-51 -18q-48 -16 -55 -30t-9 -28l-59 -618q-25 -270 -136 -405
q-112 -134 -327 -134zM805 1434q43 0 73 30t30 84q0 53 -28 83t-70 30t-72 -32t-32 -85t27 -82q29 -28 72 -28zM808 1763q92 0 148 -61q56 -62 56 -154t-58 -153t-152 -61t-148 60t-53 153t58 155t149 61z" />
    <glyph glyph-name="uring" unicode="&#x16f;" horiz-adv-x="1058" 
d="M504 1268q0 -53 28 -82t70 -29q43 0 72 31t29 84t-28 83q-28 29 -70 29q-41 0 -71 -32t-30 -84zM598 1057q-94 -1 -148 59t-52 155q0 95 58 155t149 60t147 -60q56 -62 56 -154q-1 -92 -58 -154q-58 -62 -152 -61zM295 -31q-100 0 -130 94t-9 306l37 393q6 55 -27 65
l-84 23l10 57q137 39 287 56h37q16 -55 6 -142l-39 -395q-26 -213 3 -273q11 -24 36 -24q76 0 250 227q51 526 57 576h223l-78 -778q-2 -27 8 -39t25 -9l101 25l16 -55q-150 -82 -270 -107q-51 11 -81 55t-22 105q2 45 11 115q-207 -275 -367 -275z" />
    <glyph glyph-name="Uhungarumlaut" unicode="&#x170;" horiz-adv-x="1204" 
d="M600 -31q-254 0 -348 121t-70 381l64 655q2 47 -49 60l-56 16l13 60h469l-13 -60l-67 -18q-33 -8 -47 -20t-17 -38l-71 -735q-31 -344 245 -344q299 0 342 447l60 632q3 46 -49 60l-68 16l12 60h297l-10 -60l-51 -18q-48 -16 -55 -30t-9 -28l-59 -618q-25 -270 -136 -405
q-112 -134 -327 -134zM809 1382q45 199 119 320l164 -82l-195 -264zM543 1382q47 197 119 320l163 -82l-194 -264z" />
    <glyph glyph-name="uhungarumlaut" unicode="&#x171;" horiz-adv-x="1058" 
d="M395 1092q61 250 125 358l162 -82l-199 -303zM662 1092q57 248 124 358l162 -82l-198 -303zM295 -31q-100 0 -130 94t-9 306l37 393q6 55 -27 65l-84 23l10 57q137 39 287 56h37q16 -55 6 -142l-39 -395q-26 -213 3 -273q11 -24 36 -24q76 0 250 227q51 526 57 576h223
l-78 -778q-2 -27 8 -39t25 -9l101 25l16 -55q-150 -82 -270 -107q-51 11 -81 55t-22 105q2 45 11 115q-207 -275 -367 -275z" />
    <glyph glyph-name="Uogonek" unicode="&#x172;" horiz-adv-x="1202" 
d="M711 -297q43 0 77 27l21 -43q-68 -68 -162 -68t-145 50t-43 142t110 158q-239 8 -325 129t-62 373l64 655q2 47 -49 60l-56 16l13 60h469l-13 -60l-67 -18q-33 -8 -47 -20t-17 -38l-71 -735q-31 -344 245 -344q299 0 342 447l60 632q3 46 -49 60l-68 16l12 60h297
l-10 -60l-51 -18q-48 -16 -55 -30t-9 -28l-59 -618q-41 -430 -301 -514q-127 -72 -133 -180q-5 -49 17 -80t65 -31z" />
    <glyph glyph-name="uogonek" unicode="&#x173;" horiz-adv-x="1058" 
d="M842 -279q43 0 78 27l20 -43q-68 -68 -180 -67q-76 0 -127 50t-43 132q8 104 115 170q-66 45 -54 139q2 45 11 115q-207 -274 -367 -275q-100 0 -130 94t-9 306l37 393q6 55 -27 65l-84 23l10 57q137 39 287 56h37q16 -55 6 -142l-39 -395q-26 -213 3 -273q11 -24 36 -24
q76 0 250 227q51 526 57 576h223l-78 -778q-2 -27 8 -39t25 -9l101 25l16 -55q-68 -37 -123 -60q-135 -72 -141 -184q-4 -49 18 -80t64 -31z" />
    <glyph glyph-name="Wcircumflex" unicode="&#x174;" horiz-adv-x="1712" 
d="M772 1356l-37 61q123 139 248 217h66q123 -90 204 -217l-47 -61l-209 100zM393 0l-217 1116q-12 49 -45 64l-53 22l10 60h518l-10 -60l-119 -28q-55 -14 -43 -82l162 -856l287 725l-29 155q-8 47 -47 64l-51 22l10 60h518l-12 -60l-117 -28q-55 -14 -43 -82l162 -854
l342 862q29 63 -27 78l-114 24l10 60h338l-11 -60l-51 -22q-45 -14 -61 -60l-449 -1120h-180l-164 838l-334 -838h-180z" />
    <glyph glyph-name="wcircumflex" unicode="&#x175;" horiz-adv-x="1325" 
d="M504 1114q135 213 270 334h66q121 -137 204 -334l-49 -45l-207 191l-241 -191zM1200 700q0 112 -26 136l-150 20l-6 45q51 41 129 62q137 0 143 -195q0 -182 -90 -393t-219 -375l-188 -23l-68 385q-80 -180 -219 -362l-189 -23l-147 838q-4 27 -39 39l-72 18l11 60
q86 18 245 31h39q39 -61 49 -132l113 -710q133 197 186 371l-57 323q-4 27 -39 39l-71 18l10 60q86 18 246 31h38q39 -61 50 -132l112 -710q82 125 146 296q63 171 63 283z" />
    <glyph glyph-name="Ycircumflex" unicode="&#x176;" horiz-adv-x="1071" 
d="M500 1356l-37 61q123 139 248 217h65q123 -90 205 -217l-47 -61l-209 100zM485 1186q-55 -14 -34 -68l208 -504l304 500q31 59 -11 70l-114 18l10 60h336l-10 -60l-44 -10q-53 -14 -90 -78l-364 -600l-37 -379q-4 -32 21 -46q9 -5 28 -11l60 -19l-13 -59h-459l13 59
l53 17q31 8 45 20t16 39l35 363l-258 608q-25 72 -53 80l-51 16l10 60h496l-9 -60z" />
    <glyph glyph-name="ycircumflex" unicode="&#x177;" 
d="M287 1114q135 213 270 334h66q121 -137 204 -334l-49 -45l-207 191l-241 -191zM795 706q0 106 -27 130l-150 20l-6 45q51 41 129 62q137 0 144 -195q1 -264 -231 -608t-564 -551l-76 131q76 46 155 88t198 127h-13l-196 862q-6 29 -39 39l-62 16l13 60q119 27 231 31h39
q35 -55 49 -132l154 -700q119 147 185 308q67 161 67 267z" />
    <glyph glyph-name="Ydieresis" unicode="&#x178;" horiz-adv-x="1071" 
d="M929 1647q58 0 93 -37t34 -105q-1 -69 -36 -105t-93 -36t-93 36t-34 106q1 69 36 105t93 36zM537 1364q-59 0 -93 36t-34 105q4 141 131 142q57 0 92 -37t34 -105q-1 -69 -36 -105t-94 -36zM485 1186q-55 -14 -34 -68l208 -504l304 500q31 59 -11 70l-114 18l10 60h336
l-10 -60l-44 -10q-53 -14 -90 -78l-364 -600l-37 -379q-4 -32 21 -46q9 -5 28 -11l60 -19l-13 -59h-459l13 59l53 17q31 8 45 20t16 39l35 363l-258 608q-25 72 -53 80l-51 16l10 60h496l-9 -60z" />
    <glyph glyph-name="Zacute" unicode="&#x179;" horiz-adv-x="1036" 
d="M897 1460l-412 -98l-18 65q53 70 174 138t227 90zM879 338h90q-12 -180 -66 -338h-887l11 82l739 1106l-320 -4q-51 -2 -70 -18t-44 -62l-99 -158l-88 4q6 168 56 312h862l-12 -68l-746 -1124l344 8q59 2 84 20t53 72z" />
    <glyph glyph-name="zacute" unicode="&#x17a;" horiz-adv-x="860" 
d="M782 1305l-311 -256l-49 41q31 96 95 194q65 98 134 162zM723 330h68q16 -84 -9 -202t-71 -171q-342 106 -523 121l-65 -109l-94 74l553 659l-322 27q-37 4 -59 -41l-31 -65l-64 18q4 49 27 164t35 153l571 -67l64 76l61 -49l-534 -656q174 -20 321 -65q43 -16 62 47
q10 29 10 86z" />
    <glyph glyph-name="Zdotaccent" unicode="&#x17b;" horiz-adv-x="1036" 
d="M651 1659q57 0 92 -37q35 -36 34 -104t-36 -105t-93 -37t-93 37t-35 105q4 141 131 141zM879 338h90q-12 -180 -66 -338h-887l11 82l739 1106l-320 -4q-51 -2 -70 -18t-44 -62l-99 -158l-88 4q6 168 56 312h862l-12 -68l-746 -1124l344 8q59 2 84 20t53 72z" />
    <glyph glyph-name="zdotaccent" unicode="&#x17c;" horiz-adv-x="860" 
d="M544 1366q56 0 91 -35t34 -101t-36 -104q-35 -36 -91 -36t-90 36t-33 104t35 102t90 34zM723 330h68q16 -84 -9 -202t-71 -171q-342 106 -523 121l-65 -109l-94 74l553 659l-322 27q-37 4 -59 -41l-31 -65l-64 18q4 49 27 164t35 153l571 -67l64 76l61 -49l-534 -656
q174 -20 321 -65q43 -16 62 47q10 29 10 86z" />
    <glyph glyph-name="Zcaron" unicode="&#x17d;" horiz-adv-x="1036" 
d="M455 1653l204 -99l230 99l35 -62q-111 -131 -246 -215h-68q-106 78 -204 215zM879 338h90q-12 -180 -66 -338h-887l11 82l739 1106l-320 -4q-51 -2 -70 -18t-44 -62l-99 -158l-88 4q6 168 56 312h862l-12 -68l-746 -1124l344 8q59 2 84 20t53 72z" />
    <glyph glyph-name="zcaron" unicode="&#x17e;" horiz-adv-x="860" 
d="M285 1399l51 43l205 -189l243 189l43 -45q-121 -193 -270 -334h-65q-119 133 -207 336zM723 330h68q16 -84 -9 -202t-71 -171q-342 106 -523 121l-65 -109l-94 74l553 659l-322 27q-37 4 -59 -41l-31 -65l-64 18q4 49 27 164t35 153l571 -67l64 76l61 -49l-534 -656
q174 -20 321 -65q43 -16 62 47q10 29 10 86z" />
    <glyph glyph-name="longs" unicode="&#x17f;" horiz-adv-x="550" 
d="M598 1407q160 0 250 -47q-23 -125 -84 -238h-78l-16 215q-25 8 -49 9q-74 0 -115 -78t-57 -242l-97 -983q-20 -211 -120 -321t-261 -110q-162 0 -245 46q23 131 81 240h78l17 -215q18 -8 57 -9q70 0 110 78t56 242l84 864h-123l8 72h123l4 47q17 209 117 319t260 111z
" />
    <glyph glyph-name="uni018F" unicode="&#x18f;" horiz-adv-x="1243" 
d="M577 35q136 0 233 147t128 385h-621q-14 -233 55 -383t205 -149zM664 1292q272 0 422 -174t118 -485q-31 -311 -204 -487t-430 -177q-257 1 -398 185t-104 489h878q25 258 -54 420t-243 162q-186 -1 -323 -138l-31 72q158 133 369 133z" />
    <glyph glyph-name="florin" unicode="&#x192;" horiz-adv-x="593" 
d="M690 1333q-59 1 -109 -71t-75 -213l-23 -117h170l-18 -70h-166l-156 -819q-39 -199 -153 -315t-274 -117q-160 0 -244 76q25 129 77 219h103l8 -215q23 -8 59 -8q127 0 181 284l170 895h-115l20 70h109l10 53q39 195 153 307q113 112 271 113q158 0 252 -74
q-18 -129 -86 -239h-88l-16 231q-25 10 -60 10z" />
    <glyph glyph-name="uni01C4" unicode="&#x1c4;" horiz-adv-x="2260" 
d="M1649 1653l204 -99l230 99l35 -62q-111 -131 -246 -215h-68q-106 78 -205 215zM633 1188h-127l-107 -1114h125q162 0 282 147t144 407t-66 410q-91 150 -251 150zM2103 338h90q-12 -180 -65 -338h-887l10 82l740 1106l-320 -4q-51 -2 -70 -18t-45 -62l-98 -158l-88 4
q6 168 55 312h863l-13 -68l-745 -1124l344 8q59 2 84 20t53 72zM668 1262q268 0 418 -167t120 -459q-29 -292 -209 -464t-442 -172h-508l12 59l50 17q59 16 63 59l96 991q4 45 -51 60l-55 16l12 60h494z" />
    <glyph glyph-name="uni01C5" unicode="&#x1c5;" horiz-adv-x="2101" 
d="M1509 1399l52 43l204 -189l244 189l43 -45q-121 -193 -270 -334h-66q-119 133 -207 336zM1964 330h68q16 -84 -9 -202t-71 -171q-342 106 -522 121l-66 -109l-94 74l553 659l-322 27q-37 4 -59 -41l-31 -65l-63 18q4 49 26 164q23 115 35 153l571 -67l64 76l61 -49
l-534 -656q174 -20 321 -65q43 -16 62 47q10 29 10 86zM631 1188h-127l-107 -1114h125q162 0 282 147t144 407t-66 410q-91 150 -251 150zM666 1262q268 0 418 -167t120 -459q-29 -292 -209 -464t-442 -172h-508l12 59l49 17q59 16 64 59l96 991q4 45 -51 60l-55 16l12 60
h494z" />
    <glyph glyph-name="uni01C6" unicode="&#x1c6;" horiz-adv-x="1902" 
d="M1303 1397l51 43l205 -189l243 189l43 -45q-121 -193 -270 -334h-66q-118 133 -206 336zM428 102q78 0 215 189q16 143 62 596q-57 10 -91 10q-90 0 -152 -57q-62 -58 -91 -150q-50 -159 -52 -338q0 -250 109 -250zM1765 330h68q15 -84 -9 -202t-71 -171
q-342 106 -522 121l-66 -109l-94 74l553 659l-321 27q-37 4 -60 -41l-31 -65l-63 18q4 49 27 164t34 153l572 -67l63 76l62 -49l-535 -656q174 -20 322 -65q43 -16 61 47q10 29 10 86zM344 -31q-110 -1 -190 103t-80 295q0 254 150 425q151 171 390 171q43 0 99 -11l24 256
q4 59 -35 64l-133 20l13 58q102 29 342 55h34q14 -70 3 -164l-107 -1087q-2 -27 7 -39t26 -9l100 25l17 -55q-150 -82 -271 -107q-98 23 -94 160v47q-156 -207 -295 -207z" />
    <glyph glyph-name="uni01C7" unicode="&#x1c7;" horiz-adv-x="1501" 
d="M1303 68q-17 -190 -131 -308t-318 -143l-8 64q55 27 81 43q25 16 59 52q59 63 77 238l108 1112q2 27 -10 40t-39 20l-55 16l12 60h451l-12 -60l-50 -18q-8 -4 -16 -6t-13 -6t-7 -4q-2 -1 -6 -4t-7 -5q-2 -2 -5 -6t-4 -7t-3 -8t-2 -12zM621 74q70 0 92 49l123 239h92
q-10 -176 -74 -362h-807l12 59l50 17q59 16 63 59l96 991q4 45 -51 60l-55 16l12 60h451l-13 -60l-49 -18q-49 -16 -55 -30q-6 -13 -8 -28l-101 -1052h222z" />
    <glyph glyph-name="uni01C8" unicode="&#x1c8;" horiz-adv-x="1443" 
d="M1278 1126q-59 0 -100 40t-39 106q0 66 41 106t100 39q59 0 99 -40t40 -104q0 -63 -41 -105t-100 -42zM1286 57q-18 -184 -124 -300t-304 -140l-14 59q53 27 80 45q26 17 60 55q58 65 77 238l74 752q4 51 -35 63l-86 19l10 57q127 37 297 58h35q14 -70 2 -164zM621 74
q70 0 92 49l123 239h92q-10 -176 -74 -362h-807l12 59l50 17q59 16 63 59l96 991q4 45 -51 60l-55 16l12 60h451l-13 -60l-49 -18q-49 -16 -55 -30q-6 -13 -8 -28l-101 -1052h222z" />
    <glyph glyph-name="uni01C9" unicode="&#x1c9;" horiz-adv-x="1015" 
d="M494 76q-156 -84 -273 -107q-49 11 -80 55t-22 105l106 1079q6 53 -32 64l-84 20l12 58q147 41 293 55h35q10 -66 2 -164l-107 -1087q-2 -27 7 -39t26 -9l100 25zM858 57q-18 -184 -124 -300t-304 -140l-14 59q53 27 80 45q26 17 60 55q58 65 77 238l74 752q4 51 -35 63
l-86 19l10 57q127 37 297 58h35q14 -70 2 -164zM850 1126q-59 0 -100 40t-39 106q0 66 41 106t100 39q59 0 99 -40t40 -104q0 -63 -41 -105t-100 -42z" />
    <glyph glyph-name="uni01CA" unicode="&#x1ca;" horiz-adv-x="1830" 
d="M1632 68q-18 -190 -131 -308t-317 -143l-8 64q54 27 80 43t60 52q59 63 77 238l108 1112q2 27 -10 40t-39 20l-55 16l12 60h451l-13 -60l-49 -18q-8 -4 -16 -6t-14 -6t-7 -4q-2 -1 -6 -4t-6 -5t-5 -6t-4 -7t-3 -8t-2 -12zM864 0l-538 1057l-88 -922q-3 -27 13 -36
q17 -9 40 -15l82 -25l-13 -59h-315l10 59l54 21q57 20 61 55l98 1024q-45 35 -102 43l10 60h326l534 -1026l86 888q2 16 -6 28t-18 17q-10 4 -33 11l-76 22l10 60h316l-10 -60l-56 -20q-35 -14 -46 -27q-11 -12 -13 -31l-109 -1124h-217z" />
    <glyph glyph-name="uni01CB" unicode="&#x1cb;" horiz-adv-x="1773" 
d="M1610 1126q-59 0 -101 40q-41 40 -39 106q0 66 41 106t101 39q60 0 99 -40q40 -40 40 -104q0 -63 -41 -105t-100 -42zM1618 57q-18 -184 -124 -300t-304 -140l-14 59q54 27 80 45q26 17 60 55q58 64 77 238l73 752q4 51 -34 63l-86 19l10 57q127 37 297 58h35
q14 -70 2 -164zM864 0l-538 1057l-88 -922q-3 -27 13 -36q17 -9 40 -15l82 -25l-13 -59h-315l10 59l54 21q57 20 61 55l98 1024q-45 35 -102 43l10 60h326l534 -1026l86 888q2 16 -6 28t-18 17q-10 4 -33 11l-76 22l10 60h316l-10 -60l-56 -20q-35 -14 -46 -27
q-11 -12 -13 -31l-109 -1124h-217z" />
    <glyph glyph-name="uni01CC" unicode="&#x1cc;" horiz-adv-x="1552" 
d="M1386 1126q-59 0 -100 40t-39 106q0 66 41 106q40 40 100 39q60 0 100 -40t40 -104t-41 -106q-42 -41 -101 -41zM1395 57q-17 -184 -123 -300t-305 -140l-15 59q53 27 80 45q27 17 61 55q60 66 76 238l74 752q4 51 -35 63l-86 19l11 57q127 37 297 58h34q14 -70 2 -164z
M788 963q94 1 125 -95t11 -307l-41 -407q-2 -27 7 -39t25 -9l101 25l14 -55q-33 -23 -132 -61t-140 -46q-117 10 -101 156l37 379q26 223 -3 276q-11 23 -34 23q-47 1 -106 -59t-148 -177l-55 -567l-223 -27l76 791q4 53 -35 63l-82 21l12 57q123 37 293 58h35
q14 -70 2 -164l-12 -117q106 133 193 207t181 74z" />
    <glyph glyph-name="uni01EA" unicode="&#x1ea;" horiz-adv-x="1282" 
d="M613 35q144 0 245 165q100 165 125 428t-41 430t-210 167t-246 -164t-129 -424q-26 -260 43 -431t213 -171zM735 1292q252 0 393 -174t111 -481q-25 -258 -147 -426t-312 -219q-158 -74 -168 -197q-4 -49 18 -80t64 -31t78 27l21 -43q-68 -68 -181 -67q-76 0 -127 50
t-43 132q10 117 144 186q-246 7 -381 181t-105 478t207 484q176 180 428 180z" />
    <glyph glyph-name="uni01EB" unicode="&#x1eb;" horiz-adv-x="989" 
d="M461 29q188 0 229 436t-141 436t-224 -436t136 -436zM416 -412q-94 0 -146 50q-51 50 -43 133q10 127 174 202q-170 19 -255 149t-63 352t146 355q125 133 323 133t300 -134t83 -346t-115 -339t-251 -161q-162 -74 -172 -199q-4 -49 18 -80q23 -31 65 -31t77 27l21 -43
q-68 -68 -162 -68z" />
    <glyph glyph-name="uni01F1" unicode="&#x1f1;" horiz-adv-x="2260" 
d="M633 1188h-127l-107 -1114h125q162 0 282 147t144 407t-66 410q-91 150 -251 150zM2103 338h90q-12 -180 -65 -338h-887l10 82l740 1106l-320 -4q-51 -2 -70 -18t-45 -62l-98 -158l-88 4q6 168 55 312h863l-13 -68l-745 -1124l344 8q59 2 84 20t53 72zM668 1262
q268 0 418 -167t120 -459q-29 -292 -209 -464t-442 -172h-508l12 59l50 17q59 16 63 59l96 991q4 45 -51 60l-55 16l12 60h494z" />
    <glyph glyph-name="uni01F2" unicode="&#x1f2;" horiz-adv-x="2103" 
d="M1964 330h68q16 -84 -9 -202t-71 -171q-342 106 -522 121l-66 -109l-94 74l553 659l-322 27q-37 4 -59 -41l-31 -65l-63 18q4 49 26 164q23 115 35 153l571 -67l64 76l61 -49l-534 -656q174 -20 321 -65q43 -16 62 47q10 29 10 86zM633 1188h-127l-107 -1114h125
q162 0 282 147t144 407t-66 410q-91 150 -251 150zM668 1262q268 0 418 -167t120 -459q-29 -292 -209 -464t-442 -172h-508l12 59l50 17q59 16 63 59l96 991q4 45 -51 60l-55 16l12 60h494z" />
    <glyph glyph-name="uni01F3" unicode="&#x1f3;" horiz-adv-x="1902" 
d="M428 102q78 0 215 189q16 143 62 596q-57 10 -91 10q-90 0 -152 -57q-62 -58 -91 -150q-50 -159 -52 -338q0 -250 109 -250zM1765 330h68q15 -84 -9 -202t-71 -171q-342 106 -522 121l-66 -109l-94 74l553 659l-321 27q-37 4 -60 -41l-31 -65l-63 18q4 49 27 164t34 153
l572 -67l63 76l62 -49l-535 -656q174 -20 322 -65q43 -16 61 47q10 29 10 86zM344 -31q-110 -1 -190 103t-80 295q0 254 150 425q151 171 390 171q43 0 99 -11l24 256q4 59 -35 64l-133 20l13 58q102 29 342 55h34q14 -70 3 -164l-107 -1087q-2 -27 7 -39t26 -9l100 25
l17 -55q-150 -82 -271 -107q-98 23 -94 160v47q-156 -207 -295 -207z" />
    <glyph glyph-name="uni01F4" unicode="&#x1f4;" horiz-adv-x="1228" 
d="M838 1223q-197 0 -326 -161q-129 -160 -157 -436q-27 -276 63 -432t268 -157q88 0 141 37l29 317q6 45 -41 55l-90 23l12 59h473l-12 -59l-65 -27q-39 -16 -43 -51l-29 -307q-162 -115 -429 -115t-415 176q-147 176 -119 473q28 298 219 486q190 188 464 188t407 -131
q-23 -118 -82 -229h-92l-31 260q-45 31 -145 31zM1030 1464l-412 -98l-18 66q53 70 174 138t227 89z" />
    <glyph glyph-name="uni01F5" unicode="&#x1f5;" horiz-adv-x="968" 
d="M799 1305l-312 -256l-49 41q31 96 96 194t134 162zM465 387q147 0 172 250q12 115 -20 187q-33 72 -107 73q-74 0 -117 -73t-55 -185q-25 -252 127 -252zM377 -313q155 -1 235 43t86 116q4 39 -21 64q-26 25 -79 27l-309 14q-68 4 -117 37q-68 -63 -74 -135
q-14 -166 279 -166zM459 322q-80 0 -140 16q-45 -41 -49 -79t14 -53t58 -18l305 -16q105 -4 163 -64t47 -186t-139 -218q-128 -91 -330 -91t-297 64q-93 65 -83 166t131 173q-41 51 -33 131q10 125 162 209q-184 80 -164 285q12 139 121 230t292 91t284 -102q84 72 188 121
q-10 -104 -35 -180l-100 -25q23 -61 16 -139q-14 -141 -122 -228t-289 -87z" />
    <glyph glyph-name="uni01FA" unicode="&#x1fa;" horiz-adv-x="1095" 
d="M657 1452q43 0 73 31t30 84t-28 83t-70 30t-71 -32q-30 -32 -32 -85q-1 -53 27 -82t71 -29zM883 1921l-412 -98l-18 65q53 70 174 138t227 90zM528 1042l-229 -544h350zM654 1352q-94 0 -147 60q-54 60 -53 154q1 93 58 154q56 62 148 62t149 -62t56 -153t-59 -153
t-152 -62zM725 158l-59 264h-398l-112 -268q-25 -61 30 -72l119 -23l-10 -59h-348l10 59l66 21q33 10 55 63l469 1119h184l250 -1106q16 -63 51 -76l58 -21l-13 -59h-526l10 59l109 19q71 14 55 80z" />
    <glyph glyph-name="uni01FB" unicode="&#x1fb;" horiz-adv-x="1044" 
d="M586 1157q44 0 72 31t28 84t-28 83q-28 29 -70 29t-71 -32q-30 -32 -30 -84q0 -53 28 -82t71 -29zM821 1651l-411 -99l-19 66q53 70 174 138t228 89zM582 1057q-94 0 -148 59q-53 60 -52 155t58 155q56 60 148 60t148 -60q56 -62 56 -154t-58 -154t-152 -61zM428 102
q80 0 215 187l59 598q-55 10 -88 10q-90 0 -152 -57q-62 -58 -91 -150q-50 -159 -52 -338q0 -250 109 -250zM344 -31q-110 -1 -190 103t-80 295q0 254 150 425q151 171 390 171q141 0 312 -72l-72 -737q-2 -27 7 -39t26 -9l100 25l14 -55q-152 -82 -270 -107q-96 23 -92 160
v47q-156 -207 -295 -207z" />
    <glyph glyph-name="uni01FC" unicode="&#x1fc;" horiz-adv-x="1480" 
d="M1286 1460l-412 -98l-18 65q53 70 174 138t227 90zM387 541h295l53 561zM1208 1188h-233l-47 -504h209q39 0 61 47l49 115h78l-59 -397h-68l-24 120q-12 41 -46 41h-208l-52 -536h258q72 0 95 49l92 176h86q-4 -180 -43 -299h-838l10 59l54 17q57 16 61 59l31 332h-334
l-193 -313q-31 -57 33 -72l123 -23l-10 -59h-354l10 59l47 17q35 8 67 67l635 1028q-8 4 -65 17l-53 14l10 60h866q10 -123 -22 -295h-82l-54 166q-20 55 -90 55z" />
    <glyph glyph-name="uni01FD" unicode="&#x1fd;" horiz-adv-x="1384" 
d="M1001 1305l-311 -256l-49 41q31 96 95 194q65 98 134 162zM551 401v45q-246 -80 -264 -247q-7 -57 19 -88t69 -31q80 0 215 108q-39 86 -39 213zM1006 895q-82 0 -140 -130t-65 -321q117 33 209 108t92 193q0 63 -26 107t-70 43zM1346 719q0 -139 -153 -225t-392 -123
q8 -135 68 -213t153 -78q123 0 256 145l47 -45q-156 -211 -381 -211t-328 166q-182 -166 -350 -166q-109 1 -172 55t-51 166q23 209 322 279q143 31 190 41l8 86q13 156 -11 228t-101 71q-77 0 -134 -18l-67 -222h-74q-33 90 -33 222q164 86 327 86t249 -121
q127 121 305 121q142 0 232 -71t90 -173z" />
    <glyph glyph-name="uni01FE" unicode="&#x1fe;" horiz-adv-x="1280" 
d="M997 1460l-411 -98l-19 65q53 70 174 138t228 90zM619 35q140 0 241 165q100 166 122 392t-9 369l-565 -773q71 -153 211 -153zM734 1225q-144 0 -246 -164q-102 -163 -127 -399q-24 -236 18 -392l569 777q-70 178 -214 178zM610 -31q-172 0 -301 84l-149 -205h-90
l184 250q-188 178 -152 523q31 311 207 491t428 180q188 0 318 -100l153 211h88l-190 -260q166 -177 135 -499t-203 -498t-428 -177z" />
    <glyph glyph-name="uni01FF" unicode="&#x1ff;" horiz-adv-x="991" 
d="M836 1303l-312 -256l-49 40q31 97 95 195t135 162zM463 29q188 0 229 436q10 121 4 211l-364 -502q31 -145 131 -145zM328 465q-12 -121 -6 -215l364 502q-33 150 -137 149q-180 0 -221 -436zM457 -31q-135 0 -226 66l-135 -187h-65l159 222q-131 130 -107 378t148 381
q125 133 322 134q141 0 235 -70l140 192h65l-166 -227q133 -138 111 -380t-152 -376t-329 -133z" />
    <glyph glyph-name="uni0200" unicode="&#x200;" horiz-adv-x="1095" 
d="M244 1620l155 141q57 -63 103 -160t59 -196l-57 -39zM567 1620l158 141q57 -63 102 -161t58 -195l-56 -39zM528 1042l-229 -544h350zM725 158l-59 264h-398l-112 -268q-25 -61 30 -72l119 -23l-10 -59h-348l10 59l66 21q33 10 55 63l469 1119h184l250 -1106
q16 -63 51 -76l58 -21l-13 -59h-526l10 59l109 19q71 14 55 80z" />
    <glyph glyph-name="uni0201" unicode="&#x201;" horiz-adv-x="1044" 
d="M532 1321l156 141q131 -143 162 -354l-57 -43zM207 1321l158 141q57 -63 102 -160t57 -194l-55 -43zM428 102q80 0 215 187l59 598q-55 10 -88 10q-90 0 -152 -57q-62 -58 -91 -150q-50 -159 -52 -338q0 -250 109 -250zM344 -31q-110 -1 -190 103t-80 295q0 254 150 425
q151 171 390 171q141 0 312 -72l-72 -737q-2 -27 7 -39t26 -9l100 25l14 -55q-152 -82 -270 -107q-96 23 -92 160v47q-156 -207 -295 -207z" />
    <glyph glyph-name="uni0202" unicode="&#x202;" horiz-adv-x="1095" 
d="M654 1665q120 0 186 -82t59 -213h-72q-12 51 -61 91t-126 40q-78 0 -138 -41t-74 -90h-70q16 131 96 213t200 82zM528 1042l-229 -544h350zM725 158l-59 264h-398l-112 -268q-25 -61 30 -72l119 -23l-10 -59h-348l10 59l66 21q33 10 55 63l469 1119h184l250 -1106
q16 -63 51 -76l58 -21l-13 -59h-526l10 59l109 19q71 14 55 80z" />
    <glyph glyph-name="uni0203" unicode="&#x203;" horiz-adv-x="1044" 
d="M623 1389q109 0 173 -86t46 -226h-66q-8 57 -55 103t-117 45q-70 1 -125 -45t-73 -103h-64q8 139 90 225t191 87zM428 102q80 0 215 187l59 598q-55 10 -88 10q-90 0 -152 -57q-62 -58 -91 -150q-50 -159 -52 -338q0 -250 109 -250zM344 -31q-110 -1 -190 103t-80 295
q0 254 150 425q151 171 390 171q141 0 312 -72l-72 -737q-2 -27 7 -39t26 -9l100 25l14 -55q-152 -82 -270 -107q-96 23 -92 160v47q-156 -207 -295 -207z" />
    <glyph glyph-name="uni0204" unicode="&#x204;" horiz-adv-x="1007" 
d="M213 1620l156 141q57 -63 102 -160t59 -196l-57 -39zM537 1620l157 141q56 -63 102 -161t58 -195l-55 -39zM737 1188h-231l-47 -504h207q39 0 59 47l51 115h76l-57 -397h-66l-27 120q-8 41 -45 41h-206l-52 -536h248q68 0 94 49l99 176h88q-6 -164 -51 -299h-830l12 59
l50 17q59 16 63 59l96 991q4 45 -49 60l-55 16l10 60h811q12 -115 -22 -295h-84l-54 166q-16 55 -88 55z" />
    <glyph glyph-name="uni0205" unicode="&#x205;" 
d="M473 1321l156 141q131 -143 162 -354l-58 -43zM147 1321l158 141q57 -63 103 -160t57 -194l-55 -43zM535 895q-81 0 -141 -130t-66 -321q115 33 208 109t93 195q1 63 -25 105t-69 42zM872 724q0 -99 -78 -173q-142 -133 -466 -180q8 -135 68 -213t144 -78t140 36
q57 36 125 109l47 -45q-156 -211 -377 -211q-186 0 -292 116q-105 116 -105 335t131 381t342 162q141 0 231 -70t90 -169z" />
    <glyph glyph-name="uni0206" unicode="&#x206;" horiz-adv-x="1007" 
d="M625 1665q121 0 187 -82t58 -213h-71q-11 51 -61 91t-127 40t-137 -41t-75 -90h-69q16 131 95 213t200 82zM737 1188h-231l-47 -504h207q39 0 59 47l51 115h76l-57 -397h-66l-27 120q-8 41 -45 41h-206l-52 -536h248q68 0 94 49l99 176h88q-6 -164 -51 -299h-830l12 59
l50 17q59 16 63 59l96 991q4 45 -49 60l-55 16l10 60h811q12 -115 -22 -295h-84l-54 166q-16 55 -88 55z" />
    <glyph glyph-name="uni0207" unicode="&#x207;" 
d="M566 1389q108 0 172 -86t46 -226h-65q-8 57 -55 103t-117 45q-69 1 -125 -45t-74 -103h-63q8 139 90 225q83 86 191 87zM535 895q-81 0 -141 -130t-66 -321q115 33 208 109t93 195q1 63 -25 105t-69 42zM872 724q0 -99 -78 -173q-142 -133 -466 -180q8 -135 68 -213
t144 -78t140 36q57 36 125 109l47 -45q-156 -211 -377 -211q-186 0 -292 116q-105 116 -105 335t131 381t342 162q141 0 231 -70t90 -169z" />
    <glyph glyph-name="uni0208" unicode="&#x208;" horiz-adv-x="614" 
d="M348 1620l158 141q57 -63 102 -161t58 -195l-56 -39zM25 1620l155 141q56 -63 102 -160t60 -196l-57 -39zM270 1126q4 45 -51 60l-55 16l12 60h451l-13 -60l-49 -18q-49 -16 -55 -30q-6 -13 -8 -28l-96 -991q-4 -32 21 -46q9 -5 30 -11l53 -19l-10 -59h-451l12 59l50 17
q59 16 63 59z" />
    <glyph glyph-name="uni0209" unicode="&#x209;" horiz-adv-x="563" 
d="M289 1321l155 141q131 -143 162 -354l-57 -43zM-37 1321l158 141q57 -63 102 -160t58 -194l-56 -43zM514 76q-150 -82 -270 -107q-49 11 -79 55t-24 105l64 637q6 51 -33 63l-84 19l10 57q127 37 295 58h33q12 -63 4 -164l-63 -645q-2 -27 7 -39t25 -9l101 25z" />
    <glyph glyph-name="uni020A" unicode="&#x20a;" horiz-adv-x="612" 
d="M426 1665q120 0 186 -82t60 -213h-72q-12 51 -61 91t-126 40t-137 -41t-75 -90h-70q16 131 95 213t200 82zM268 1126q4 45 -51 60l-55 16l12 60h451l-13 -60l-49 -18q-49 -16 -55 -30q-6 -13 -8 -28l-97 -991q-4 -32 22 -46q9 -5 30 -11l53 -19l-10 -59h-451l12 59l50 17
q59 16 63 59z" />
    <glyph glyph-name="uni020B" unicode="&#x20b;" horiz-adv-x="559" 
d="M512 76q-150 -82 -270 -107q-49 11 -79 55t-24 105l64 637q6 51 -33 63l-84 19l10 57q127 37 295 58h33q12 -63 4 -164l-63 -645q-2 -27 7 -39t25 -9l101 25zM342 1389q108 0 174 -86q64 -86 45 -226h-65q-8 57 -56 103t-116 45q-70 1 -126 -45t-73 -103h-64
q9 139 91 225t190 87z" />
    <glyph glyph-name="uni020C" unicode="&#x20c;" horiz-adv-x="1282" 
d="M613 35q144 0 245 165q100 165 125 428t-41 430t-210 167t-246 -164t-129 -424q-26 -260 43 -431t213 -171zM608 -31q-256 0 -397 174q-141 173 -111 481t207 488q176 180 428 180t393 -174q140 -174 110 -485t-202 -487t-428 -177zM627 1620l157 141q56 -63 102 -161
t58 -195l-55 -39zM303 1620l156 141q57 -63 102 -160t60 -196l-58 -39z" />
    <glyph glyph-name="uni020D" unicode="&#x20d;" horiz-adv-x="987" 
d="M461 29q188 0 229 436t-141 436t-224 -436t136 -436zM457 -31q-197 0 -297 133q-100 134 -78 364t147 363t323 133t300 -134t82 -363t-150 -363t-327 -133zM487 1321l156 141q131 -143 162 -354l-57 -43zM162 1321l157 141q57 -63 103 -160t57 -194l-55 -43z" />
    <glyph glyph-name="uni020E" unicode="&#x20e;" horiz-adv-x="1282" 
d="M613 35q144 0 245 165q100 165 125 428t-41 430t-210 167t-246 -164t-129 -424q-26 -260 43 -431t213 -171zM608 -31q-256 0 -397 174q-141 173 -111 481t207 488q176 180 428 180t393 -174q140 -174 110 -485t-202 -487t-428 -177zM770 1665q120 0 186 -82t60 -213h-72
q-12 51 -61 91t-126 40t-137 -41t-75 -90h-70q16 131 95 213t200 82z" />
    <glyph glyph-name="uni020F" unicode="&#x20f;" horiz-adv-x="987" 
d="M461 29q188 0 229 436t-141 436t-224 -436t136 -436zM457 -31q-197 0 -297 133q-100 134 -78 364t147 363t323 133t300 -134t82 -363t-150 -363t-327 -133zM592 1389q110 0 174 -86t45 -226h-66q-8 57 -55 103t-117 45q-70 1 -125 -45t-73 -103h-64q8 139 90 225t191 87z
" />
    <glyph glyph-name="uni0210" unicode="&#x210;" horiz-adv-x="1110" 
d="M231 1620l156 141q57 -63 102 -160t60 -196l-57 -39zM555 1620l158 141q57 -63 102 -161t57 -195l-55 -39zM602 1188h-96l-57 -584h114q209 0 237 292t-198 292zM612 1262q230 0 352 -90t103 -273q-25 -246 -266 -336l117 -323q28 -74 60 -117t89 -64l-12 -59h-146
q-109 0 -155 31t-82 145l-113 352h-117l-39 -393q-2 -47 52 -57l96 -19l-10 -59h-494l12 59l50 17q59 16 63 59l96 991q4 45 -51 60l-55 16l12 60h438z" />
    <glyph glyph-name="uni0211" unicode="&#x211;" horiz-adv-x="770" 
d="M420 1321l155 141q131 -143 162 -354l-57 -43zM94 1321l158 141q57 -63 102 -160t58 -194l-56 -43zM656 963q92 0 153 -60q-23 -131 -84 -256h-76l-18 191q-25 8 -41 8q-84 0 -168 -90l-74 -756l-223 -27l74 789q6 53 -27 65l-84 23l10 57q119 35 287 56h37
q12 -45 8 -121q134 121 226 121z" />
    <glyph glyph-name="uni0212" unicode="&#x212;" horiz-adv-x="1110" 
d="M670 1665q120 0 186 -82t59 -213h-71q-12 51 -62 91t-126 40q-78 0 -138 -41t-74 -90h-69q16 131 95 213t200 82zM602 1188h-96l-57 -584h114q209 0 237 292t-198 292zM612 1262q230 0 352 -90t103 -273q-25 -246 -266 -336l117 -323q28 -74 60 -117t89 -64l-12 -59h-146
q-109 0 -155 31t-82 145l-113 352h-117l-39 -393q-2 -47 52 -57l96 -19l-10 -59h-494l12 59l50 17q59 16 63 59l96 991q4 45 -51 60l-55 16l12 60h438z" />
    <glyph glyph-name="uni0213" unicode="&#x213;" horiz-adv-x="770" 
d="M496 1389q110 0 174 -86t45 -226h-66q-8 57 -55 103t-117 45q-70 1 -125 -45t-73 -103h-64q8 139 90 225t191 87zM656 963q92 0 153 -60q-23 -131 -84 -256h-76l-18 191q-25 8 -41 8q-84 0 -168 -90l-74 -756l-223 -27l74 789q6 53 -27 65l-84 23l10 57q119 35 287 56h37
q12 -45 8 -121q134 121 226 121z" />
    <glyph glyph-name="uni0214" unicode="&#x214;" horiz-adv-x="1204" 
d="M600 -31q-254 0 -348 121t-70 381l64 655q2 47 -49 60l-56 16l13 60h469l-13 -60l-67 -18q-33 -8 -47 -20t-17 -38l-71 -735q-31 -344 245 -344q299 0 342 447l60 632q3 46 -49 60l-68 16l12 60h297l-10 -60l-51 -18q-48 -16 -55 -30t-9 -28l-59 -618q-25 -270 -136 -405
q-112 -134 -327 -134zM690 1620l158 141q57 -63 102 -161t58 -195l-56 -39zM367 1620l155 141q56 -63 102 -160t60 -196l-57 -39z" />
    <glyph glyph-name="uni0215" unicode="&#x215;" horiz-adv-x="1058" 
d="M528 1321l156 141q131 -143 162 -354l-58 -43zM203 1321l157 141q56 -63 102 -160t58 -194l-55 -43zM295 -31q-100 0 -130 94t-9 306l37 393q6 55 -27 65l-84 23l10 57q137 39 287 56h37q16 -55 6 -142l-39 -395q-26 -213 3 -273q11 -24 36 -24q76 0 250 227
q51 526 57 576h223l-78 -778q-2 -27 8 -39t25 -9l101 25l16 -55q-150 -82 -270 -107q-51 11 -81 55t-22 105q2 45 11 115q-207 -275 -367 -275z" />
    <glyph glyph-name="uni0216" unicode="&#x216;" horiz-adv-x="1204" 
d="M778 1665q120 0 187 -82q66 -82 59 -213h-72q-12 51 -61 91t-126 40t-137 -41t-75 -90h-70q15 131 95 213t200 82zM600 -31q-254 0 -348 121t-70 381l64 655q2 47 -49 60l-56 16l13 60h469l-13 -60l-67 -18q-33 -8 -47 -20t-17 -38l-71 -735q-31 -344 245 -344
q299 0 342 447l60 632q3 46 -49 60l-68 16l12 60h297l-10 -60l-51 -18q-48 -16 -55 -30t-9 -28l-59 -618q-25 -270 -136 -405q-112 -134 -327 -134z" />
    <glyph glyph-name="uni0217" unicode="&#x217;" horiz-adv-x="1058" 
d="M600 1389q108 0 174 -86q64 -86 45 -226h-65q-8 57 -56 103t-116 45q-70 1 -126 -45t-73 -103h-64q9 139 91 225t190 87zM295 -31q-100 0 -130 94t-9 306l37 393q6 55 -27 65l-84 23l10 57q137 39 287 56h37q16 -55 6 -142l-39 -395q-26 -213 3 -273q11 -24 36 -24
q76 0 250 227q51 526 57 576h223l-78 -778q-2 -27 8 -39t25 -9l101 25l16 -55q-150 -82 -270 -107q-51 11 -81 55t-22 105q2 45 11 115q-207 -275 -367 -275z" />
    <glyph glyph-name="uni0218" unicode="&#x218;" horiz-adv-x="944" 
d="M258 -639l-6 57q90 43 133 87t59 112q-141 8 -133 144t135 137q60 0 92 -40t27 -116q-8 -136 -90 -240t-217 -141zM403 37q211 0 234 190q11 133 -167 266q-76 56 -150 118q-74 63 -121 151t-37 192q14 156 133 247t293 91q94 0 188 -26t152 -66q-23 -145 -78 -256h-90
l-31 260q-51 20 -137 20t-135 -58t-57 -138t41 -152q50 -72 125 -127q75 -53 150 -111t124 -139t39 -182q-13 -164 -143 -256t-320 -92q-109 0 -213 28t-164 77q17 145 70 256h92l39 -262q61 -31 163 -31z" />
    <glyph glyph-name="uni0219" unicode="&#x219;" horiz-adv-x="815" 
d="M186 -639l-6 57q90 43 133 87t60 112q-141 8 -133 144t135 137q59 0 91 -40t28 -116q-8 -136 -90 -240t-218 -141zM475 963q76 0 158 -25t135 -64q-18 -111 -74 -208h-73l-21 208q-45 23 -104 23q-58 0 -96 -33t-43 -90q-9 -101 138 -200q60 -40 120 -82q61 -42 101 -106
q40 -62 32 -138q-12 -131 -122 -205t-274 -74q-215 0 -325 105q24 109 75 207h78l19 -220q49 -29 138 -29t133 39q44 38 49 89t-36 95t-101 83t-121 83q-60 44 -99 114t-31 155q13 123 107 198t237 75z" />
    <glyph glyph-name="uni021A" unicode="&#x21a;" horiz-adv-x="1046" 
d="M283 -639l-7 57q90 43 134 87q43 44 59 112q-141 8 -133 144t135 137q59 0 91 -40t28 -116q-8 -136 -90 -240t-217 -141zM850 1188h-123l-100 -1053q-4 -45 51 -57l86 -19l-10 -59h-514l12 59l80 17q57 14 61 59l103 1053h-127q-66 0 -105 -74l-92 -168l-59 12
q4 168 53 304h903q20 -137 -4 -304l-68 -12l-57 170q-25 72 -90 72z" />
    <glyph glyph-name="uni021B" unicode="&#x21b;" horiz-adv-x="585" 
d="M436 82q25 0 119 20l-14 -71q-90 -61 -203 -62q-223 0 -199 258l62 629h-109l10 59q113 27 185 99t116 196h54l-27 -278h164l-10 -76h-162l-62 -641q-10 -133 76 -133zM90 -639l-6 57q90 43 133 87t59 112q-141 8 -133 144t136 137q59 0 91 -40t27 -116q-8 -136 -90 -240
t-217 -141z" />
    <glyph glyph-name="uni0259" unicode="&#x259;" horiz-adv-x="901" 
d="M410 31q55 0 104 79t76 244l-281 -14q-12 -309 101 -309zM399 -31q-184 -1 -264 139t-61 324h526l4 29q18 180 -33 291t-174 110q-74 0 -131 -37t-125 -116l-37 28q141 225 381 226q181 -1 281 -137t81 -356t-141 -360t-307 -141z" />
    <glyph glyph-name="circumflex" unicode="&#x2c6;" horiz-adv-x="612" 
d="M135 1112q135 213 271 334h65q121 -137 205 -334l-49 -45l-207 190l-242 -190z" />
    <glyph glyph-name="caron" unicode="&#x2c7;" horiz-adv-x="612" 
d="M170 1397l51 43l205 -189l244 189l43 -45q-121 -193 -271 -334h-65q-119 133 -207 336z" />
    <glyph glyph-name="breve" unicode="&#x2d8;" horiz-adv-x="612" 
d="M419 1241q71 0 125 44t77 104h63q-8 -139 -89 -225t-191 -87q-110 0 -174 86q-64 87 -46 226h64q8 -57 54 -103t117 -45z" />
    <glyph glyph-name="dotaccent" unicode="&#x2d9;" horiz-adv-x="352" 
d="M296 1364q56 0 91 -35t34 -101t-36 -104q-35 -37 -91 -37t-90 37t-33 104q1 68 35 102t90 34z" />
    <glyph glyph-name="ring" unicode="&#x2da;" horiz-adv-x="464" 
d="M254 1266q0 -53 28 -82t70 -29q43 0 72 31t29 84t-28 83q-28 29 -70 29q-41 0 -71 -32t-30 -84zM348 1055q-94 -1 -148 59t-52 155q0 95 58 155t149 60t147 -60q56 -62 56 -154q-1 -92 -58 -154q-58 -62 -152 -61z" />
    <glyph glyph-name="ogonek" unicode="&#x2db;" horiz-adv-x="534" 
d="M213 -412q-94 0 -145 50t-42 143q9 92 100 150t257 102l6 -41q-184 -76 -194 -209q-5 -49 17 -80t64 -31t78 27l21 -43q-68 -68 -162 -68z" />
    <glyph glyph-name="tilde" unicode="&#x2dc;" horiz-adv-x="614" 
d="M318 1346q60 0 131 -40q72 -40 112 -40q68 0 86 69h60q-3 -100 -51 -175t-128 -75q-55 0 -124 45t-111 46q-63 0 -94 -74h-58q9 102 63 173t114 71z" />
    <glyph glyph-name="hungarumlaut" unicode="&#x2dd;" horiz-adv-x="585" 
d="M426 1090q57 248 125 358l162 -82l-199 -303zM160 1090q61 250 125 358l161 -82l-198 -303z" />
    <glyph glyph-name="uni03BC" unicode="&#x3bc;" horiz-adv-x="1075" 
d="M430 129q72 0 250 227l55 576h223l-77 -778q-2 -27 7 -39t25 -9l103 25l14 -55q-150 -82 -270 -107q-49 11 -80 55t-22 130t10 88q-184 -240 -322 -260l-29 -318l-229 -51l111 1147q6 55 -27 65l-84 23l10 57q141 39 287 56h37q16 -55 6 -142l-45 -461q-15 -163 13 -211
q11 -18 34 -18z" />
    <glyph glyph-name="pi" unicode="&#x3c0;" horiz-adv-x="1071" 
d="M307 0h-164l84 870h-139l16 154h1008l-16 -154h-154l-84 -870h-162l86 870h-391z" />
    <glyph glyph-name="uni0401" unicode="&#x401;" horiz-adv-x="1007" 
d="M818 1647q58 0 93 -37t34 -105q-1 -69 -36 -105t-93 -36t-93 36t-34 106q1 69 36 105t93 36zM426 1364q-59 0 -93 36t-34 105q4 141 131 142q57 0 92 -37t34 -105q-1 -69 -36 -105t-94 -36zM737 1188h-231l-47 -504h207q39 0 59 47l51 115h76l-57 -397h-66l-27 120
q-8 41 -45 41h-206l-52 -536h248q68 0 94 49l99 176h88q-6 -164 -51 -299h-830l12 59l50 17q59 16 63 59l96 991q4 45 -49 60l-55 16l10 60h811q12 -115 -22 -295h-84l-54 166q-16 55 -88 55z" />
    <glyph glyph-name="uni0402" unicode="&#x402;" horiz-adv-x="1280" 
d="M850 1188h-123l-43 -443q109 35 197 35q199 0 287 -112t73 -273q-20 -188 -133 -338t-285 -215l-22 52q147 121 184 505q12 137 -29 216t-135 79q-57 0 -143 -24l-51 -535q-4 -45 51 -57l86 -19l-10 -59h-514l12 59l80 17q57 14 61 59l103 1053h-127q-66 0 -105 -74
l-92 -168l-59 12q4 168 53 304h903q20 -137 -4 -304l-68 -12l-57 170q-25 72 -90 72z" />
    <glyph glyph-name="uni0403" unicode="&#x403;" horiz-adv-x="899" 
d="M483 1354l-55 92l311 264l88 -174zM705 1188h-199l-103 -1053q-1 -27 11 -38t41 -19l71 -19l-10 -59h-469l12 59l50 17q59 16 63 59l96 991q4 45 -51 60l-55 16l12 60h750q18 -137 -4 -304l-70 -12l-57 170q-25 72 -88 72z" />
    <glyph glyph-name="uni0404" unicode="&#x404;" horiz-adv-x="1126" 
d="M649 -31q-283 0 -431 163t-116 490q32 326 224 498q193 172 456 172t392 -108q-23 -145 -89 -254h-86l-34 266q-57 29 -158 29q-168 1 -285 -147t-149 -402h463l-7 -74h-462q-17 -283 73 -422t240 -139q186 0 330 129l30 -51q-156 -150 -391 -150z" />
    <glyph glyph-name="uni0405" unicode="&#x405;" horiz-adv-x="944" 
d="M403 37q211 0 234 190q11 133 -167 266q-76 56 -150 118q-74 63 -121 151t-37 192q14 156 133 247t293 91q94 0 188 -26t152 -66q-23 -145 -78 -256h-90l-31 260q-51 20 -137 20t-135 -58t-57 -138t41 -152q50 -72 125 -127q75 -53 150 -111t124 -139t39 -182
q-13 -164 -143 -256t-320 -92q-109 0 -213 28t-164 77q17 145 70 256h92l39 -262q61 -31 163 -31z" />
    <glyph glyph-name="uni0406" unicode="&#x406;" horiz-adv-x="612" 
d="M268 1126q4 45 -51 60l-55 16l12 60h451l-13 -60l-49 -18q-49 -16 -55 -30q-6 -13 -8 -28l-97 -991q-4 -32 22 -46q9 -5 30 -11l53 -19l-10 -59h-451l12 59l50 17q59 16 63 59z" />
    <glyph glyph-name="uni0407" unicode="&#x407;" horiz-adv-x="612" 
d="M613 1647q57 0 93 -37t34 -105q-2 -69 -36 -105t-92 -36t-94 36q-35 36 -34 106q1 69 36 105t93 36zM221 1364q-59 0 -93 36t-34 105q4 141 131 142q57 0 92 -37t34 -105q-1 -69 -36 -105t-94 -36zM268 1126q4 45 -51 60l-55 16l12 60h451l-13 -60l-49 -18
q-49 -16 -55 -30q-6 -13 -8 -28l-97 -991q-4 -32 22 -46q9 -5 30 -11l53 -19l-10 -59h-451l12 59l50 17q59 16 63 59z" />
    <glyph glyph-name="uni0408" unicode="&#x408;" horiz-adv-x="587" 
d="M389 68q-18 -190 -131 -308t-317 -143l-9 64q55 27 81 43t60 52q59 63 77 238l108 1112q2 27 -10 40t-39 20l-55 16l12 60h450l-12 -60l-49 -18q-8 -4 -16 -6q-7 -2 -13 -6t-8 -4q-2 -1 -6 -4t-6 -5t-5 -6t-4 -7t-3 -8t-2 -12z" />
    <glyph glyph-name="uni0409" unicode="&#x409;" horiz-adv-x="1552" 
d="M1055 643h-78l-57 -571h79q223 0 252 299q12 139 -32 206q-45 66 -164 66zM76 150q59 0 112 80t107 250q54 169 79 353q25 183 36 273q2 53 -68 74l-68 20l13 62h862l-14 -60l-50 -18q-36 -12 -50 -28q-9 -11 -11 -30l-41 -413h117q219 0 321 -90t86 -259
q-16 -168 -144 -266t-329 -98h-465l11 59l53 17q57 16 61 59l101 1053h-297q-66 -519 -144 -779t-171 -363q-56 -62 -122 -77q-74 66 -96 172l41 49l29 -26q14 -14 41 -14z" />
    <glyph glyph-name="uni040A" unicode="&#x40a;" horiz-adv-x="1732" 
d="M1235 643h-78l-55 -571h78q221 0 252 293q12 141 -33 209t-164 69zM1280 713q220 0 322 -92t86 -262q-16 -171 -144 -265t-327 -94h-465l10 59l51 17q57 16 61 59l48 486h-471l-48 -486q-1 -27 11 -38t41 -19l53 -19l-10 -59h-451l12 59l50 17q59 16 63 59l96 991
q4 45 -51 60l-55 16l12 60h451l-13 -60l-49 -18q-49 -16 -55 -30q-6 -13 -8 -28l-43 -432h471l43 432q4 45 -49 60l-56 16l13 60h448l-10 -60l-49 -18q-7 -4 -16 -6t-14 -6t-8 -4l-12 -8t-10 -12q-2 -6 -4 -10q-2 -5 -2 -12l-39 -413h117z" />
    <glyph glyph-name="uni040B" unicode="&#x40b;" horiz-adv-x="1335" 
d="M860 678q-78 0 -186 -51l-47 -492q-4 -45 51 -57l72 -19l-11 -59h-499l12 59l80 17q57 14 61 59l103 1053h-127q-66 0 -105 -74l-92 -168l-59 12q4 168 53 304h903q20 -137 -4 -304l-68 -12l-57 170q-25 72 -90 72h-123l-47 -486q154 82 287 82q287 0 260 -297l-35 -352
q-4 -32 21 -46q9 -5 30 -11l60 -19l-13 -59h-465l13 59l59 17q57 16 61 59l29 303q14 139 -17 190q-32 50 -110 50z" />
    <glyph glyph-name="uni040C" unicode="&#x40c;" horiz-adv-x="1153" 
d="M987 1460l-412 -98l-18 65q53 70 174 138t227 90zM268 1126q4 45 -51 60l-55 16l12 60h451l-13 -60l-49 -18q-49 -16 -55 -30q-6 -13 -8 -28l-47 -473l481 475q32 32 15 51q-7 7 -21 9l-84 14l10 60h352l-10 -60l-88 -20q-37 -15 -50 -28q-12 -14 -26 -26t-18 -16
l-301 -299l297 -612q55 -115 135 -142l-10 -59h-316l-301 618l-76 -73l-39 -410q-1 -27 11 -38t41 -19l53 -19l-10 -59h-451l12 59l50 17q59 16 63 59z" />
    <glyph glyph-name="uni040E" unicode="&#x40e;" horiz-adv-x="1003" 
d="M714 1534q77 0 134 40t78 91h71q-18 -129 -99 -212t-202 -83t-185 83t-54 212h69q6 -49 58 -90t130 -41zM987 1120l-360 -755q-166 -350 -422 -396q-80 63 -111 172l51 52q72 -68 127 -68q127 4 217 129l-301 856q-23 61 -53 72l-61 20l12 60h508l-10 -60l-101 -26
q-31 -6 -39 -20t2 -46l187 -578l276 574q29 63 -22 74l-96 22l10 60h319l-10 -60l-43 -16q-57 -19 -80 -66z" />
    <glyph glyph-name="uni040F" unicode="&#x40f;" horiz-adv-x="1312" 
d="M760 0q-40 0 -58 -23t-34 -81l-43 -189h-58l-6 193q-6 100 -67 100h-449l12 59l52 17q37 15 48 27q11 13 13 32l96 991q4 33 -12 43q-16 9 -37 17l-55 16l12 60h451l-13 -60l-49 -18q-4 -2 -13 -5t-14 -7q-4 -4 -8 -4q-4 -1 -8 -4t-6 -5t-5 -6t-4 -7t-3 -8t-2 -12
l-103 -1052h469l101 1052q4 43 -47 60l-56 16l10 60h451l-10 -60l-51 -18q-4 -2 -13 -5t-15 -6q-5 -4 -8 -5t-7 -4q-5 -3 -7 -5t-5 -6t-4 -7t-3 -8t-2 -12l-94 -991q-4 -32 19 -45q7 -4 30 -12l55 -19l-12 -59h-438z" />
    <glyph glyph-name="uni0410" unicode="&#x410;" horiz-adv-x="1099" 
d="M528 1042l-229 -544h350zM725 158l-59 264h-398l-112 -268q-25 -61 30 -72l119 -23l-10 -59h-348l10 59l66 21q33 10 55 63l469 1119h184l250 -1106q16 -63 51 -76l58 -21l-13 -59h-526l10 59l109 19q71 14 55 80z" />
    <glyph glyph-name="uni0411" unicode="&#x411;" horiz-adv-x="1032" 
d="M530 643h-75l-56 -571h76q223 0 252 293q14 141 -32 209t-165 69zM715 1188h-209l-45 -475h114q221 0 323 -92t87 -262q-16 -171 -144 -265t-327 -94h-467l12 59l50 17q59 16 63 59l96 991q4 45 -51 60l-55 16l12 60h760q20 -137 -4 -304l-68 -12l-59 170q-20 72 -88 72z
" />
    <glyph glyph-name="uni0412" unicode="&#x412;" horiz-adv-x="1089" 
d="M604 1188h-98l-45 -479h104q85 1 135 73t60 183q20 223 -156 223zM555 633h-102l-54 -559h125q217 0 242 272q12 123 -37 205t-174 82zM643 1262q189 0 289 -71t86 -218q-10 -98 -72 -183t-192 -118q150 -31 216 -121t54 -203q-16 -162 -133 -255t-305 -93h-539l12 59
l50 17q59 16 63 59l96 991q4 45 -51 60l-55 16l12 60h469z" />
    <glyph glyph-name="uni0413" unicode="&#x413;" horiz-adv-x="899" 
d="M705 1188h-199l-103 -1053q-1 -27 11 -38t41 -19l71 -19l-10 -59h-469l12 59l50 17q59 16 63 59l96 991q4 45 -51 60l-55 16l12 60h750q18 -137 -4 -304l-70 -12l-57 170q-25 72 -88 72z" />
    <glyph glyph-name="uni0414" unicode="&#x414;" horiz-adv-x="1138" 
d="M532 1188q-84 -610 -319 -1114h469l111 1114h-261zM829 0h-645q-37 0 -55 -17t-37 -69l-67 -207h-60q4 197 45 367h123q127 262 209 542t104 484q2 37 -13 50t-62 28l-78 22l12 62h846l-12 -60l-43 -14q-15 -8 -24 -10t-16 -6t-10 -6q-2 -3 -8 -7q-14 -10 -14 -33
l-104 -1052h102q8 -172 -29 -367h-57l-27 199q-8 54 -23 74t-57 20z" />
    <glyph glyph-name="uni0415" unicode="&#x415;" horiz-adv-x="1007" 
d="M737 1188h-231l-47 -504h207q39 0 59 47l51 115h76l-57 -397h-66l-27 120q-8 41 -45 41h-206l-52 -536h248q68 0 94 49l99 176h88q-6 -164 -51 -299h-830l12 59l50 17q59 16 63 59l96 991q4 45 -49 60l-55 16l10 60h811q12 -115 -22 -295h-84l-54 166q-16 55 -88 55z" />
    <glyph glyph-name="uni0416" unicode="&#x416;" horiz-adv-x="1693" 
d="M809 1126q2 47 -51 60l-53 16l10 60h450l-10 -60l-51 -18q-38 -13 -48 -26q-11 -13 -14 -32l-47 -471l480 473q31 31 21 45q-11 13 -26 15l-88 14l13 60h354l-10 -60l-88 -20q-33 -10 -97 -70l-301 -299l297 -612q57 -115 138 -142l-11 -59h-317l-301 618l-74 -71
l-39 -412q-4 -33 22 -46q9 -5 29 -11l54 -19l-13 -59h-450l10 59l53 17q57 16 62 59l39 410l-62 76l-418 -621h-327l12 59q84 25 164 142l414 612l-244 299q-51 59 -82 70l-84 20l10 60h357l-13 -60l-88 -14q-23 -4 -29 -20t15 -40l385 -473z" />
    <glyph glyph-name="uni0417" unicode="&#x417;" horiz-adv-x="948" 
d="M386 35q112 0 171 88q59 89 69 205t-62 202q-73 86 -224 95l8 65q152 26 220 94t81 193q12 72 -17 160q-30 90 -150 90q-64 0 -115 -27l-78 -260h-92q-33 92 -27 234q135 119 373 118q170 0 271 -83t88 -212t-105 -223t-256 -110q170 -23 260 -114t78 -224
q-13 -170 -145 -264t-328 -93q-268 0 -386 123q29 154 84 234h89l20 -260q61 -31 173 -31z" />
    <glyph glyph-name="uni0418" unicode="&#x418;" horiz-adv-x="1312" 
d="M268 1126q4 45 -51 60l-55 16l12 60h451l-13 -60l-49 -18q-49 -16 -55 -30q-6 -13 -8 -28l-88 -927l569 1063h344l-10 -60l-49 -18q-7 -4 -16 -6t-14 -6t-8 -4q-3 -1 -7 -4q-5 -3 -7 -5t-5 -6t-4 -7t-3 -8t-2 -12l-94 -991q-4 -32 21 -46q9 -5 30 -11l53 -19l-10 -59
h-450l10 59l51 17q31 8 45 20t16 39l91 934l-570 -1069h-346l12 59l50 17q59 16 63 59z" />
    <glyph glyph-name="uni0419" unicode="&#x419;" horiz-adv-x="1312" 
d="M806 1534q77 0 134 40t78 91h72q-18 -129 -100 -212t-202 -83q-121 0 -185 83t-54 212h69q6 -49 58 -90t130 -41zM268 1126q4 45 -51 60l-55 16l12 60h451l-13 -60l-49 -18q-49 -16 -55 -30q-6 -13 -8 -28l-88 -927l569 1063h344l-10 -60l-49 -18q-7 -4 -16 -6t-14 -6
t-8 -4q-3 -1 -7 -4q-5 -3 -7 -5t-5 -6t-4 -7t-3 -8t-2 -12l-94 -991q-4 -32 21 -46q9 -5 30 -11l53 -19l-10 -59h-450l10 59l51 17q31 8 45 20t16 39l91 934l-570 -1069h-346l12 59l50 17q59 16 63 59z" />
    <glyph glyph-name="uni041A" unicode="&#x41a;" horiz-adv-x="1153" 
d="M268 1126q4 45 -51 60l-55 16l12 60h451l-13 -60l-49 -18q-49 -16 -55 -30q-6 -13 -8 -28l-47 -473l481 475q32 32 15 51q-7 7 -21 9l-84 14l10 60h352l-10 -60l-88 -20q-37 -15 -50 -28q-12 -14 -26 -26t-18 -16l-301 -299l297 -612q55 -115 135 -142l-10 -59h-316
l-301 618l-76 -73l-39 -410q-1 -27 11 -38t41 -19l53 -19l-10 -59h-451l12 59l50 17q59 16 63 59z" />
    <glyph glyph-name="uni041B" unicode="&#x41b;" horiz-adv-x="1134" 
d="M76 150q59 0 112 80t107 250q54 169 79 353q25 183 36 273q2 53 -68 74l-68 20l13 62h862l-14 -60l-50 -18q-36 -12 -50 -28q-9 -11 -11 -30l-96 -991q-4 -32 21 -46q9 -5 30 -11l53 -19l-10 -59h-453l11 59l53 17q57 16 61 59l101 1053h-297q-66 -519 -144 -779
t-171 -363q-56 -62 -122 -77q-74 66 -96 172l41 49l29 -26q14 -14 41 -14z" />
    <glyph glyph-name="uni041C" unicode="&#x41c;" horiz-adv-x="1548" 
d="M584 0q-195 745 -262 1008l-84 -873q-3 -27 13 -36q17 -9 38 -15l82 -25l-13 -59h-315l10 59l53 21q31 10 46 20q14 10 16 35l100 1024q-20 25 -92 43l12 60h320l268 -1037l479 1037h308l-13 -60q-12 -4 -49 -14t-59 -17l-99 -1036q-4 -32 22 -46q9 -5 28 -11l55 -19
l-12 -59h-451l10 59l52 17q59 16 63 59l78 826l-443 -961h-161z" />
    <glyph glyph-name="uni041D" unicode="&#x41d;" horiz-adv-x="1314" 
d="M268 1126q4 45 -51 60l-55 16l12 60h451l-13 -60l-49 -18q-49 -16 -55 -30q-6 -13 -8 -28l-43 -432h471l41 432q4 45 -47 60l-56 16l11 60h450l-12 -60l-49 -18q-7 -4 -16 -6t-14 -6t-7 -4q-2 -2 -11 -8t-10 -12q-2 -6 -4 -10q-2 -5 -2 -12l-94 -991q-4 -32 21 -46
q9 -5 28 -11l55 -19l-12 -59h-450l12 59l49 17q59 16 63 59l46 486h-469l-48 -486q-4 -32 22 -46q9 -5 30 -11l53 -19l-10 -59h-451l12 59l50 17q59 16 63 59z" />
    <glyph glyph-name="uni041E" unicode="&#x41e;" horiz-adv-x="1282" 
d="M613 35q144 0 245 165q100 165 125 428t-41 430t-210 167t-246 -164t-129 -424q-26 -260 43 -431t213 -171zM608 -31q-256 0 -397 174q-141 173 -111 481t207 488q176 180 428 180t393 -174q140 -174 110 -485t-202 -487t-428 -177z" />
    <glyph glyph-name="uni041F" unicode="&#x41f;" horiz-adv-x="1302" 
d="M268 1126q4 45 -51 60l-55 16l12 60h1143l-12 -60l-52 -18q-4 -2 -13 -5t-14 -7t-8 -4q-2 -1 -6 -4t-7 -5t-5 -6t-3 -7t-3 -8t-2 -12l-96 -991q-2 -27 10 -38t41 -19l53 -19l-12 -59h-451l13 59l51 17q31 8 45 20t16 39l103 1053h-459l-103 -1053q-1 -27 11 -38t41 -19
l53 -19l-10 -59h-451l12 59l50 17q59 16 63 59z" />
    <glyph glyph-name="uni0420" unicode="&#x420;" horiz-adv-x="1044" 
d="M598 1188h-92l-62 -625h111q104 0 161 88q56 88 68 234q31 303 -186 303zM625 1262q217 0 331 -92t96 -286q-20 -192 -150 -294t-335 -103h-129l-35 -352q-2 -51 52 -57l110 -19l-12 -59h-506l12 59l50 17q59 16 63 59l96 991q4 45 -51 60l-55 16l12 60h451z" />
    <glyph glyph-name="uni0421" unicode="&#x421;" horiz-adv-x="1132" 
d="M655 -31q-285 0 -437 163t-120 479q31 317 224 499q194 182 448 182t401 -118q-29 -141 -81 -242h-91l-34 260q-55 33 -156 33q-176 0 -301 -166t-152 -438q-26 -271 66 -429t266 -157q78 0 135 22l123 250h98q6 -158 -36 -270q-147 -68 -353 -68z" />
    <glyph glyph-name="uni0422" unicode="&#x422;" horiz-adv-x="1046" 
d="M850 1188h-123l-100 -1053q-4 -45 51 -57l86 -19l-10 -59h-514l12 59l80 17q57 14 61 59l103 1053h-127q-66 0 -105 -74l-92 -168l-59 12q4 168 53 304h903q20 -137 -4 -304l-68 -12l-57 170q-25 72 -90 72z" />
    <glyph glyph-name="uni0423" unicode="&#x423;" horiz-adv-x="1003" 
d="M987 1120l-360 -755q-166 -350 -422 -396q-80 63 -111 172l51 52q72 -68 127 -68q127 4 217 129l-301 856q-23 61 -53 72l-61 20l12 60h508l-10 -60l-101 -26q-31 -6 -39 -20t2 -46l187 -578l276 574q29 63 -22 74l-96 22l10 60h319l-10 -60l-43 -16q-57 -19 -80 -66z
" />
    <glyph glyph-name="uni0424" unicode="&#x424;" horiz-adv-x="1449" 
d="M1186 629q14 152 -59 253t-220 130l-73 -768q152 31 245 132t107 253zM430 884q-92 -103 -106 -257t60 -254t218 -129l74 770q-154 -27 -246 -130zM688 1126q4 45 -49 60l-57 16l12 60h450l-10 -60l-51 -18q-49 -16 -55 -30q-6 -13 -8 -28l-7 -51q257 -20 403 -130
q146 -109 127 -313t-189 -318t-427 -134l-4 -45q0 -42 51 -57l56 -19l-12 -59h-451l12 59l49 17q59 16 64 59l4 45q-256 20 -402 132t-126 317t186 315t428 131z" />
    <glyph glyph-name="uni0425" unicode="&#x425;" horiz-adv-x="1122" 
d="M492 1122l180 -366l278 358q39 53 -4 66l-92 22l12 60h336l-10 -60l-59 -16q-53 -12 -97 -72l-329 -428l262 -532q25 -55 69 -72l49 -23l-12 -59h-504l13 59l84 19q51 12 20 74l-192 393l-287 -389q-48 -67 14 -78l113 -19l-10 -59h-357l11 59l61 17q37 10 88 82l332 454
l-242 496q-31 63 -59 74l-60 20l11 60h505l-10 -60l-80 -18q-54 -15 -34 -62z" />
    <glyph glyph-name="uni0426" unicode="&#x426;" horiz-adv-x="1314" 
d="M1014 0h-969l12 59l52 17q57 16 61 59l96 991q2 27 -10 40t-39 20l-55 16l12 60h451l-13 -60l-49 -18q-49 -16 -55 -30q-6 -13 -8 -28l-103 -1052h469l103 1052q3 46 -49 60l-56 16l13 60h450l-12 -60l-49 -18q-7 -4 -16 -6t-14 -6t-7 -4q-2 -2 -11 -8t-10 -12
q-2 -6 -4 -10q-2 -5 -2 -12l-102 -1052h106q6 -180 -26 -367h-60l-26 199q-8 54 -24 74t-56 20z" />
    <glyph glyph-name="uni0427" unicode="&#x427;" horiz-adv-x="1177" 
d="M455 471q-303 0 -275 307l33 348q6 49 -37 60l-67 16l10 60h471l-10 -60l-66 -18q-31 -8 -45 -20t-16 -38l-29 -286q-12 -148 25 -200t125 -52t212 67l48 471q4 45 -50 60l-57 16l12 60h451l-10 -60l-50 -18q-61 -20 -65 -58l-94 -991q-4 -32 21 -46q9 -5 28 -11l55 -19
l-12 -59h-498l13 59l96 17q57 10 63 59l43 453q-182 -117 -325 -117z" />
    <glyph glyph-name="uni0428" unicode="&#x428;" horiz-adv-x="1810" 
d="M866 1126q4 45 -49 60l-55 16l12 60h451l-13 -60l-49 -18q-49 -16 -55 -30q-6 -13 -8 -28l-103 -1052h365l102 1052q2 27 -10 40t-39 20l-55 16l12 60h449l-11 -60l-49 -18q-49 -16 -55 -30q-6 -13 -8 -28l-96 -991q-4 -32 21 -46q9 -5 30 -11l53 -19l-10 -59h-1649
l12 59l50 17q59 16 63 59l96 991q4 45 -51 60l-55 16l12 60h451l-13 -60l-49 -18q-49 -16 -55 -30q-6 -13 -8 -28l-101 -1052h365z" />
    <glyph glyph-name="uni0429" unicode="&#x429;" horiz-adv-x="1810" 
d="M1509 0h-1464l12 59l52 17q57 16 61 59l96 991q2 27 -10 40t-39 20l-55 16l12 60h451l-13 -60l-49 -18q-49 -16 -55 -30q-6 -13 -8 -28l-103 -1052h367l102 1052q4 45 -49 60l-57 16l14 60h449l-11 -60l-51 -18q-51 -18 -56 -32t-7 -26l-101 -1052h365l100 1052
q2 27 -10 40t-39 20l-55 16l12 60h451l-11 -60l-49 -18q-39 -12 -51 -26q-12 -13 -14 -32l-101 -1052h107q4 -176 -27 -367h-61l-25 199q-8 54 -23 74t-57 20z" />
    <glyph glyph-name="uni042A" unicode="&#x42a;" horiz-adv-x="1247" 
d="M750 643h-78l-56 -571h78q223 0 252 293q14 141 -32 209t-164 69zM795 713q221 0 323 -92t86 -262q-16 -171 -144 -265t-329 -94h-467l15 59l51 17q55 16 59 59l103 1053h-125q-63 0 -105 -74l-92 -168l-61 12q2 158 53 304h710l-12 -60l-80 -18q-31 -8 -45 -20t-16 -38
l-41 -413h117z" />
    <glyph glyph-name="uni042B" unicode="&#x42b;" horiz-adv-x="1589" 
d="M530 643h-75l-56 -571h76q223 0 252 293q14 141 -32 209t-165 69zM1245 1126q4 45 -51 60l-55 16l12 60h451l-13 -60l-49 -18q-49 -16 -55 -30q-6 -13 -8 -28l-97 -991q-4 -33 22 -46q9 -5 30 -11l53 -19l-10 -59h-451l12 59l49 17q59 16 64 59zM514 0h-469l14 59l52 17
q57 18 61 59l96 991q4 45 -51 60l-55 16l12 60h451l-13 -60l-49 -18q-49 -16 -55 -30q-6 -13 -8 -28l-39 -413h114q221 0 323 -92t87 -262q-16 -171 -144 -265t-327 -94z" />
    <glyph glyph-name="uni042C" unicode="&#x42c;" horiz-adv-x="1028" 
d="M530 643h-75l-56 -571h76q223 0 252 293q14 141 -32 209t-165 69zM514 0h-469l14 59l52 17q57 18 61 59l96 991q4 45 -51 60l-55 16l12 60h451l-13 -60l-49 -18q-49 -16 -55 -30q-6 -13 -8 -28l-39 -413h114q221 0 323 -92t87 -262q-16 -171 -144 -265t-327 -94z" />
    <glyph glyph-name="uni042D" unicode="&#x42d;" horiz-adv-x="1128" 
d="M397 41q147 0 267 140q119 140 153 421h-461l9 74h458q18 254 -70 401q-89 147 -253 148q-104 0 -164 -29l-86 -266h-88q-43 111 -37 254q145 108 409 108t424 -172t128 -498t-210 -490q-178 -163 -464 -163q-234 0 -363 150l43 51q63 -68 133 -98t172 -31z" />
    <glyph glyph-name="uni042E" unicode="&#x42e;" horiz-adv-x="1849" 
d="M1188 35q145 0 243 164q97 164 121 427t-43 431q-68 168 -212 168t-244 -163t-126 -424t45 -432t216 -171zM1175 -31q-255 0 -395 174q-139 174 -110 478h-221l-48 -486q-1 -27 11 -38t41 -19l53 -19l-10 -59h-451l12 59l49 17q59 16 64 59l96 991q4 45 -51 60l-55 16
l12 60h451l-13 -60l-49 -18q-49 -16 -55 -30q-6 -13 -8 -28l-43 -432h225q47 279 220 439q173 159 418 159t383 -174t108 -485t-204 -488q-175 -176 -430 -176z" />
    <glyph glyph-name="uni042F" unicode="&#x42f;" horiz-adv-x="1114" 
d="M604 604h115l55 584h-96q-223 0 -252 -292t178 -292zM143 0h-153l10 59q59 19 99 63t81 118l180 323q-106 43 -159 131t-43 205q16 170 159 266t367 97h449l-11 -60l-59 -16q-55 -13 -59 -60l-97 -991q-4 -45 51 -59l58 -17l-10 -59h-494l8 59l92 19q57 10 62 57l37 393
h-119l-178 -352q-58 -116 -110 -146t-161 -30z" />
    <glyph glyph-name="uni0430" unicode="&#x430;" horiz-adv-x="1032" 
d="M428 102q80 0 215 187l59 598q-55 10 -88 10q-90 0 -152 -57q-62 -58 -91 -150q-50 -159 -52 -338q0 -250 109 -250zM344 -31q-110 -1 -190 103t-80 295q0 254 150 425q151 171 390 171q141 0 312 -72l-72 -737q-2 -27 7 -39t26 -9l100 25l14 -55q-152 -82 -270 -107
q-96 23 -92 160v47q-156 -207 -295 -207z" />
    <glyph glyph-name="uni0431" unicode="&#x431;" horiz-adv-x="1030" 
d="M504 31q92 -1 147 109t71 280t-18 280t-126 111q-92 0 -148 -110q-56 -109 -72 -281t19 -280t127 -109zM496 -31q-194 0 -298 165q-104 164 -76 444t140 450q113 170 336 213q32 6 102 13q70 8 114 14q116 17 167 90h43q-12 -144 -96 -230t-280 -116t-294 -125
q-98 -94 -141 -262l6 -2q129 250 377 249q188 0 293 -124q104 -125 85 -328q-20 -203 -152 -327t-326 -124z" />
    <glyph glyph-name="uni0432" unicode="&#x432;" horiz-adv-x="899" 
d="M541 897q-91 0 -145 -116t-68 -298q260 45 274 275q0 70 -11 104t-50 35zM442 35q61 0 98 61q36 62 40 156q10 176 -88 197q-111 -27 -168 -37q-14 -377 118 -377zM410 -31q-166 0 -256 114t-79 319t132 375q59 83 157 134t223 51q127 0 193 -56t64 -163
q-8 -158 -221 -249q104 -6 155 -68t49 -143q-8 -135 -129 -225q-122 -90 -288 -89z" />
    <glyph glyph-name="uni0433" unicode="&#x433;" horiz-adv-x="720" 
d="M291 -31q-92 0 -150 41q-57 41 -57 121t80 212t160 252t79 169q0 76 -67 76q-41 0 -100 -38t-117 -108l-45 56q188 213 389 213q80 0 138 -39q59 -39 61 -113t-48 -171t-111 -175q-163 -212 -163 -293q0 -37 22 -57t56 -21q88 0 207 135l47 -49q-188 -211 -381 -211z" />
    <glyph glyph-name="uni0434" unicode="&#x434;" horiz-adv-x="1013" 
d="M707 582q0 114 -17 235q-66 66 -130 66q-174 0 -221 -343q-11 -81 -11 -200t41 -212t123 -93q59 0 103 48q112 122 112 499zM526 963q78 0 146 -39q-43 182 -132 301t-229 202l23 50q284 -74 446 -312t170 -508t-85 -459q-50 -104 -151 -166t-261 -62t-268 122
q-107 123 -107 340t128 374t320 157z" />
    <glyph glyph-name="uni0435" unicode="&#x435;" 
d="M535 895q-81 0 -141 -130t-66 -321q115 33 208 109t93 195q1 63 -25 105t-69 42zM872 724q0 -99 -78 -173q-142 -133 -466 -180q8 -135 68 -213t144 -78t140 36q57 36 125 109l47 -45q-156 -211 -377 -211q-186 0 -292 116q-105 116 -105 335t131 381t342 162
q141 0 231 -70t90 -169z" />
    <glyph glyph-name="uni0436" unicode="&#x436;" horiz-adv-x="2002" 
d="M311 -31q-84 0 -165 27t-126 65q23 121 80 226h70l20 -226q57 -27 113 -26q106 0 175 134t75 345q8 162 -38 258t-142 96q-127 0 -246 -145l-35 33q74 100 157 153t200 54q164 0 260 -126t86 -323q-4 -57 -9 -84l125 174l33 328h225l-47 -479l193 268q135 242 403 242
q84 0 166 -28t125 -67q-23 -119 -80 -223h-67l-23 225q-61 27 -113 27q-106 0 -174 -133q-68 -132 -74 -320q-13 -380 179 -383q127 1 246 148l36 -35q-77 -100 -159 -152t-199 -53q-162 0 -258 126t-86 325q0 41 6 84l-133 -189l-31 -315h-229l47 465l-184 -260
q-133 -236 -402 -236z" />
    <glyph glyph-name="uni0437" unicode="&#x437;" horiz-adv-x="817" 
d="M385 895q-57 0 -94 -18l-60 -199h-77q-33 84 -23 184q125 100 315 101q140 1 224 -61t79 -154t-67 -160t-178 -94q121 -20 182 -86t57 -158q-7 -125 -115 -203t-274 -78q-223 0 -329 107q10 90 55 186h80l24 -199q66 -29 140 -29t123 62t53 150t-51 145t-162 66l6 65
q199 29 211 209q4 70 -29 117t-90 47z" />
    <glyph glyph-name="uni0438" unicode="&#x438;" horiz-adv-x="1058" 
d="M295 -31q-100 0 -130 94t-9 306l37 393q6 55 -27 65l-84 23l10 57q137 39 287 56h37q16 -55 6 -142l-39 -395q-26 -213 3 -273q11 -24 36 -24q76 0 250 227q51 526 57 576h223l-78 -778q-2 -27 8 -39t25 -9l101 25l16 -55q-150 -82 -270 -107q-51 11 -81 55t-22 105
q2 45 11 115q-207 -275 -367 -275z" />
    <glyph glyph-name="uni0439" unicode="&#x439;" horiz-adv-x="1058" 
d="M597 1241q71 0 125 44t77 104h63q-8 -139 -89 -225t-191 -87q-110 1 -174 87t-46 225h64q8 -57 54 -103t117 -45zM295 -31q-100 0 -130 94t-9 306l37 393q6 55 -27 65l-84 23l10 57q137 39 287 56h37q16 -55 6 -142l-39 -395q-26 -213 3 -273q11 -24 36 -24q76 0 250 227
q51 526 57 576h223l-78 -778q-2 -27 8 -39t25 -9l101 25l16 -55q-150 -82 -270 -107q-51 11 -81 55t-22 105q2 45 11 115q-207 -275 -367 -275z" />
    <glyph glyph-name="uni043A" unicode="&#x43a;" horiz-adv-x="989" 
d="M428 799l-31 -316l344 330q39 39 2 45l-79 12l10 62h317l-8 -62l-86 -18q-41 -10 -96 -70l-180 -172l221 -422q34 -63 62 -93t67 -36l-13 -59h-278l-229 446l-64 -59l-37 -387l-225 -27l76 791q4 53 -35 63l-82 21l12 57q123 37 295 58h33q12 -64 4 -164z" />
    <glyph glyph-name="uni043B" unicode="&#x43b;" horiz-adv-x="991" 
d="M956 76q-150 -82 -270 -107q-51 9 -80 53t-22 107l73 737h-251q-12 -292 -92 -547q-42 -133 -118 -226t-176 -124q-41 94 -22 195q147 -2 232 176t98 453q0 49 -60 59l-86 14l11 66h692l-78 -778q-2 -27 7 -39t26 -9l100 25z" />
    <glyph glyph-name="uni043C" unicode="&#x43c;" horiz-adv-x="1320" 
d="M991 932h223l-75 -778q-2 -27 7 -39t25 -9l101 25l14 -55q-152 -82 -270 -107q-49 11 -79 55t-24 105l60 606l-330 -692h-137l-160 625q-33 -285 -114 -481t-197 -218q-41 94 -21 195q119 -8 192 182t87 481q-23 23 -60 31l-75 14l10 60h330l174 -666z" />
    <glyph glyph-name="uni043D" unicode="&#x43d;" horiz-adv-x="1054" 
d="M348 0l-225 -27l78 793q6 51 -33 63l-84 19l12 57q125 37 293 58h35q10 -66 2 -164l-29 -289h289l43 422l221 10l-78 -788q-2 -27 8 -39t25 -9l101 25l14 -55q-152 -82 -270 -107q-49 11 -79 55t-24 105l31 313h-287z" />
    <glyph glyph-name="uni043E" unicode="&#x43e;" horiz-adv-x="987" 
d="M461 29q188 0 229 436t-141 436t-224 -436t136 -436zM457 -31q-197 0 -297 133q-100 134 -78 364t147 363t323 133t300 -134t82 -363t-150 -363t-327 -133z" />
    <glyph glyph-name="uni043F" unicode="&#x43f;" horiz-adv-x="1060" 
d="M788 963q94 1 125 -95t11 -307l-41 -407q-2 -27 7 -39t25 -9l101 25l14 -55q-33 -23 -132 -61t-140 -46q-117 10 -101 156l37 379q26 223 -3 276q-11 23 -34 23q-47 1 -106 -59t-148 -177l-55 -567l-223 -27l76 791q4 53 -35 63l-82 21l12 57q123 37 293 58h35
q14 -70 2 -164l-12 -117q106 133 193 207t181 74z" />
    <glyph glyph-name="uni0440" unicode="&#x440;" horiz-adv-x="1028" 
d="M639 846q-88 0 -231 -191l-58 -594q51 -16 115 -16q244 0 264 490q19 311 -90 311zM461 -31q-61 0 -119 15l-23 -244q-4 -37 48 -47l112 -21l-10 -59h-492l11 59l47 17q61 18 65 59l97 1014q6 53 -29 65l-84 23l12 57q119 35 287 56h37q14 -57 4 -142l-6 -59
q61 86 138 143t153 58q119 0 197 -111t71 -315q-11 -258 -149 -413t-367 -155z" />
    <glyph glyph-name="uni0441" unicode="&#x441;" horiz-adv-x="870" 
d="M594 897q-112 0 -184 -114t-90 -303t32 -304q51 -114 174 -114t242 147l37 -35q-76 -100 -159 -152t-200 -53q-182 1 -286 139t-82 357t158 358q135 139 346 140q84 0 167 -28t125 -67q-23 -117 -77 -223h-70l-22 225q-61 27 -111 27z" />
    <glyph glyph-name="uni0442" unicode="&#x442;" horiz-adv-x="1581" 
d="M781 963q87 0 122 -69t29 -216q106 133 194 209t182 76q94 1 127 -95q32 -96 9 -307l-41 -407q-2 -27 7 -39t26 -9l100 25l16 -55q-35 -23 -134 -61t-140 -46q-117 10 -100 156l39 379q22 224 -6 276q-11 23 -33 23q-46 1 -106 -59t-148 -177l-60 -567h-221l51 504
q26 223 -3 276q-11 23 -34 23q-47 1 -106 -59t-148 -177l-55 -567l-225 -27l78 791q4 53 -35 63l-82 21l12 57q123 37 293 58h35q14 -70 2 -164l-12 -117q106 133 193 207t174 74z" />
    <glyph glyph-name="uni0443" unicode="&#x443;" 
d="M795 706q0 106 -27 130l-150 20l-6 45q51 41 129 62q137 0 144 -195q1 -264 -231 -608t-564 -551l-76 131q76 46 155 88t198 127h-13l-196 862q-6 29 -39 39l-62 16l13 60q119 27 231 31h39q35 -55 49 -132l154 -700q119 147 185 308q67 161 67 267z" />
    <glyph glyph-name="uni0444" unicode="&#x444;" horiz-adv-x="1456" 
d="M416 80q76 0 184 127l66 672q-49 8 -62 8q-78 0 -135 -45t-86 -124q-51 -138 -59 -323q-19 -315 92 -315zM1067 850q-82 0 -195 -139l-65 -658q39 -8 70 -8q78 0 135 46q132 106 146 433q15 326 -91 326zM344 -31q-119 0 -197 111t-69 313q10 260 148 415t362 155
q45 0 84 -9l26 254q6 55 -32 64l-103 20l12 58q139 39 312 55h33q12 -63 4 -164l-43 -430q135 152 256 152t199 -111t69 -315q-11 -258 -149 -413t-361 -155q-55 0 -94 11l-25 -252q-2 -27 21 -33l118 -23l-12 -59h-463l11 59l59 19q43 16 45 57l35 358q-127 -137 -246 -137
z" />
    <glyph glyph-name="uni0445" unicode="&#x445;" horiz-adv-x="882" 
d="M166 152q0 -37 18 -62l150 -18l6 -43q-78 -45 -137 -60q-135 0 -142 142q0 145 275 352l-158 334q-16 31 -37 34l-73 23l6 55q96 33 217 54h37q53 -63 92 -141t131 -269q184 127 184 227q0 37 -18 62l-152 18l-4 43q59 41 137 60q133 0 140 -144q0 -139 -260 -325
l167 -361q14 -27 33 -31l64 -18l-2 -55q-90 -39 -211 -60h-33q-47 47 -86 125l-145 307q-199 -135 -199 -249z" />
    <glyph glyph-name="uni0446" unicode="&#x446;" horiz-adv-x="1058" 
d="M942 -203q0 -176 -178 -280l-39 39q42 47 49 87q6 41 9 63t5 111t76 183q-47 -16 -110 -31q-51 11 -81 55t-22 105q2 45 11 115q-207 -274 -367 -275q-100 0 -130 94t-9 306l37 393q6 55 -27 65l-84 23l10 57q137 39 287 56h37q16 -55 6 -142l-39 -395q-26 -213 3 -273
q11 -24 36 -24q76 0 250 227q51 526 57 576h223l-78 -778q-2 -27 8 -39t25 -9l101 25l16 -55q-14 -8 -88 -45q-11 -57 -2 -130q8 -73 8 -104z" />
    <glyph glyph-name="uni0447" unicode="&#x447;" horiz-adv-x="991" 
d="M420 279q-285 0 -254 307l18 180q6 51 -32 63l-84 19l12 57q125 37 293 58h35q10 -66 2 -164l-19 -181q-12 -139 19 -188t85 -49t117 35l54 518l221 8l-78 -788q-2 -27 7 -39t26 -9l100 25l16 -55q-150 -82 -270 -107q-51 9 -81 53t-23 107l20 211q-100 -61 -184 -61z
" />
    <glyph glyph-name="uni0448" unicode="&#x448;" horiz-adv-x="1546" 
d="M928 129q26 0 68 36t73 74t90 115l60 578h221l-76 -778q-2 -27 7 -39t26 -9l100 25l16 -55q-156 -84 -272 -107q-49 11 -79 55t-24 98t11 120q-98 -125 -183 -199t-169 -74t-118 67t-30 208q-217 -274 -356 -275q-98 0 -129 94t-10 306l36 393q6 55 -26 65l-84 23l10 57
q121 35 287 56h37q16 -55 6 -144l-39 -393q-26 -216 4 -273q12 -24 45 -24t86 55t139 170l60 578h223l-51 -506q-26 -213 3 -273q11 -24 38 -24z" />
    <glyph glyph-name="uni0449" unicode="&#x449;" horiz-adv-x="1550" 
d="M930 129q26 0 68 36t73 74t90 115l60 578h221l-76 -778q-2 -27 7 -39t26 -9l100 25l17 -55q-78 -43 -152 -72q-4 -30 5 -102t9 -105q-4 -176 -180 -280l-39 39q41 41 48 83q7 41 11 67t5 109q2 83 57 165q-25 -8 -37 -11q-49 11 -79 55t-24 98t11 120q-98 -125 -183 -199
t-169 -74t-118 67t-30 208q-217 -274 -356 -275q-98 0 -129 94t-10 306l37 393q6 55 -27 65l-84 23l10 57q121 35 287 56h37q16 -55 6 -144l-39 -393q-26 -216 4 -273q12 -24 45 -24t86 55t139 170l60 578h223l-51 -506q-26 -213 3 -273q11 -24 38 -24z" />
    <glyph glyph-name="uni044A" unicode="&#x44a;" horiz-adv-x="1048" 
d="M657 530q-20 0 -110 -38l-25 -273q-18 -182 94 -182q72 0 114 83t42 189q0 105 -32 163t-83 58zM601 -31q-165 0 -242 79t-62 224l59 594h-61q-72 0 -111 -94l-55 -129l-63 14q6 140 53 275h471l-35 -361q154 57 211 56q96 -2 166 -68t69 -186q1 -168 -117 -286
t-283 -118z" />
    <glyph glyph-name="uni044B" unicode="&#x44b;" horiz-adv-x="1370" 
d="M500 530q-20 0 -111 -36l-24 -275q-14 -182 94 -182q71 0 113 83t42 189t-30 164q-31 57 -84 57zM1335 76q-150 -82 -270 -107q-49 11 -79 55t-23 105l63 637q6 51 -33 63l-84 19l11 57q127 37 294 58h33q12 -63 4 -164l-63 -645q-2 -27 7 -39t26 -9l100 25zM444 -31
q-326 0 -297 303l48 494q4 51 -35 63l-82 19l10 57q123 37 293 58h35q14 -70 2 -164l-21 -228q147 57 228 55t150 -67q69 -66 69 -186q0 -168 -117 -286t-283 -118z" />
    <glyph glyph-name="uni044C" unicode="&#x44c;" horiz-adv-x="890" 
d="M500 530q-20 0 -111 -36l-24 -275q-14 -182 94 -182q71 0 113 83t42 189t-30 164q-31 57 -84 57zM444 -31q-326 0 -297 303l48 494q4 51 -35 63l-82 19l10 57q123 37 293 58h35q14 -70 2 -164l-21 -228q147 57 228 55t150 -67q69 -66 69 -186q0 -168 -117 -286t-283 -118
z" />
    <glyph glyph-name="uni044D" unicode="&#x44d;" horiz-adv-x="899" 
d="M401 897q-61 0 -122 -27l-66 -225h-68q-37 96 -36 223q51 39 144 67t185 28q211 1 321 -139q111 -140 89 -359t-152 -357t-313 -139q-131 1 -212 53t-138 152l43 35q94 -147 248 -148q114 -1 184 101t94 272l-283 -18l13 123l278 -25q10 176 -45 280t-164 103z" />
    <glyph glyph-name="uni044E" unicode="&#x44e;" horiz-adv-x="1466" 
d="M938 35q190 0 229 430q41 430 -141 430t-224 -430t136 -430zM1036 963q192 1 294 -133q103 -134 82 -364t-151 -364t-326 -133q-196 0 -295 128t-83 349h-166l-43 -446l-225 -27l78 793q6 51 -33 63l-84 19l12 57q125 37 293 58h35q10 -66 2 -164l-29 -285h168
q35 211 157 330t314 119z" />
    <glyph glyph-name="uni044F" unicode="&#x44f;" horiz-adv-x="962" 
d="M360 614q0 -217 220 -219l45 469h-82q-87 0 -135 -70t-48 -180zM109 610q0 150 123 236q124 86 319 86h303l-76 -778q-2 -27 7 -39t26 -9l100 25l15 -55q-152 -82 -271 -107q-49 11 -79 55t-23 105l18 199q-66 -4 -155 12q-143 -330 -348 -371q-35 84 -23 195
q174 -8 297 192q-233 68 -233 254z" />
    <glyph glyph-name="uni0451" unicode="&#x451;" 
d="M722 1104q-56 0 -90 34t-33 102q1 66 34 100t89 34t90 -34t33 -100t-34 -102q-33 -34 -89 -34zM334 1374q55 0 88 -34t32 -100t-35 -102q-34 -34 -89 -34t-89 34t-34 103q2 133 127 133zM535 895q-81 0 -141 -130t-66 -321q115 33 208 109t93 195q1 63 -25 105t-69 42z
M872 724q0 -99 -78 -173q-142 -133 -466 -180q8 -135 68 -213t144 -78t140 36q57 36 125 109l47 -45q-156 -211 -377 -211q-186 0 -292 116q-105 116 -105 335t131 381t342 162q141 0 231 -70t90 -169z" />
    <glyph glyph-name="uni0452" unicode="&#x452;" horiz-adv-x="1001" 
d="M665 868q125 0 189 -92t45 -278l-29 -303q-16 -186 -122 -338t-267 -219l-22 49q147 123 184 508l25 256q16 172 -12 234q-28 63 -100 63t-169 -52l-70 -696l-223 -27l105 1067h-103l6 72h103l10 96q4 57 -35 64l-100 20l10 58q137 39 313 55h35q10 -66 2 -164l-12 -129
h305l-8 -72h-305l-27 -276q147 104 272 104z" />
    <glyph glyph-name="uni0453" unicode="&#x453;" horiz-adv-x="722" 
d="M291 -31q-92 0 -150 41q-57 41 -57 121t80 212t160 252t79 169q0 76 -67 76q-41 0 -100 -38t-117 -108l-45 56q188 213 389 213q80 0 138 -39q59 -39 61 -113t-48 -171t-111 -175q-163 -212 -163 -293q0 -37 22 -57t56 -21q88 0 207 135l47 -49q-188 -211 -381 -211z
M625 1303l-312 -256l-49 40q32 97 96 195t134 162z" />
    <glyph glyph-name="uni0454" unicode="&#x454;" horiz-adv-x="901" 
d="M459 -31q-188 0 -295 137q-106 136 -84 356t156 360q135 140 346 141q92 0 181 -28t134 -67q-20 -111 -80 -223h-67l-23 225q-57 27 -119 27q-110 0 -184 -100t-96 -271l282 25l-12 -123l-279 21q-12 -175 42 -281t174 -107q143 1 266 148l35 -35q-154 -205 -377 -205z
" />
    <glyph glyph-name="uni0455" unicode="&#x455;" horiz-adv-x="815" 
d="M475 963q76 0 158 -25t135 -64q-18 -111 -74 -208h-73l-21 208q-45 23 -104 23q-58 0 -96 -33t-43 -90q-9 -101 138 -200q60 -40 120 -82q61 -42 101 -106q40 -62 32 -138q-12 -131 -122 -205t-274 -74q-215 0 -325 105q24 109 75 207h78l19 -220q49 -29 138 -29t133 39
q44 38 49 89t-36 95t-101 83t-121 83q-60 44 -99 114t-31 155q13 123 107 198t237 75z" />
    <glyph glyph-name="uni0456" unicode="&#x456;" horiz-adv-x="550" 
d="M512 76q-150 -82 -270 -107q-49 11 -79 55t-24 105l64 637q6 51 -33 63l-84 19l10 57q127 37 295 58h33q12 -63 4 -164l-63 -645q-2 -27 7 -39t25 -9l101 25zM348 1126q-59 0 -100 40t-39 106q0 66 41 106t100 39q60 0 100 -40t40 -104t-41 -106q-42 -41 -101 -41z" />
    <glyph glyph-name="uni0457" unicode="&#x457;" horiz-adv-x="548" 
d="M512 76q-150 -82 -270 -107q-49 11 -79 55t-24 105l64 637q6 51 -33 63l-84 19l10 57q127 37 295 58h33q12 -63 4 -164l-63 -645q-2 -27 7 -39t25 -9l101 25zM531 1374q57 0 91 -34t32 -100t-34 -102q-32 -34 -88 -34t-90 34t-33 102q1 66 33 100t89 34zM143 1374
q55 0 88 -34t32 -100t-35 -102q-34 -34 -89 -34t-89 34t-34 103q2 133 127 133z" />
    <glyph glyph-name="uni0458" unicode="&#x458;" horiz-adv-x="509" 
d="M354 57q-18 -184 -124 -300t-304 -140l-14 59q53 27 80 45q26 17 60 55q58 65 77 238l74 752q4 51 -35 63l-86 19l10 57q127 37 297 58h35q14 -70 2 -164zM346 1126q-59 0 -100 40t-39 106q0 66 41 106t100 39q59 0 99 -40t40 -104q0 -63 -41 -105t-100 -42z" />
    <glyph glyph-name="uni0459" unicode="&#x459;" horiz-adv-x="1345" 
d="M952 530q-18 0 -108 -38l-27 -273q-14 -182 96 -182q70 0 112 83t42 189q0 105 -31 163t-84 58zM898 -31q-165 0 -242 79t-62 224l59 594h-250q-8 -292 -89 -548q-42 -132 -118 -225t-176 -124q-41 94 -22 195q147 -2 232 176t98 453q0 49 -60 59l-86 14l11 66h694
l-35 -359q154 55 209 54q98 -2 168 -68t69 -186q0 -168 -118 -286t-282 -118z" />
    <glyph glyph-name="uni045A" unicode="&#x45a;" horiz-adv-x="1390" 
d="M997 530q-20 0 -108 -38l-27 -273q-14 -182 96 -182q70 0 112 83t42 189q0 105 -31 163t-84 58zM943 -31q-165 0 -242 79t-62 224l16 170h-264l-43 -442l-225 -27l78 793q6 51 -33 63l-84 19l12 57q125 37 293 58h35q10 -66 2 -164l-29 -289h265l43 422h227l-35 -359
q154 55 209 54q98 -2 168 -68t69 -186q1 -168 -117 -286t-283 -118z" />
    <glyph glyph-name="uni045B" unicode="&#x45b;" horiz-adv-x="1032" 
d="M760 963q94 1 125 -95t10 -307l-41 -407q-2 -27 7 -39t26 -9l100 25l14 -55q-33 -23 -132 -61t-140 -46q-117 10 -100 156l37 379q25 219 -3 276q-11 23 -34 23q-47 -1 -105 -59t-149 -175l-56 -569l-223 -27l103 1080h-95l7 71h96l8 84q6 53 -33 64l-84 20l13 58
q145 41 292 55h35q12 -64 4 -164l-12 -117h279l-7 -71h-278l-37 -369q103 131 191 205t182 74z" />
    <glyph glyph-name="uni045C" unicode="&#x45c;" horiz-adv-x="989" 
d="M840 1303l-312 -256l-49 40q31 97 95 195t135 162zM428 799l-31 -316l344 330q39 39 2 45l-79 12l10 62h317l-8 -62l-86 -18q-41 -10 -96 -70l-180 -172l221 -422q34 -63 62 -93t67 -36l-13 -59h-278l-229 446l-64 -59l-37 -387l-225 -27l76 791q4 53 -35 63l-82 21
l12 57q123 37 295 58h33q12 -64 4 -164z" />
    <glyph glyph-name="uni045E" unicode="&#x45e;" 
d="M795 706q0 106 -27 130l-150 20l-6 45q51 41 129 62q137 0 144 -195q1 -264 -231 -608t-564 -551l-76 131q76 46 155 88t198 127h-13l-196 862q-6 29 -39 39l-62 16l13 60q119 27 231 31h39q35 -55 49 -132l154 -700q119 147 185 308q67 161 67 267zM564 1241
q71 0 125 44t77 104h63q-8 -139 -89 -225q-80 -86 -190 -87q-110 1 -174 87t-46 225h63q8 -57 54 -103t117 -45z" />
    <glyph glyph-name="uni045F" unicode="&#x45f;" horiz-adv-x="1058" 
d="M295 -31q-100 0 -130 94t-9 306l37 393q6 55 -27 65l-84 23l10 57q137 39 287 56h37q16 -55 6 -142l-39 -395q-26 -213 3 -273q11 -24 36 -24q76 0 250 227q51 526 57 576h223l-78 -778q-2 -27 8 -39t25 -9l101 25l16 -55q-150 -82 -270 -107q-51 11 -81 55t-22 105
q2 45 11 115q-78 -98 -121 -142q-10 -10 -1 -105t9 -120q-4 -176 -180 -280l-39 38q38 38 48 83q9 46 12 68t3 93t41 135q-80 -45 -139 -45z" />
    <glyph glyph-name="uni0490" unicode="&#x490;" horiz-adv-x="860" 
d="M690 1262q33 0 49 14t35 53l88 195l66 -6q-2 -166 -54 -330h-370l-101 -1053q-1 -29 11 -41t41 -16l100 -19l-12 -59h-498l12 59l52 17q57 16 61 59l96 991q2 27 -10 40t-39 20l-55 16l12 60h516z" />
    <glyph glyph-name="uni0491" unicode="&#x491;" horiz-adv-x="749" 
d="M567 932q41 0 64 22t47 72l61 139l62 -8q-6 -150 -56 -291h-309l-74 -751q-4 -29 21 -33l109 -23l-13 -59h-446l12 59l51 19q43 18 47 57l64 660q6 45 -35 57l-61 18l10 62h446z" />
    <glyph glyph-name="uni1E02" unicode="&#x1e02;" horiz-adv-x="1089" 
d="M618 1659q56 0 92 -37q36 -36 34 -104t-36 -105t-92 -37t-94 37q-35 37 -35 105q4 141 131 141zM604 1188h-98l-45 -479h104q85 1 135 73t60 183q20 223 -156 223zM555 633h-102l-54 -559h125q217 0 242 272q12 123 -37 205t-174 82zM643 1262q189 0 289 -71t86 -218
q-10 -98 -72 -183t-192 -118q150 -31 216 -121t54 -203q-16 -162 -133 -255t-305 -93h-539l12 59l50 17q59 16 63 59l96 991q4 45 -51 60l-55 16l12 60h469z" />
    <glyph glyph-name="uni1E03" unicode="&#x1e03;" horiz-adv-x="985" 
d="M589 1436q-58 0 -93 36t-34 106q1 68 36 104t93 36t93 -37t34 -105t-36 -104t-93 -36zM588 860q-90 0 -205 -164l-64 -655q33 -4 95 -4t122 46q94 75 133 283q15 81 19 175q15 319 -100 319zM399 -31q-139 0 -305 56l115 1179q6 55 -27 66l-90 22l12 58q139 39 291 55h37
q16 -55 6 -141l-45 -457q129 156 258 156t210 -113q81 -112 72 -340t-158 -384t-376 -157z" />
    <glyph glyph-name="uni1E0A" unicode="&#x1e0a;" horiz-adv-x="1247" 
d="M713 1659q57 0 92 -37q35 -36 34 -104t-36 -105t-93 -37t-94 37q-34 37 -34 105q4 141 131 141zM633 1188h-127l-107 -1114h125q162 0 282 147t144 407t-66 410q-91 150 -251 150zM668 1262q268 0 418 -167t120 -459q-29 -292 -209 -464t-442 -172h-508l12 59l50 17
q59 16 63 59l96 991q4 45 -51 60l-55 16l12 60h494z" />
    <glyph glyph-name="uni1E0B" unicode="&#x1e0b;" horiz-adv-x="1038" 
d="M550 1743q58 0 93 -37q35 -36 34 -104t-36 -105t-93 -37t-93 37t-34 106t36 105t93 35zM428 102q78 0 215 189q16 143 62 596q-57 10 -91 10q-90 0 -152 -57q-62 -58 -91 -150q-50 -159 -52 -338q0 -250 109 -250zM344 -31q-110 -1 -190 103t-80 295q0 254 150 425
q151 171 390 171q43 0 99 -11l24 256q4 59 -35 64l-133 20l13 58q102 29 342 55h34q14 -70 3 -164l-107 -1087q-2 -27 7 -39t26 -9l100 25l17 -55q-150 -82 -271 -107q-98 23 -94 160v47q-156 -207 -295 -207z" />
    <glyph glyph-name="uni1E0C" unicode="&#x1e0c;" horiz-adv-x="1247" 
d="M589 -129q58 0 91 -37q33 -36 30 -104t-41 -105q-37 -37 -95 -37t-91 37q-32 37 -29 106t40 105t95 35zM633 1188h-127l-107 -1114h125q162 0 282 147t144 407t-66 410q-91 150 -251 150zM668 1262q268 0 418 -167t120 -459q-29 -292 -209 -464t-442 -172h-508l12 59
l50 17q59 16 63 59l96 991q4 45 -51 60l-55 16l12 60h494z" />
    <glyph glyph-name="uni1E0D" unicode="&#x1e0d;" horiz-adv-x="1038" 
d="M503 -129q58 0 91 -37q33 -36 30 -104t-41 -105q-37 -37 -95 -37t-91 37q-32 37 -29 106t40 105t95 35zM428 102q78 0 215 189q16 143 62 596q-57 10 -91 10q-90 0 -152 -57q-62 -58 -91 -150q-50 -159 -52 -338q0 -250 109 -250zM344 -31q-110 -1 -190 103t-80 295
q0 254 150 425q151 171 390 171q43 0 99 -11l24 256q4 59 -35 64l-133 20l13 58q102 29 342 55h34q14 -70 3 -164l-107 -1087q-2 -27 7 -39t26 -9l100 25l17 -55q-150 -82 -271 -107q-98 23 -94 160v47q-156 -207 -295 -207z" />
    <glyph glyph-name="uni1E1E" unicode="&#x1e1e;" horiz-adv-x="968" 
d="M627 1659q57 0 92 -37q35 -36 34 -104t-36 -105t-93 -37t-94 37q-34 37 -34 105q4 141 131 141zM743 1188h-237l-49 -514h209q37 0 59 47l49 115h78l-55 -398h-70l-27 121q-8 41 -45 41h-204l-45 -465q-2 -27 9 -38t40 -19l92 -19l-12 -59h-488l12 59l50 17q59 16 63 59
l96 991q4 45 -49 60l-55 16l10 60h817q12 -119 -22 -304h-84l-51 175q-16 55 -91 55z" />
    <glyph glyph-name="uni1E1F" unicode="&#x1e1f;" horiz-adv-x="538" 
d="M529 1790q57 0 93 -37t34 -105t-36 -104q-34 -37 -92 -37t-94 37q-35 37 -34 106q1 68 36 104t93 36zM598 1407q160 0 250 -47q-23 -125 -84 -238h-78l-16 215q-25 8 -49 9q-74 0 -115 -78t-57 -242l-11 -96h135l-8 -72h-133l-80 -815q-20 -211 -120 -321t-261 -110
q-162 0 -245 46q23 131 81 240h78l17 -215q18 -8 57 -9q70 0 110 78t56 242l84 864h-123l8 72h123l4 43q17 213 117 323t260 111z" />
    <glyph glyph-name="uni1E24" unicode="&#x1e24;" horiz-adv-x="1314" 
d="M611 -129q58 0 91 -37q33 -36 30 -104t-41 -105t-95 -37t-90 37t-30 106t40 105t95 35zM268 1126q4 45 -51 60l-55 16l12 60h451l-13 -60l-49 -18q-49 -16 -55 -30q-6 -13 -8 -28l-43 -432h471l41 432q4 45 -47 60l-56 16l11 60h450l-12 -60l-49 -18q-7 -4 -16 -6t-14 -6
t-7 -4q-2 -2 -11 -8t-10 -12q-2 -6 -4 -10q-2 -5 -2 -12l-94 -991q-4 -32 21 -46q9 -5 28 -11l55 -19l-12 -59h-450l12 59l49 17q59 16 63 59l46 486h-469l-48 -486q-4 -32 22 -46q9 -5 30 -11l53 -19l-10 -59h-451l12 59l50 17q59 16 63 59z" />
    <glyph glyph-name="uni1E25" unicode="&#x1e25;" horiz-adv-x="1032" 
d="M476 -129q58 0 91 -37q33 -36 30 -104t-41 -105t-95 -37t-90 37t-30 106t40 105t95 35zM760 963q94 1 125 -95t10 -307l-41 -407q-2 -27 7 -39t26 -9l100 25l14 -55q-33 -23 -132 -61t-140 -46q-117 10 -100 156l37 379q25 219 -3 276q-11 23 -34 23q-47 -1 -105 -59
t-149 -175l-56 -569l-223 -27l119 1235q6 53 -33 64l-84 20l13 58q145 41 292 55h35q12 -64 4 -164l-55 -557q103 131 191 205t182 74z" />
    <glyph glyph-name="uni1E40" unicode="&#x1e40;" horiz-adv-x="1546" 
d="M584 0q-195 745 -262 1008l-84 -873q-3 -27 13 -36q17 -9 38 -15l82 -25l-13 -59h-315l10 59l53 21q31 10 46 20q14 10 16 35l100 1024q-20 25 -92 43l12 60h320l268 -1037l479 1037h308l-13 -60q-12 -4 -49 -14t-59 -17l-99 -1036q-4 -32 22 -46q9 -5 28 -11l55 -19
l-12 -59h-451l10 59l52 17q59 16 63 59l78 826l-443 -961h-161zM872 1487q56 0 92 -37q36 -36 34 -104t-36 -105t-92 -37t-94 37q-35 37 -35 105q4 141 131 141z" />
    <glyph glyph-name="uni1E41" unicode="&#x1e41;" horiz-adv-x="1581" 
d="M845 1366q56 0 91 -35t34 -101t-36 -104q-35 -36 -91 -36t-90 36t-33 104t35 102t90 34zM781 963q87 0 122 -69t29 -216q106 133 194 209t182 76q94 1 127 -95q32 -96 9 -307l-41 -407q-2 -27 7 -39t26 -9l100 25l16 -55q-35 -23 -134 -61t-140 -46q-117 10 -100 156
l39 379q22 224 -6 276q-11 23 -33 23q-46 1 -106 -59t-148 -177l-60 -567h-221l51 504q26 223 -3 276q-11 23 -34 23q-47 1 -106 -59t-148 -177l-55 -567l-225 -27l78 791q4 53 -35 63l-82 21l12 57q123 37 293 58h35q14 -70 2 -164l-12 -117q106 133 193 207t174 74z" />
    <glyph glyph-name="uni1E44" unicode="&#x1e44;" horiz-adv-x="1290" 
d="M767 1659q58 0 93 -37q35 -36 34 -104t-36 -105t-93 -37t-93 37t-34 106t36 105t93 35zM866 0l-538 1057l-88 -922q-3 -27 13 -36q17 -9 40 -15l82 -25l-13 -59h-315l10 59l54 21q57 20 61 55l98 1024q-45 35 -102 43l10 60h326l534 -1026l86 888q2 16 -6 28t-18 17
q-10 4 -33 11l-76 22l10 60h316l-10 -60l-56 -20q-35 -14 -46 -27q-11 -12 -13 -31l-109 -1124h-217z" />
    <glyph glyph-name="uni1E45" unicode="&#x1e45;" horiz-adv-x="1060" 
d="M587 1366q56 0 91 -35t34 -101t-36 -104q-35 -36 -91 -36t-90 36t-33 104t35 102t90 34zM788 963q94 1 125 -95t11 -307l-41 -407q-2 -27 7 -39t25 -9l101 25l14 -55q-33 -23 -132 -61t-140 -46q-117 10 -101 156l37 379q26 223 -3 276q-11 23 -34 23q-47 1 -106 -59
t-148 -177l-55 -567l-223 -27l76 791q4 53 -35 63l-82 21l12 57q123 37 293 58h35q14 -70 2 -164l-12 -117q106 133 193 207t181 74z" />
    <glyph glyph-name="uni1E56" unicode="&#x1e56;" horiz-adv-x="1044" 
d="M632 1659q58 0 93 -37q35 -36 34 -104t-36 -105t-93 -37t-93 37t-34 106t36 105t93 35zM598 1188h-92l-62 -625h111q104 0 161 88q56 88 68 234q31 303 -186 303zM625 1262q217 0 331 -92t96 -286q-20 -192 -150 -294t-335 -103h-129l-35 -352q-2 -51 52 -57l110 -19
l-12 -59h-506l12 59l50 17q59 16 63 59l96 991q4 45 -51 60l-55 16l12 60h451z" />
    <glyph glyph-name="uni1E57" unicode="&#x1e57;" horiz-adv-x="1030" 
d="M570 1364q56 0 92 -35t34 -101t-37 -104q-35 -37 -91 -37t-90 37t-33 104q1 68 35 102t90 34zM641 846q-88 0 -231 -191l-58 -594q51 -16 115 -16q244 0 264 490q19 311 -90 311zM463 -31q-61 0 -119 15l-22 -244q-4 -37 47 -47l112 -21l-10 -59h-491l10 59l47 17
q61 18 65 59l97 1014q6 53 -29 65l-84 23l12 57q119 35 287 56h37q14 -57 4 -142l-6 -59q61 86 138 143t153 58q119 0 197 -111t71 -315q-11 -258 -149 -413t-367 -155z" />
    <glyph glyph-name="uni1E5A" unicode="&#x1e5a;" horiz-adv-x="1110" 
d="M558 -129q58 0 91 -37q33 -36 30 -104t-41 -105t-95 -37t-90 37t-30 106t40 105t95 35zM602 1188h-96l-57 -584h114q209 0 237 292t-198 292zM612 1262q230 0 352 -90t103 -273q-25 -246 -266 -336l117 -323q28 -74 60 -117t89 -64l-12 -59h-146q-109 0 -155 31t-82 145
l-113 352h-117l-39 -393q-2 -47 52 -57l96 -19l-10 -59h-494l12 59l50 17q59 16 63 59l96 991q4 45 -51 60l-55 16l12 60h438z" />
    <glyph glyph-name="uni1E5B" unicode="&#x1e5b;" horiz-adv-x="770" 
d="M224 -129q58 0 91 -37q33 -36 30 -104t-41 -105t-95 -37t-90 37t-30 106t40 105t95 35zM656 963q92 0 153 -60q-23 -131 -84 -256h-76l-18 191q-25 8 -41 8q-84 0 -168 -90l-74 -756l-223 -27l74 789q6 53 -27 65l-84 23l10 57q119 35 287 56h37q12 -45 8 -121
q134 121 226 121z" />
    <glyph glyph-name="uni1E60" unicode="&#x1e60;" horiz-adv-x="944" 
d="M403 37q211 0 234 190q11 133 -167 266q-76 56 -150 118q-74 63 -121 151t-37 192q14 156 133 247t293 91q94 0 188 -26t152 -66q-23 -145 -78 -256h-90l-31 260q-51 20 -137 20t-135 -58t-57 -138t41 -152q50 -72 125 -127q75 -53 150 -111t124 -139t39 -182
q-13 -164 -143 -256t-320 -92q-109 0 -213 28t-164 77q17 145 70 256h92l39 -262q61 -31 163 -31zM573 1659q57 0 93 -37q36 -36 34 -104t-36 -105t-94 -37q-58 0 -93 37t-35 105q4 141 131 141z" />
    <glyph glyph-name="uni1E61" unicode="&#x1e61;" horiz-adv-x="815" 
d="M484 1366q56 0 91 -35t34 -101t-36 -104q-35 -36 -91 -36t-90 36t-33 104t35 102t90 34zM475 963q76 0 158 -25t135 -64q-18 -111 -74 -208h-73l-21 208q-45 23 -104 23q-58 0 -96 -33t-43 -90q-9 -101 138 -200q60 -40 120 -82q61 -42 101 -106q40 -62 32 -138
q-12 -131 -122 -205t-274 -74q-215 0 -325 105q24 109 75 207h78l19 -220q49 -29 138 -29t133 39q44 38 49 89t-36 95t-101 83t-121 83q-60 44 -99 114t-31 155q13 123 107 198t237 75z" />
    <glyph glyph-name="uni1E62" unicode="&#x1e62;" horiz-adv-x="944" 
d="M403 37q211 0 234 190q11 133 -167 266q-76 56 -150 118q-74 63 -121 151t-37 192q14 156 133 247t293 91q94 0 188 -26t152 -66q-23 -145 -78 -256h-90l-31 260q-51 20 -137 20t-135 -58t-57 -138t41 -152q50 -72 125 -127q75 -53 150 -111t124 -139t39 -182
q-13 -164 -143 -256t-320 -92q-109 0 -213 28t-164 77q17 145 70 256h92l39 -262q61 -31 163 -31zM460 -129q58 0 91 -37q33 -36 30 -104t-41 -105t-96 -37t-90 37t-29 106t40 105t95 35z" />
    <glyph glyph-name="uni1E63" unicode="&#x1e63;" horiz-adv-x="815" 
d="M475 963q76 0 158 -25t135 -64q-18 -111 -74 -208h-73l-21 208q-45 23 -104 23q-58 0 -96 -33t-43 -90q-9 -101 138 -200q60 -40 120 -82q61 -42 101 -106q40 -62 32 -138q-12 -131 -122 -205t-274 -74q-215 0 -325 105q24 109 75 207h78l19 -220q49 -29 138 -29t133 39
q44 38 49 89t-36 95t-101 83t-121 83q-60 44 -99 114t-31 155q13 123 107 198t237 75zM376 -129q58 0 91 -37q33 -36 30 -104t-41 -105t-96 -37t-90 37t-29 106t40 105t95 35z" />
    <glyph glyph-name="uni1E6A" unicode="&#x1e6a;" horiz-adv-x="1046" 
d="M627 1659q57 0 92 -37q35 -36 34 -104t-36 -105t-93 -37t-94 37q-34 37 -34 105q4 141 131 141zM850 1188h-123l-100 -1053q-4 -45 51 -57l86 -19l-10 -59h-514l12 59l80 17q57 14 61 59l103 1053h-127q-66 0 -105 -74l-92 -168l-59 12q4 168 53 304h903q20 -137 -4 -304
l-68 -12l-57 170q-25 72 -90 72z" />
    <glyph glyph-name="uni1E6B" unicode="&#x1e6b;" horiz-adv-x="585" 
d="M436 82q25 0 119 20l-14 -71q-90 -61 -203 -62q-223 0 -199 258l62 629h-109l10 59q113 27 185 99t116 196h54l-27 -278h164l-10 -76h-162l-62 -641q-10 -133 76 -133zM319 1597q57 0 93 -36q36 -37 34 -105t-36 -104t-94 -37q-58 1 -93 37t-35 104q4 141 131 141z" />
    <glyph glyph-name="uni1E6C" unicode="&#x1e6c;" horiz-adv-x="1046" 
d="M498 -129q58 0 92 -37q33 -36 30 -104t-41 -105q-37 -37 -95 -37t-91 37q-32 37 -29 106q4 69 40 105t94 35zM850 1188h-123l-100 -1053q-4 -45 51 -57l86 -19l-10 -59h-514l12 59l80 17q57 14 61 59l103 1053h-127q-66 0 -105 -74l-92 -168l-59 12q4 168 53 304h903
q20 -137 -4 -304l-68 -12l-57 170q-25 72 -90 72z" />
    <glyph glyph-name="uni1E6D" unicode="&#x1e6d;" horiz-adv-x="585" 
d="M436 82q25 0 119 20l-14 -71q-90 -61 -203 -62q-223 0 -199 258l62 629h-109l10 59q113 27 185 99t116 196h54l-27 -278h164l-10 -76h-162l-62 -641q-10 -133 76 -133zM273 -129q57 0 91 -37q34 -36 30 -104t-41 -105q-38 -37 -95 -37t-90 37t-30 106t40 105t95 35z" />
    <glyph glyph-name="Wgrave" unicode="&#x1e80;" horiz-adv-x="1712" 
d="M752 1460l69 195q102 -23 211 -91t148 -137l-35 -65zM573 0h-180l-217 1116q-12 49 -45 64l-53 22l10 60h518l-10 -60l-119 -28q-55 -14 -43 -82l162 -856l287 725l-29 155q-8 47 -47 64l-51 22l10 60h518l-12 -60l-117 -28q-55 -14 -43 -82l162 -854l342 862
q29 63 -27 78l-114 24l10 60h338l-11 -60l-51 -22q-45 -14 -61 -60l-449 -1120h-180l-164 838z" />
    <glyph glyph-name="wgrave" unicode="&#x1e81;" horiz-adv-x="1325" 
d="M545 1323l155 141q56 -63 102 -160t58 -194l-55 -43zM1200 700q0 112 -26 136l-150 20l-6 45q51 41 129 62q137 0 143 -195q0 -182 -90 -393t-219 -375l-188 -23l-68 385q-80 -180 -219 -362l-189 -23l-147 838q-4 27 -39 39l-72 18l11 60q86 18 245 31h39
q39 -61 49 -132l113 -710q133 197 186 371l-57 323q-4 27 -39 39l-71 18l10 60q86 18 246 31h38q39 -61 50 -132l112 -710q82 125 146 296q63 171 63 283z" />
    <glyph glyph-name="Wacute" unicode="&#x1e82;" horiz-adv-x="1712" 
d="M1231 1460l-412 -98l-18 65q53 70 174 138t227 90zM573 0h-180l-217 1116q-12 49 -45 64l-53 22l10 60h518l-10 -60l-119 -28q-55 -14 -43 -82l162 -856l287 725l-29 155q-8 47 -47 64l-51 22l10 60h518l-12 -60l-117 -28q-55 -14 -43 -82l162 -854l342 862q29 63 -27 78
l-114 24l10 60h338l-11 -60l-51 -22q-45 -14 -61 -60l-449 -1120h-180l-164 838z" />
    <glyph glyph-name="wacute" unicode="&#x1e83;" horiz-adv-x="1325" 
d="M1026 1305l-311 -256l-49 41q31 96 95 194q65 98 134 162zM1200 700q0 112 -26 136l-150 20l-6 45q51 41 129 62q137 0 143 -195q0 -182 -90 -393t-219 -375l-188 -23l-68 385q-80 -180 -219 -362l-189 -23l-147 838q-4 27 -39 39l-72 18l11 60q86 18 245 31h39
q39 -61 49 -132l113 -710q133 197 186 371l-57 323q-4 27 -39 39l-71 18l10 60q86 18 246 31h38q39 -61 50 -132l112 -710q82 125 146 296q63 171 63 283z" />
    <glyph glyph-name="Wdieresis" unicode="&#x1e84;" horiz-adv-x="1712" 
d="M1170 1647q58 0 94 -37t34 -105q-2 -69 -36 -105t-94 -36q-58 0 -93 36t-34 106q1 69 36 105t93 36zM778 1364q-59 0 -93 36t-34 105q4 141 131 142q57 0 92 -37t34 -105q-1 -69 -36 -105t-94 -36zM393 0l-217 1116q-12 49 -45 64l-53 22l10 60h518l-10 -60l-119 -28
q-55 -14 -43 -82l162 -856l287 725l-29 155q-8 47 -47 64l-51 22l10 60h518l-12 -60l-117 -28q-55 -14 -43 -82l162 -854l342 862q29 63 -27 78l-114 24l10 60h338l-11 -60l-51 -22q-45 -14 -61 -60l-449 -1120h-180l-164 838l-334 -838h-180z" />
    <glyph glyph-name="wdieresis" unicode="&#x1e85;" horiz-adv-x="1325" 
d="M955 1364q57 0 91 -34t32 -100t-34 -102q-33 -34 -89 -34t-90 34q-33 35 -32 102q1 66 33 100t89 34zM567 1364q55 0 88 -34t32 -100t-35 -102q-34 -34 -89 -34t-89 34t-34 103q2 133 127 133zM1200 700q0 112 -26 136l-150 20l-6 45q51 41 129 62q137 0 143 -195
q0 -182 -90 -393t-219 -375l-188 -23l-68 385q-80 -180 -219 -362l-189 -23l-147 838q-4 27 -39 39l-72 18l11 60q86 18 245 31h39q39 -61 49 -132l113 -710q133 197 186 371l-57 323q-4 27 -39 39l-71 18l10 60q86 18 246 31h38q39 -61 50 -132l112 -710q82 125 146 296
q63 171 63 283z" />
    <glyph glyph-name="uni1E92" unicode="&#x1e92;" horiz-adv-x="1036" 
d="M501 -129q58 0 91 -37q33 -36 30 -104t-41 -105q-37 -37 -95 -37t-91 37q-32 37 -29 106t40 105t95 35zM879 338h90q-12 -180 -66 -338h-887l11 82l739 1106l-320 -4q-51 -2 -70 -18t-44 -62l-99 -158l-88 4q6 168 56 312h862l-12 -68l-746 -1124l344 8q59 2 84 20t53 72
z" />
    <glyph glyph-name="uni1E93" unicode="&#x1e93;" horiz-adv-x="860" 
d="M408 -129q58 0 92 -37q34 -36 30 -104t-42 -105t-95 -37t-90 37t-30 106t40 105t95 35zM723 330h68q16 -84 -9 -202t-71 -171q-342 106 -523 121l-65 -109l-94 74l553 659l-322 27q-37 4 -59 -41l-31 -65l-64 18q4 49 27 164t35 153l571 -67l64 76l61 -49l-534 -656
q174 -20 321 -65q43 -16 62 47q10 29 10 86z" />
    <glyph glyph-name="uni1EB8" unicode="&#x1eb8;" horiz-adv-x="1007" 
d="M488 -129q58 0 92 -37q34 -36 30 -104t-42 -105t-95 -37t-90 37t-30 106t40 105t95 35zM737 1188h-231l-47 -504h207q39 0 59 47l51 115h76l-57 -397h-66l-27 120q-8 41 -45 41h-206l-52 -536h248q68 0 94 49l99 176h88q-6 -164 -51 -299h-830l12 59l50 17q59 16 63 59
l96 991q4 45 -49 60l-55 16l10 60h811q12 -115 -22 -295h-84l-54 166q-16 55 -88 55z" />
    <glyph glyph-name="uni1EB9" unicode="&#x1eb9;" 
d="M427 -129q58 0 91 -37q33 -36 30 -104t-41 -105t-95 -37t-90 37t-30 106t40 105t95 35zM535 895q-81 0 -141 -130t-66 -321q115 33 208 109t93 195q1 63 -25 105t-69 42zM872 724q0 -99 -78 -173q-142 -133 -466 -180q8 -135 68 -213t144 -78t140 36q57 36 125 109
l47 -45q-156 -211 -377 -211q-186 0 -292 116q-105 116 -105 335t131 381t342 162q141 0 231 -70t90 -169z" />
    <glyph glyph-name="uni1EBC" unicode="&#x1ebc;" horiz-adv-x="1007" 
d="M519 1626q62 0 139 -40t122 -40q66 0 84 68h66q-10 -110 -56 -176t-114 -66t-144 44t-131 44t-75 -55h-64q8 97 60 159t113 62zM737 1188h-231l-47 -504h207q39 0 59 47l51 115h76l-57 -397h-66l-27 120q-8 41 -45 41h-206l-52 -536h248q68 0 94 49l99 176h88
q-6 -164 -51 -299h-830l12 59l50 17q59 16 63 59l96 991q4 45 -49 60l-55 16l10 60h811q12 -115 -22 -295h-84l-54 166q-16 55 -88 55z" />
    <glyph glyph-name="uni1EBD" unicode="&#x1ebd;" 
d="M535 895q-81 0 -141 -130t-66 -321q115 33 208 109t93 195q1 63 -25 105t-69 42zM458 1348q60 0 132 -40t112 -40q68 0 86 69h60q-2 -100 -50 -175t-128 -75q-55 -1 -124 45t-112 46q-63 0 -94 -74h-57q8 102 62 173q53 71 113 71zM872 724q0 -99 -78 -173
q-142 -133 -466 -180q8 -135 68 -213t144 -78t140 36q57 36 125 109l47 -45q-156 -211 -377 -211q-186 0 -292 116q-105 116 -105 335t131 381t342 162q141 0 231 -70t90 -169z" />
    <glyph glyph-name="uni1ECA" unicode="&#x1eca;" horiz-adv-x="612" 
d="M269 -129q58 0 91 -37q33 -36 30 -104t-41 -105t-95 -37t-90 37t-30 106t40 105t95 35zM268 1126q4 45 -51 60l-55 16l12 60h451l-13 -60l-49 -18q-49 -16 -55 -30q-6 -13 -8 -28l-97 -991q-4 -32 22 -46q9 -5 30 -11l53 -19l-10 -59h-451l12 59l50 17q59 16 63 59z" />
    <glyph glyph-name="uni1ECB" unicode="&#x1ecb;" horiz-adv-x="561" 
d="M242 -129q58 0 92 -37q33 -36 30 -104t-41 -105q-37 -37 -95 -37t-91 37q-32 37 -29 106q4 69 40 105t94 35zM512 76q-150 -82 -270 -107q-49 11 -79 55t-24 105l64 637q6 51 -33 63l-84 19l10 57q127 37 295 58h33q12 -63 4 -164l-63 -645q-2 -27 7 -39t25 -9l101 25z
M348 1126q-59 0 -100 40t-39 106q0 66 41 106t100 39q60 0 100 -40t40 -104t-41 -106q-42 -41 -101 -41z" />
    <glyph glyph-name="uni1ECC" unicode="&#x1ecc;" horiz-adv-x="1282" 
d="M613 35q144 0 245 165q100 165 125 428t-41 430t-210 167t-246 -164t-129 -424q-26 -260 43 -431t213 -171zM608 -31q-256 0 -397 174q-141 173 -111 481t207 488q176 180 428 180t393 -174q140 -174 110 -485t-202 -487t-428 -177zM617 -129q57 0 91 -37q34 -36 30 -104
t-41 -105q-38 -37 -95 -37t-90 37t-30 106t40 105t95 35z" />
    </font>
</defs>
</svg>
